<?xml version="1.0" standalone="no"?>
<!DOCTYPE svg PUBLIC "-//W3C//DTD SVG 1.1//EN" "http://www.w3.org/Graphics/SVG/1.1/DTD/svg11.dtd" >
<svg xmlns="http://www.w3.org/2000/svg">
<metadata></metadata>
<defs>
<font id="pegyptaregular" horiz-adv-x="1103" >
<font-face units-per-em="2048" ascent="1638" descent="-410" />
<missing-glyph horiz-adv-x="1024" />
<glyph horiz-adv-x="2048" />
<glyph horiz-adv-x="2048" />
<glyph unicode="&#xd;" horiz-adv-x="2048" />
<glyph unicode=" "  horiz-adv-x="1024" />
<glyph unicode="&#x09;" horiz-adv-x="1024" />
<glyph unicode="&#xa0;" horiz-adv-x="1024" />
<glyph unicode="!" horiz-adv-x="659" d="M192 297q7 -53 25.5 -103.5t46 -97.5t58.5 -84q8 -12 20 -12q14 0 25 12q68 78 107.5 180t23.5 211q-8 49 -27.5 74t-81.5 33q8 133 26.5 260t31 257t11.5 266.5t-34 289.5q-10 35 -26.5 59.5t-53.5 28.5q-33 2 -52.5 -29.5t-23.5 -66.5q-25 -154 -24 -291 q0 -137 12 -266t27.5 -254t21.5 -254q-53 -4 -76.5 -31.5t-33.5 -75.5q-10 -53 -3 -106zM236 403l26 50l29 -131zM387 328l41 125l27 -43z" />
<glyph unicode="&#x22;" horiz-adv-x="473" d="M82 1307q0 12 1 19t1 15q0 10 1 25.5t1 42.5q2 53 2 94v68v65l119 -18v-66v-67q0 -41 -2 -94q0 -27 -1 -42.5t-1 -25.5q0 -8 -1 -15.5t-1 -19.5q0 -33 3 -71.5t7 -83.5l-117 2q-4 49 -8 91t-4 81zM260 1294q0 12 1 19.5t1 15.5q0 10 1 25.5t1 42.5q2 53 2 94v68v65 l119 -18v-66v-67q0 -41 -2 -95q0 -27 -1 -42t-1 -25q0 -8 -1 -15.5t-1 -19.5q0 -33 3 -72t7 -84l-117 2q-4 49 -8 91t-4 81z" />
<glyph unicode="#" horiz-adv-x="1114" d="M29 193v69h12q4 0 10 9.5t15 19.5v-2l4 12q14 6 16 6q0 2 2 2q0 6 4 12.5t10 6.5q4 0 7 2l2 2q0 6 4 12t10 6h2q4 0 6 2q4 6 9 12l5 7h5l4 4q2 2 2 4t2 14h10q2 0 6 2q0 14 1 17.5t11 3.5l11 2l2 4q4 4 8 10l4 6h2q4 0 6 2q4 6 9 12l6 7l-9 -2l5 2l12 4q4 6 9 11l5 5 q4 0 6 2v2l2 15l15 6q2 0 4 2q4 14 6 17t8 3q4 0 5 1t5 1q0 4 2 7l-2 -5q0 4 1 6.5l5 12.5h37q4 10 12.5 18t18.5 15l12 12q4 6 9 12l6 6q4 0 8 2q-2 0 2 4h-2q0 2 4 13q10 4 12 5t6 1l-4 -2h2q4 2 15 16q8 10 14 19.5t16 13.5v55h-43v19h-12q-8 -14 -30.5 -35t-47.5 -45 q-37 -35 -68.5 -69t-27.5 -46h-43q-6 -10 -20.5 -24.5t-31 -30.5t-28.5 -28.5t-12 -22.5h-78l12 18q8 4 9 5t4 1l-5 -2l2 -4q2 4 3 8q4 6 9 13l5 6l4 2l2 -4q0 4 2 8q0 12 10 16h-4q4 4 17 4q4 6 9 12l5 7l3 1t5 3q4 6 9 12l5 6q4 0 9 2q-2 0 0 2t2 5q0 2 2 12h10q2 0 6 2 q0 6 2 12t8.5 8t10.5 2l-4 -2l2 -4l6 13q2 4 7 9l5 5q4 0 8 2q-2 0 0 2q4 6 9 12l6 6l-5 -2q8 4 13 4q4 6 9 13l5 6l4 2l2 4q2 2 2 4t2 12h11q2 0 6 2l2 3q0 2 2 4q-2 2 -2 10t5 18.5t13 10.5q6 0 8 -3h9h2q4 0 6 3v-5l4 9q2 4 7 9l5 5l4 2l2 2l2 2q0 14 13 19q4 2 6 2v57 h-41v18h-10q-2 -12 -8.5 -14t-14.5 -6h2l-6 -4v-15h-137v13q0 10 -25 10v41h-18v74h18v43h21v59h-17v47h72v-14h31q2 8 8 12t12 6t6 6v15h117q0 -4 8 -15.5t20.5 -22.5t22.5 -20.5t15 -9.5v-69h-21v-43h-18v-60q14 -4 20 -18h10v18h47q14 23 60.5 68t93.5 92q25 25 48.5 47 t42 42.5t29.5 35t9 20.5h51v-71q-6 0 -22.5 -12.5t-38 -32t-46 -46t-50.5 -53.5q-47 -47 -86 -87t-58 -54v-57q10 -2 19 -19h14v17h39q4 10 13 18t20 16q2 2 5 4t7 7v-5l4 9q2 4 7 9l5 5l3 1t6 3q2 4 4 6t4 6q4 4 7 5.5t7 5.5q0 12 2 16q2 2 4 2t12 2q4 6 10 13l5 6q4 0 8 2 q-2 0 0 2v-4l4 8q2 4 7 9l5 5l-6 -6q4 4 13 8q4 14 10 19h-4l5 2q5 2 11 2l4 14l14 6q2 0 5 2q0 8 2 10l4 5l-4 -5q4 8 10 9l-6 -4q8 4 14 8q4 14 10 16h-4l6 2t11 2q4 6 9 14l5 7h2q4 0 6 2l4 14l15 6l2 2q2 2 2 4t2 13q10 4 11 5t5 1h2q2 6 10 14l9 4l6 6h-2q0 2 2 13 l10 5t6 1v-8l6 12q2 4 8 9l5 5q4 0 8 2q-2 0 0 2q2 4 4 6.5t4 6.5q4 4 7 5t7 5q0 14 4 16t7.5 4t7.5 4v37h75v-45q-10 0 -30.5 -18.5t-43 -43t-43 -46t-36.5 -29.5v-39q-10 0 -51 -40t-90.5 -91t-94.5 -96t-67 -60v-57q14 -8 20 -22h13v20h43q10 12 31.5 33.5t35.5 29.5v46 h14q6 0 14.5 10t16.5 22q4 4 0 3t-2 1q12 6 14 7.5t7 1.5q0 6 4 12t10 6l3 1t5 3l4 14q14 6 17 7q2 2 2 4t2 12q2 2 8 3t10 3q2 6 6 12.5t8 6.5t9 2q-2 0 2 4h-2q0 2 2 12q4 4 20 14q10 6 18.5 12.5t8.5 20.5h69v-47q-14 2 -57 -43t-96 -98l-88 -88t-62 -56v-78h54v19h43v18 h75v-18h43q0 -2 -1 -7t-1 -7q0 -10 11 -11h12v-112h-14q-4 0 -7 -6q-4 -8 -6 -14.5t-12 -8.5v-33h18v-69h-73v16h-15v-20h-43v-21h-118q2 8 -15.5 26.5t-23.5 18.5v117h18v43h16v10q-14 6 -18 23h-57q-12 -20 -53.5 -58.5t-88.5 -85.5q-27 -27 -53.5 -52.5t-45.5 -48 t-31.5 -37.5t-10.5 -19h-76v45q6 0 21.5 13t37 33.5t48 47t53.5 55.5q51 53 97 100.5t69 59.5v33q-16 2 -21 24h-32v-20h-43q-4 -14 -13.5 -20.5t-17.5 -14.5q-4 -2 -14 -12l-5 -17q-2 0 -7 1t-7 3q0 -4 -1 -6t-5 -12v2q-4 -12 -16 -12q-4 -8 -9 -19h-8q-4 0 -6 2 q0 -2 -8 -20q0 2 -4 -1t-8 -5l-5 -2l-4 -21h-12t-2 4l-6 -20q-6 -6 -16 -6q-4 -8 -9 -19q-2 0 -8 1l-6 1l-6 -24q-8 0 -17 -4q-4 -8 -8 -19h-6t-6 2q0 -2 -1 -5l-5 -15q-4 -4 -6 -4t-15 -2q-2 -2 -3 -5.5t-3 -5.5q-4 -6 -9 -13t-9 -11q-2 0 -6 -2t-9 -4l-2 -2q0 -4 -8 -21 q-8 0 -16 -2q0 -2 -4 -14q-2 0 -5 -2t-8 -4l-4 -3l-4 -18q-2 0 -7 1t-7 3q0 -4 -2 -7t-6 -15q2 2 -15 -7h2q-8 -8 -19 -17t-11 -11v-12h-45zM68 299l2 2zM84 305l2 -4v4h-2zM160 283v2q2 0 0 -2zM201 328h2q0 2 2 2t0 -2h-4zM379 502v2v-2zM911 1114l1 1t3 1z" />
<glyph unicode="$" horiz-adv-x="684" d="M0 1047l233 -250v-299q-27 -37 -58.5 -82t-61 -87t-53 -74t-33.5 -44l172 -25l34 45v-231h84v340l224 289v49q-12 12 -40 43t-61.5 66.5t-66.5 72.5t-56 62v245l248 248v25h-172l-76 -76v276l-84 -2v-358zM219 1059q0 2 1 7l1 5l12 12v-55q-10 13 -12 19l-1 5q-1 5 -1 7z M317 608v99l27 -29l1 -5t1 -7t-1 -8l-1 -5q-2 -6 -9 -19t-18 -26z" />
<glyph unicode="'" horiz-adv-x="251" d="M53 1315q0 12 1 19t1 16q0 10 1 25.5t1 41.5q2 53 2 94v68v66l119 -19v-65v-68t-2 -94q0 -27 -1 -42.5t-1 -25.5q0 -8 -1 -15t-1 -20q0 -33 3 -71.5t7 -83.5l-116 2q-4 49 -8.5 91t-4.5 81z" />
<glyph unicode="(" horiz-adv-x="1067" d="M0 782q0 442 313.5 755.5t755.5 313.5v-122q-391 0 -668 -279q-279 -279 -278 -670q0 -385 278 -667q276 -276 668 -277v-123q-442 0 -754 312q-315 315 -315 757z" />
<glyph unicode=")" horiz-adv-x="1067" d="M0 -164v-123q442 0 754 312q315 315 315 757t-313.5 755.5t-755.5 313.5v-122q391 0 668 -279q279 -279 278 -670q0 -385 -278 -667q-276 -276 -668 -277z" />
<glyph unicode="*" horiz-adv-x="864" d="M41 911l22 68h232l104 235l97 7q6 -23 14 -46.5t16 -44.5q37 -102 70 -149q31 0 82 7t123 22l12 -41l-127 -121q23 -37 55.5 -93t73.5 -132q-27 -16 -65 -17q-66 29 -149 65t-185 79q-43 -23 -113 -76q-45 -35 -72.5 -56.5t-40.5 -31.5l-36 -25l-56 57q45 53 127 201 q-33 18 -79 42t-105 50zM336 844q33 -10 65 -25q51 29 127 62h-174zM399 977q23 -2 43 -2h41q-4 8 -9 23.5t-11 41.5q-12 57 -21 68q-6 -27 -17 -59.5t-26 -71.5zM539 778q29 -8 52.5 -16.5t43.5 -16.5q-8 12 -18.5 27.5t-20.5 32.5z" />
<glyph unicode="+" horiz-adv-x="1099" d="M170 1016l53 4q29 2 68 2h90h51q29 0 64 -2q4 78 11 148.5t21 131.5l68 -20l-12 -55q-10 -35 -14.5 -85t-6.5 -116h37t50.5 -1t54.5 -1h53q94 6 160 6h55l14 -61h-55q-35 0 -74 -1t-86 -3q-25 -2 -53 -2h-55q-27 0 -50.5 -1.5t-38.5 -1.5q0 -10 -2 -31.5t-4 -48t-3 -54 t1 -50.5q6 -92 6 -137v-55l-69 -4v55q0 23 -1 57.5t-3 81.5q-2 23 -1 50.5t3 54t4 48t2 31.5q-35 2 -64 2h-49q-96 0 -207 -6z" />
<glyph unicode="," horiz-adv-x="331" d="M78 -111v-34t6 -35q4 -8 11.5 -13.5t27.5 -5.5q37 0 57.5 23.5t31.5 57.5t13 72t2 64v35q0 20 -4 33q-4 8 -11 13t-28 5q-37 0 -58.5 -23.5t-31.5 -57t-13 -70.5t-3 -64z" />
<glyph unicode="-" d="M201 1006l65 6q86 12 226 12q269 0 423 -18l-18 -107q-145 18 -408 19q-131 0 -272 -19z" />
<glyph unicode="." horiz-adv-x="442" d="M125 113q0 47 37 77.5t90 30.5t90 -31q39 -32 39 -77q0 -41 -39 -76q-37 -31 -90 -31t-90 31q-37 33 -37 76z" />
<glyph unicode="/" horiz-adv-x="1257" d="M129 96l55 56q59 59 113 174q20 47 39.5 96t42.5 98q45 96 160 293q53 92 93 167t62 130q29 68 55.5 135.5t55.5 134.5q66 154 141 256l125 -92q-72 -98 -131 -239q-27 -66 -52.5 -128.5t-49.5 -127.5q-25 -55 -65 -130t-93 -169q-59 -100 -99 -175t-63 -122 q-29 -59 -55.5 -122t-52.5 -124q-51 -98 -170 -219z" />
<glyph unicode="0" horiz-adv-x="1837" d="M20 0h1721v391q-43 0 -78 -24.5t-66.5 -54t-64.5 -54.5t-70 -25q-4 0 -11 1.5t-11 1.5q135 115 198.5 277.5t63.5 336.5q0 172 -62.5 322.5t-171 263t-256 178t-319.5 65.5q-180 0 -328.5 -70.5t-255 -189.5t-166 -274.5t-59.5 -327.5q0 -186 70.5 -332.5t210.5 -269.5 q-2 0 -9.5 -1t-11.5 -1t-11 1t-11 1q-25 14 -62 46t-75 64.5t-75.5 57.5t-66.5 25h-23v-408zM190 868q0 147 55.5 275.5t151 223.5t223.5 150.5t273 55.5q147 0 275 -55.5t222.5 -151.5t148.5 -226t54 -280q0 -152 -51 -285t-143 -232t-221 -157.5t-285 -58.5t-285 60.5 t-222 162t-144.5 235t-51.5 283.5zM430 1333q2 -4 19.5 -22.5t37 -43t35 -51t15.5 -45.5q0 -37 -11.5 -69.5t-11.5 -73.5q0 -66 17.5 -127t37 -122.5t37 -124t17.5 -130.5q0 -63 -22.5 -96t-50.5 -51.5t-50.5 -33.5t-22.5 -42h387q0 29 -23.5 42t-45.5 22v102q6 0 22.5 4 t20.5 2q6 -2 18 -7t25.5 -12.5t26 -14.5t16.5 -9l32 21v172q39 -10 76 -62.5t71 -111t66.5 -104.5t67.5 -46q41 0 68.5 36t27.5 73q0 14 -14 32.5t-32.5 39l-37 41t-24.5 38.5q4 0 7 1t5 1q27 0 53.5 -18.5t54 -40t57.5 -40t64 -18.5q0 27 -5 49.5t-21 43.5q-16 16 -56.5 58 t-84.5 90t-83.5 91t-54.5 62q-4 6 -20.5 27.5t-37 49t-41 54t-30.5 41.5q-33 45 -63.5 98t-64.5 105.5t-71.5 100.5t-80.5 83q-29 25 -60 24h-69q-37 0 -62.5 -2t-46 -11t-40 -26.5t-44.5 -48.5zM555 1382q31 0 52.5 -10t21.5 -45q-31 0 -52.5 10t-21.5 45zM616 924h72 q104 -119 239.5 -182.5t297.5 -75.5q-2 -12 -11.5 -16.5t-21.5 -6.5t-22.5 -1t-16.5 1q-35 0 -87 11.5t-111.5 31t-120 46t-108.5 57t-79 65.5t-31 70zM688 365v86h21v-86h-21zM817 903h21l301 -151q-2 0 -9.5 -1t-11.5 -1q-27 0 -72 16t-91 38.5t-85 49t-53 49.5zM924 967 q4 0 7 2t5 2q14 0 33.5 -12.5t39 -30t37 -37t29.5 -31.5q-2 0 -5 -1t-5 -1q-16 0 -36.5 13.5t-41 32t-38 36t-25.5 27.5z" />
<glyph unicode="1" horiz-adv-x="745" d="M68 1219h436v-1217h139v1638h-51q-2 0 -56.5 -34.5t-128 -83.5t-150.5 -101.5t-126 -87.5q-35 -23 -49 -48t-14 -66zM336 1333v25l153 102v-127h-153z" />
<glyph unicode="2" horiz-adv-x="1226" d="M39 8h1091v25l-466 368l-1 5q-1 4 -1 6q0 18 15 47.5t33.5 59.5t34 52.5t17.5 26.5q37 68 72.5 142.5t63.5 152.5t45.5 157.5t17.5 159.5q0 78 -25 150t-72 127t-113.5 88t-148.5 33q-80 0 -148.5 -34t-120.5 -91.5t-82 -130t-30 -152.5q0 -41 20.5 -82t51.5 -77.5 t64.5 -68.5t60.5 -54q4 -2 18.5 -3.5t18.5 -1.5q39 0 51 22.5t12 57.5q0 31 -19.5 53.5t-44 47t-44 57.5t-19.5 86q0 96 56.5 159.5t156.5 63.5q66 0 126.5 -28.5t80.5 -96.5v-24q0 -16 1 -36t1 -38v-25q0 -154 -51 -301t-135 -282t-190.5 -255t-215.5 -218 q-8 -6 -37.5 -24.5t-61.5 -40t-57.5 -45t-25.5 -38.5zM418 131q6 8 19.5 25.5t29.5 37t29.5 37t19.5 23.5q4 6 13.5 15.5t11.5 9.5h12q29 0 58.5 -15.5t57 -38t52 -48t41.5 -46.5h-344z" />
<glyph unicode="3" horiz-adv-x="684" d="M27 0h170l368 369v49q-16 16 -54 69.5t-81 115t-81 114.5t-52 69q-8 8 -26.5 36t-22.5 38l-1 5t-1 7t1 8l1 5l344 368l-393 394h-172v-25l344 -344l1 -5q1 -5 1 -7t-1 -8l-1 -5q-4 -4 -13.5 -18t-21.5 -29.5t-22.5 -30t-16.5 -20.5q-14 -16 -49 -54t-74 -81t-73.5 -82 t-49.5 -53v-49l342 -443z" />
<glyph unicode="4" horiz-adv-x="1167" d="M25 651h897v-651h135v1632h-135v-821h-381q14 8 53 28.5t82 44t82 44t53 30.5q10 8 29.5 27t19.5 23v624h-135v-555l-700 -389v-37z" />
<glyph unicode="5" horiz-adv-x="923" d="M125 -2h156t160.5 9t151.5 29.5t127 62.5t87 109.5t33 168.5q0 164 -96.5 261t-249.5 132v356h319v123h-344v99h344v122h-319q4 8 3 24.5t-5.5 34t-10.5 33t-12 19.5q-2 2 -25.5 6t-35.5 4t-36 -4t-26 -6q-6 -4 -12 -19.5t-10.5 -33t-5.5 -33.5t4 -25h-197v-122h197v-99 h-197v-123h209v-479q74 -8 138.5 -23.5t113.5 -48t77.5 -86t28.5 -135.5q0 -29 -11 -64.5t-31.5 -68.5t-47.5 -55.5t-59 -22.5h-418v-145z" />
<glyph unicode="6" horiz-adv-x="1554" d="M225 561q0 156 68 309q63 143 203 312q74 90 151.5 163.5t161.5 135.5q80 61 203 104q47 16 93 30.5t93 31.5q96 33 145 32q35 -2 35 -16q0 -23 -55 -61q-151 -90 -221 -117q-117 -59 -205 -142q-80 -72 -135 -124t-86 -86q-115 -127 -219 -306q-74 -127 -74 -262 q4 -238 180 -356q98 -66 213 -66q111 2 201 58q96 57 151 161q57 102 58 191q-2 106 -84 158q-53 31 -94 30q-70 0 -84 -61q-6 -25 18 -55q27 -35 23 -58q-10 -35 -21 -49q-12 -18 -31 -18q-33 2 -65 39q-35 35 -47 79q-8 25 -8 52q2 82 81 137q76 53 173 57q166 6 245 -143 q59 -106 60 -201q-4 -113 -84 -244q-82 -129 -211 -200q-129 -74 -277 -74q-166 4 -297 84q-258 156 -258 475z" />
<glyph unicode="7" horiz-adv-x="933" d="M25 1473h757q0 -131 -19.5 -271.5t-59 -281t-100 -273.5t-141.5 -250.5t-184.5 -213t-228.5 -158.5v-35q166 0 296 85t227.5 223t164 313t108.5 355.5t60.5 348.5t18.5 293h-899v-135z" />
<glyph unicode="8" horiz-adv-x="940" d="M133 1126q0 -59 16.5 -108t44 -92t63.5 -84t75 -84v-25q-10 -10 -30.5 -33.5t-44.5 -51t-44 -52.5t-29 -35q-31 -41 -28.5 -80t2.5 -92q0 -72 15 -140.5t49 -120.5t87 -84t131 -32q70 0 130.5 29t106.5 78t72.5 114.5t26.5 139.5q0 66 -10 110.5t-33.5 82.5t-61.5 77 t-93 90v25q43 43 79.5 83t62 83t41 91t15.5 107q0 70 -24.5 113t-57 80t-65.5 77t-51 103l25.5 25.5t35.5 39t31.5 46t13.5 47.5q-8 0 -30.5 -1t-47 -3t-47 -4.5t-31.5 -2.5q-4 0 -24.5 -11t-24.5 -13h-12h-12q-4 2 -24.5 13t-24.5 11q-10 0 -36 2.5t-54.5 4.5t-55.5 3 t-35 1q0 -4 3 -18.5t5 -16.5q4 -4 18.5 -22.5t31 -39t31 -39t18.5 -22.5l1 -5t1 -7t-1 -6t-1 -7q-41 -49 -77 -88t-63.5 -76.5t-43 -79.5t-15.5 -100zM281 373q0 35 1 60.5t25 53.5q14 16 39 42t48.5 49.5t41 40t19.5 16.5h24q25 0 55.5 -31t56 -71.5t44 -84.5t18.5 -69 q0 -37 -18.5 -79t-47 -79t-64.5 -61.5t-72 -24.5q-41 0 -73 22.5t-53.5 57.5t-32.5 77t-11 81zM281 1114q0 47 12 81t35.5 61.5t55.5 54t71 61.5q27 -23 60.5 -50.5t64 -59t52 -68.5t21.5 -80t-21.5 -80t-52 -68.5t-64.5 -59t-60 -50.5q-39 33 -71 60.5t-55.5 55t-35.5 61.5 t-12 81z" />
<glyph unicode="9" horiz-adv-x="1554" d="M223 16q0 20 56 62q149 88 221 117q117 59 205 141q80 72 135 124t86 87q115 127 219 305q74 125 74 262q-4 238 -181 356q-98 66 -213 66q-111 -2 -200 -57q-96 -57 -152 -162q-57 -102 -57 -191q2 -106 84 -157q51 -31 94 -31q68 0 84 61q6 25 -19 56q-27 35 -22 57 q10 35 20 49q12 18 31 19q33 -2 66 -39q35 -35 47 -80q8 -25 8 -51q-2 -82 -82 -138q-76 -53 -172 -57q-166 -6 -246 143q-59 106 -59 201q4 113 84 244q82 129 211 201q129 74 276 73q166 -4 297 -84q258 -158 258 -475q0 -156 -67 -309q-63 -143 -203 -311 q-74 -90 -151.5 -164t-161.5 -135q-80 -61 -203 -105q-47 -16 -93 -30.5t-94 -30.5q-96 -33 -145 -33q-35 2 -35 16z" />
<glyph unicode=":" horiz-adv-x="245" d="M41 952q0 -53 11.5 -65.5t64.5 -12.5q47 0 60 10.5t13 53.5q0 37 -18 61.5t-53 24.5q-47 0 -62.5 -14.5t-15.5 -57.5zM47 104q0 -37 20.5 -62.5t55.5 -25.5t54.5 26t19.5 62q0 43 -13.5 52.5t-60.5 9.5q-49 0 -62.5 -9.5t-13.5 -52.5z" />
<glyph unicode=";" horiz-adv-x="245" d="M25 -104v-35q0 -20 6 -35q4 -8 11.5 -13.5t27.5 -5.5q37 0 57 24t31.5 57.5t13.5 71.5t2 65v34t-4 33q-4 8 -11 13.5t-28 5.5q-37 0 -58.5 -24t-31.5 -57.5t-13 -70.5t-3 -63zM63 981q0 -29 7 -47q4 -16 16 -25.5t45 -9.5q37 0 48 11.5t11 47.5q0 35 -9 47.5t-25 16.5 q-18 6 -47 6h-46v-47z" />
<glyph unicode="&#x3c;" horiz-adv-x="442" d="M51 672q0 -18 4 -29.5t13 -24.5q6 -8 24 -26q10 -10 18.5 -19.5t18.5 -19.5q8 -10 32.5 -34.5l53.5 -53.5l55.5 -55.5l40.5 -40.5q10 0 18.5 -1t10.5 -1q33 0 37 11t4 52v14q0 10 -2 19l-201 203l201 264q2 10 2 20v17q0 41 -5 52t-40 11q-10 0 -35 -21.5t-56.5 -55 t-66.5 -74.5t-62.5 -81t-46 -74t-18.5 -52z" />
<glyph unicode="=" horiz-adv-x="774" d="M70 637q0 -18 4 -34.5t8 -20.5t12 -4q31 0 57.5 12t53.5 28q29 16 66.5 32t84.5 16q59 0 107.5 -15.5t87.5 -32.5q18 -8 33.5 -15t31.5 -13q32 -12 48 -12q41 0 56 23.5t15 72.5q0 6 -2 22.5t-2 30.5q-37 20 -79 30.5t-87 12.5t-90 1t-84 -1q-47 0 -91 1t-87 -3 q-35 -4 -71 -13.5t-70 -29.5q-2 -14 -2 -31v-20v-37zM70 971q0 -16 4 -32.5t8 -21t14 -4.5h635q2 4 1 9.5t1 9.5q2 16 0 30.5t-2 16.5v37q-2 14 -6 20q-4 4 -13.5 7.5t-33.5 3.5h-31q-23 0 -36 -5.5t-31 -23.5h-390q-43 57 -94 57q-12 0 -16 -3t-6 -7t-3 -9t-1 -16v-36v-33z " />
<glyph unicode="&#x3e;" horiz-adv-x="468" d="M70 1014q0 -25 13 -50.5t33.5 -50t44 -46t42.5 -38.5q10 -6 16 -12l14 -14q14 -12 33 -33l2 -10v-10q0 -45 -32.5 -79t-63.5 -61q-35 -31 -55.5 -57.5t-20.5 -58.5q0 -45 6.5 -53.5t34.5 -8.5q4 0 12.5 1t16.5 1q16 18 48 53t63.5 72t60.5 68.5t39 46.5q10 10 16 18 t13 15q4 8 8 13t6 9q4 10 6 20.5t2 32.5q0 31 -37 75t-87 85t-104.5 69.5t-88.5 28.5q-29 0 -35 -5t-6 -21z" />
<glyph unicode="?" horiz-adv-x="1044" d="M33 1223q0 -29 27.5 -62t67.5 -60.5t85 -46t78 -18.5q27 0 43 4t16 39q0 27 -17.5 54.5t-17.5 66.5q0 49 37 69.5t68 26.5q29 4 56.5 5.5t55.5 1.5q61 0 113.5 -13.5t91.5 -44.5t61.5 -81t22.5 -122q0 -104 -50 -182t-111.5 -148.5t-111.5 -145t-50 -173.5q0 -84 57 -84 q29 0 40 13.5t17 42.5q6 31 10.5 68.5t20.5 66.5q25 43 52.5 78.5t54 68.5t53 61.5t51.5 59.5q45 57 74.5 120.5t29.5 160.5q0 86 -33.5 158.5t-92 125.5t-134 83t-157.5 30q-49 0 -79 -4t-47.5 -11.5t-26.5 -16.5t-15 -17q-6 -6 -11.5 -13.5t-9.5 -13.5 q-27 -39 -58.5 -62.5t-74.5 -41.5q-41 -16 -78 -12.5t-78 8.5q-31 2 -30 -39zM473 92q0 -45 11.5 -58.5t58.5 -13.5q37 0 51 9.5t14 48.5q0 35 -17.5 57.5t-45.5 22.5q-45 0 -58.5 -12.5t-13.5 -53.5z" />
<glyph unicode="@" horiz-adv-x="1208" d="M82 492q0 215 160 405q168 199 383 199q150 0 278 -74q63 -41 112.5 -91t82.5 -116q25 -49 24 -100q0 -262 -200 -422q-100 -82 -193 -82q-162 0 -283 59q-86 45 -128 105.5t-42 146.5q0 133 97 260q106 131 235 131q90 0 183 -51q102 -59 102 -149q0 -86 -41 -164 q-55 -98 -156 -98q-66 0 -108 24q-66 35 -66 117q0 55 29 100l28.5 28.5t47.5 45.5l73 -82l-41 -39q-29 -23 -28 -53q0 -31 65 -31q35 0 60 45q25 39 24 107q0 37 -71 63q-59 25 -101 25q-74 0 -149 -88q-35 -45 -53.5 -93.5t-18.5 -97.5q0 -94 111 -151q94 -49 231 -49 q49 0 123 59q158 127 158 334q0 37 -47 102q-119 168 -338 168q-166 0 -301 -166q-131 -156 -131 -327q0 -59 40 -146q70 -135 207 -186q117 -43 318 -43q78 0 180 24q10 2 53 13.5t123 35.5l29 -106q-78 -23 -125 -36t-64 -17q-109 -25 -196 -25q-221 0 -357 49 q-182 70 -268 242q-29 53 -40 102.5t-11 92.5z" />
<glyph unicode="A" horiz-adv-x="1337" d="M25 0h1288v74l-602 1517q-12 31 -18.5 42.5t-33.5 11.5q-6 0 -14 -1.5t-8 -3.5l-612 -1566v-74zM223 150l439 1118l452 -1118h-891zM496 422h346v123h-346v-123z" />
<glyph unicode="B" horiz-adv-x="819" d="M115 -4q74 0 136 12t118.5 35t114 53.5t122.5 69.5q14 8 35 21.5t40 26.5t33 24l15 10v102l-184 594q0 2 -1 19.5t-1 27.5q0 41 16 76t36.5 68.5t37 68.5t16.5 78q0 55 -19.5 115.5t-56 109.5t-88 82t-114.5 33q-37 0 -81 -20.5t-83 -53t-65.5 -73.5t-26.5 -80v-1399z M258 154v1159q0 18 15.5 43.5t37 47t47 37t43.5 15.5q20 0 39 -16.5t33 -38t22.5 -44t8.5 -34.5q0 -41 -19.5 -76t-43 -68.5t-43 -68.5t-19.5 -76q0 -4 1 -15t1 -13l205 -676q4 -12 -38 -42t-98.5 -59.5t-111.5 -52t-80 -22.5z" />
<glyph unicode="C" horiz-adv-x="929" d="M68 1049q0 -61 20.5 -130t56 -132.5t83.5 -117t102 -83.5q20 -10 37.5 -21.5t25.5 -34.5q4 -8 6 -27.5t4.5 -42t2.5 -42.5v-31q0 -37 -12.5 -87t-30 -104.5t-36 -105.5t-28.5 -90h283q6 0 21 -1t32 -1h31q14 0 20 2q-25 78 -47.5 154.5t-39.5 154.5t-27 157 q-9 66 -10 135q0 13 1 26v20q-59 39 -113.5 82t-97.5 93t-68.5 111.5t-25.5 135.5q0 57 10.5 120.5t34.5 113.5q29 59 81 117.5t115.5 105.5t133 79.5t137.5 41.5l35 22l-22.5 9t-22.5 5q-74 0 -159 -25.5t-167 -67.5t-151.5 -97t-110.5 -115q-47 -74 -75.5 -158.5 t-28.5 -170.5zM330 27q14 27 32.5 71.5t34 96t25.5 98.5t10 76q0 45 -5 91t-11 91q20 -14 43 -14t41 10t35 20q-4 -29 -4 -59q0 -38 6 -76q10 -70 29.5 -138.5t42 -137t40.5 -129.5h-319zM369 55h233q-27 106 -54.5 215t-27.5 219v27q0 12 2 27q-12 -10 -25.5 -18.5 t-29.5 -8.5q-10 0 -17.5 3t-13.5 7q4 -41 8.5 -82t4.5 -82q0 -25 -7.5 -68.5t-19.5 -89.5t-26.5 -87.5t-26.5 -61.5zM403 575q6 23 18.5 38.5t37.5 15.5q16 0 32.5 -4t32.5 -11q-8 -23 -29 -36t-46 -13t-46 10zM438 98l47 80l45 -80h-92z" />
<glyph unicode="D" horiz-adv-x="866" d="M4 1608v24q115 0 214 -41t187.5 -105.5t166 -144t151.5 -157.5q47 -86 80 -169t33 -181t-38 -209t-101.5 -212.5t-146.5 -182t-171 -119.5q-29 -12 -72 -31t-84 -37t-70.5 -30.5t-31.5 -12.5h-55v18q47 86 92 184.5t80.5 203t58 210t22.5 203.5q0 106 -26.5 211 t-70.5 205t-100 193.5t-118 179.5zM133 1534q86 -41 149.5 -124t104.5 -183.5t60.5 -207t19.5 -192.5q0 -84 -19.5 -175t-51 -180t-74.5 -173t-91 -152v-18q23 16 48.5 25.5t52 18.5t52.5 19.5t50 28.5q55 45 101.5 121t80 162t53 174t19.5 156q0 111 -45 208t-115.5 181 t-155.5 157.5t-165 135.5q-16 12 -27.5 16t-27.5 4q-4 0 -10.5 -1t-8.5 -1z" />
<glyph unicode="E" horiz-adv-x="937" d="M70 -4h118v129h508l37 -111q2 -4 11.5 -7t13.5 -3q27 0 39 25.5t14 59.5q1 17 1 33t-1 32q-2 32 -2 45q0 12 2 40.5t0 58.5t-14.5 51.5t-38.5 21.5q-4 0 -13.5 -2t-11.5 -4l-37 -93h-497v134q6 0 21.5 2t33.5 5t33.5 5t21.5 2q4 -2 18.5 -18.5t18.5 -18.5l10 -1 q11 -1 17 -1q45 0 83 36t38 85q0 23 -11.5 42t-30 32.5t-40 21.5t-39.5 8q-6 0 -17 -1l-10 -1q-4 -2 -18.5 -18.5t-18.5 -18.5q-6 -2 -21.5 0t-33.5 5t-33.5 5.5t-21.5 2.5v153h497q4 -14 8.5 -31.5t10.5 -32t17 -23.5t30 -9q27 0 38 24.5t13 55.5q1 12 1 24q0 17 -2 35 q-3 28 -3 39q0 12 3 42q2 15 2 30t-2 31q-3 30 -14.5 54.5t-39.5 24.5q-4 0 -13.5 -2t-11.5 -4l-37 -110h-497v170q6 0 21.5 2t33.5 5t33.5 5t21.5 2q4 -2 18.5 -18.5t18.5 -18.5l10 -1q11 -1 17 -1q43 0 83 33t40 82q0 20 -11.5 40.5t-30 36t-40 24.5t-41.5 9q-6 0 -17 -1 l-10 -1q-4 -2 -18.5 -18.5t-18.5 -18.5q-6 -2 -21.5 0t-33.5 5.5t-33.5 5.5t-21.5 2v135h497q2 -10 7.5 -28.5t13.5 -37t18 -33t25 -14.5q25 0 35 26.5t13 60.5t2 63.5t-1 36.5q0 6 1 35.5t-2 63.5t-13.5 60.5t-34.5 26.5l-8 -2q-14 -8 -27.5 -36t-21 -49.5t-7.5 -25.5h-508 v129h-118v-1640zM358 471q0 16 5 38.5t28 22.5q2 0 6 -1l4 -1q6 -4 19.5 -18t17.5 -18q-18 -14 -37.5 -18.5t-42.5 -4.5zM358 1116q0 16 5 39t28 23q2 0 6 -1l4 -1q6 -4 19.5 -18.5t17.5 -18.5q-18 -14 -37.5 -18.5t-42.5 -4.5zM752 125v147h18v-147h-18zM752 733v148h18 v-148h-18zM752 1360v147h18v-147h-18z" />
<glyph unicode="F" horiz-adv-x="882" d="M82 8h121v737h506q8 -29 19 -62.5t48 -33.5q27 0 37 24.5t12 55.5q1 12 1 24q0 17 -2 35q-3 28 -3 39q0 12 3 42q2 15 2 30t-2 31q-3 31 -14 55.5t-40 24.5q-4 0 -13 -3t-12 -3l-36 -111h-498v170q6 0 22.5 2t34 5t32.5 5t22 2q4 -2 18 -19.5t18 -17.5l10 -1q11 -1 17 -1 q45 0 84 33t39 80q0 23 -11.5 42t-29.5 34.5t-39.5 25t-42.5 9.5h-27q-2 0 -7 -6.5t-11 -13.5t-11 -12t-7 -5q-6 -2 -21.5 0t-33 5t-34 5t-22.5 2v135h498q2 -10 7 -28.5t13 -37t19.5 -32.5t25.5 -14q25 0 35 26.5t13 60t1 63.5t-2 36t2 34.5t-1 62.5t-13 60.5t-35 26.5h-10 q-14 -8 -27.5 -36.5t-20.5 -49t-7 -24.5h-506v129h-121v-1641zM373 1128q0 16 5 38t28 22h8q6 -4 20.5 -18.5t16.5 -18.5q-16 -14 -36 -18.5t-42 -4.5zM764 745v148h18v-148h-18zM764 1372v148h18v-148h-18z" />
<glyph unicode="G" horiz-adv-x="1329" d="M121 1552q0 -14 19.5 -28.5t45 -26.5t50 -19.5t36.5 -7.5q18 0 40 -1t42 4q-68 -45 -110.5 -148.5t-69.5 -226.5t-37 -243t-10 -196q0 -33 4 -65.5t4 -65.5q0 -25 -3 -52t3 -52q14 -96 48 -175t90.5 -135.5t136 -88t184.5 -31.5q35 0 67.5 -3t67.5 -3q57 0 104.5 25.5 t81 66.5t52 94t18.5 107q0 37 -3 85t-8 98t-10.5 98t-9.5 85q-4 25 -1 57.5t3 59.5q0 43 16.5 61.5t51.5 34.5l131 60q29 9 29 17q0 5 -12 9q-15 4 -41.5 6t-57.5 2q-70 0 -115 -18t-71.5 -56t-37.5 -94.5t-11 -132.5q0 -27 1 -65.5t2 -80.5t2 -81t1 -66q0 -35 -11.5 -68.5 t-32 -60t-51 -42t-69.5 -15.5q-72 0 -108.5 37t-53 92t-18.5 117.5t-2 114.5q0 135 44 247.5t98 205.5t98 171t44 144t-30.5 115.5t-78.5 85.5t-106.5 58.5t-113.5 34.5q-39 8 -75 29t-77 21q-49 0 -93 -26t-83 -58zM152 1538l100 -12v-39q-33 6 -54.5 17.5t-45.5 33.5z M166 680q0 51 5 131t18.5 170t37 180t60.5 163t88 118t119 45q39 0 73.5 -17.5t59 -45t39 -64.5t14.5 -76q0 -27 -17.5 -81t-41 -113.5t-47 -112.5t-35.5 -76q-18 -39 -41 -76t-41.5 -75.5t-30.5 -80.5t-12 -87t14 -87t33 -83q-45 29 -64.5 73.5t-19.5 96.5q0 47 13 88 t24 82q-47 -10 -90 -27q-2 -29 -5.5 -60.5t-3.5 -64.5q0 -61 12.5 -116.5t34.5 -114.5q-55 51 -73.5 127.5t-18.5 148.5q0 23 3 47.5t8 48.5l-78 56q-4 -25 -6 -49.5t-2 -51.5q0 -94 19 -180t30 -178q-23 18 -37 64.5t-23.5 98.5t-13.5 101t-4 78zM209 872 q25 -18 48.5 -35.5t49.5 -33.5q4 12 13.5 43t19.5 65.5t18.5 65.5t8.5 41q0 23 -11.5 37t-28 24.5t-36 16.5t-35.5 12q-12 -57 -23.5 -116.5t-23.5 -119.5zM252 1581q0 31 29 31q12 0 23 -7.5t11 -23.5q0 -12 -9 -20.5t-21 -8.5t-22.5 8.5t-10.5 20.5zM270 1489v37h11v-37 h-11zM270 1581q0 -12 13 -12q12 0 12 12q0 14 -12 14t-13 -14zM281 1182q14 -16 24 -24.5t20.5 -14.5t22.5 -11.5t31 -15.5q29 82 56 165t50 167q-6 0 -14 1t-14 1q-25 0 -54.5 -33t-57.5 -77t-46 -89t-18 -69zM295 1483v45q23 2 43 8t41 6q14 0 35.5 -2t45 -8t43 -14.5 t29.5 -20.5q-14 2 -26 5t-25 3q-27 0 -50 -12t-40 -12q-8 0 -8 6q0 8 -8 8q-16 0 -40 -4t-40 -8zM360 801l84 18l105 223l-113 -4zM453 1104l110 -6q33 37 44 85t11 95q0 66 -15 96.5t-73 57.5q-20 -84 -39.5 -164t-37.5 -164z" />
<glyph unicode="H" horiz-adv-x="978" d="M49 1632l2 -1632h133v758q74 -41 139.5 -62.5t147.5 -21.5q92 0 159.5 25.5t147.5 78.5v-778h133l-2 1632h-133l2 -690q-68 49 -137.5 66.5t-148.5 17.5q-90 0 -161 -28.5t-147 -75.5l-2 710h-133zM236 840q20 33 53 53t69.5 31.5t76.5 15.5t75 4q27 0 58.5 -3t62.5 -11 t55.5 -25.5t40.5 -44.5q-2 -4 -9 -11t-11 -9q-16 -12 -47 -33t-51.5 -34t-24.5 -15l-41 41q-4 2 -27.5 4t-34.5 2q-6 0 -19 -1t-26.5 -2t-24 -2t-12.5 -1q-4 0 -12 -7.5t-18.5 -14.5l-19.5 -13t-11 -6q-8 0 -22.5 10t-31 23.5t-29.5 28t-19 20.5zM377 870q0 -16 14.5 -22 t31.5 -9t34.5 -2t23.5 1t23.5 -1t35 2t32 9t14.5 22q0 14 -14 22q-14 7 -32 10q-13 2 -27 2h-9q-18 -1 -23 -1t-23 1h-9q-13 0 -26 -2q-17 -3 -31.5 -10.5t-14.5 -21.5zM438 748q0 2 1 6l1 4q2 4 9.5 11t11.5 9l4 1q4 1 6 1t6 -1l4 -1q4 -2 11.5 -9t9.5 -11l1 -4q1 -4 1 -6 t-1 -6l-1 -5q-2 -4 -9.5 -11t-11.5 -9l-4 -1q-4 -1 -6 -1t-6 1l-4 1q-4 2 -11.5 9t-9.5 11l-1 5q-1 4 -1 6z" />
<glyph unicode="I" horiz-adv-x="364" d="M63 -6h236q0 6 -1 24.5t-2 39t-2 39t-1 26.5q-2 10 -7 46t-13.5 83t-16.5 101.5t-16.5 101.5t-14.5 82.5t-8 48.5v10q0 16 12.5 28.5t25.5 26t25.5 27.5t12.5 35q0 29 -17.5 53.5t-39.5 40.5q23 16 40 40.5t17 53.5q0 20 -12.5 34.5t-25.5 28t-25.5 25.5t-12.5 29v10 l8 48t14.5 83t16.5 101.5t16.5 101.5t13.5 82t7 47q0 6 1 25.5t1 39.5q0 23 1 43.5t1 26.5h-234q0 -6 1.5 -18.5t1.5 -28.5q0 -14 1 -27.5t1 -19.5q0 -12 6 -51t14 -90.5t17.5 -110.5t16.5 -110.5t13 -90.5t8 -51v-10q0 -16 -11 -28.5t-25.5 -26t-25.5 -27.5t-11 -35 q0 -14 8 -27.5t19.5 -25.5t19.5 -22.5t8 -18.5q0 -4 -5 -12.5t-11.5 -17.5t-12.5 -16t-8 -9q-4 -4 -11 -19.5t-7 -19.5v-6v-11q4 -14 16 -27.5t24.5 -25.5t22.5 -24.5t10 -22.5v-10q-2 -18 -13 -89t-24.5 -152t-23.5 -151.5t-12 -89.5q0 -6 -1 -21t-2 -32.5t-2.5 -34 t-1.5 -22.5z" />
<glyph unicode="J" horiz-adv-x="716" d="M18 1505q0 -14 15.5 -26.5t35 -22.5t36 -16t18.5 -6h10h10q4 6 16.5 20t25 30.5t24.5 31t16 20.5q4 4 11.5 12t9.5 8l4 2q4 1 6 1q8 0 17.5 -15.5t17.5 -34t12 -35t4 -20.5v-778q-39 33 -88 42t-96 9v-31q25 -23 57.5 -53.5t61 -67t48 -76.5t19.5 -79q0 -4 -1 -15.5 t-1 -15.5q-74 45 -155 45q0 -33 27.5 -68.5t60 -82.5t60.5 -111t28 -152q2 -12 12 -16t22 -6q7 -1 15 -1h7q11 1 15 1q6 0 25.5 1t26.5 1q-3 22 -3 42q0 43 12 80q17 54 51 100t77 86t88 81v29q-102 0 -184 -49q-18 4 -20.5 20.5t-2.5 30.5q0 4 1 15t1 16q10 14 41 51 t64.5 79t59.5 83t26 63q-31 0 -55.5 -7t-48 -15.5t-47.5 -15.5t-50 -7v895q0 29 -22.5 55.5t-54.5 46t-66.5 31.5t-61.5 12q-39 0 -81 -18t-77 -49t-57.5 -70t-22.5 -80z" />
<glyph unicode="K" horiz-adv-x="1112" d="M115 6v649h202q33 -119 93.5 -217t154.5 -176q189 -149 438 -149h3v-111q-299 0 -519 182q-94 78 -159.5 174.5t-102.5 214.5v-567h-110zM115 657v101h204v-101h-204zM115 764v104h204v-104h-204zM115 973v651h110v-569q72 233 262 391q219 180 519 180v-110 q-250 0 -441 -150q-186 -152 -248 -393h-202zM125 889h10v-10zM125 952l10 9v-9h-10zM135 889v63h166v-63h-166zM301 879v10h10zM301 952v9l10 -9h-10z" />
<glyph unicode="L" horiz-adv-x="1079" d="M20 385q0 -2 1.5 -5t1.5 -5q6 -2 23 -7.5t37.5 -11.5t38 -13t23.5 -9q4 -2 11.5 -9.5t9.5 -11.5v-8q0 -43 -11.5 -84t-11.5 -84q0 -131 131 -131q102 0 204 20.5t200 20.5h20q68 -29 115 -50.5t82 -48t60.5 -65.5t50.5 -102h26q0 219 -105.5 317.5t-320.5 112.5v1393 h-481q-4 0 -18.5 -11.5t-31 -29t-29.5 -37t-13 -35.5h399v-1301q0 -2 -15.5 -9t-25.5 -11q-8 -2 -38.5 -10t-43.5 -10h-10h-10q-4 2 -11.5 9t-9.5 11q4 43 4 90q0 49 -14 88t-45 64.5t-88 25.5q-12 0 -29.5 -2t-34 -8t-29 -16.5t-12.5 -26.5zM104 416q2 0 5.5 1t5.5 1t6 -1 l4 -1q4 -2 11 -9.5t9 -11.5q-2 0 -5 -1t-5 -1t-6 1l-4 1q-4 2 -11.5 9.5t-9.5 11.5zM238 78q0 12 10 10t10 -10t-10 -10t-10 10zM371 109h20v-21zM596 132q0 7 10 7q12 0 10 -10t-10 -10q-10 0 -10 13zM780 88q-1 2 -1 4q0 6 12 6q14 0 10 -10t-10 -10q-7 0 -11 10zM883 47 q-1 2 -1 4q0 6 11 6t11 -6q0 -2 -1 -4q-4 -10 -10 -10t-10 10z" />
<glyph unicode="M" horiz-adv-x="2467" d="M18 1516q0 -2 1 -6l1 -5q29 -43 81.5 -58t110.5 -17q18 -1 36 -1q40 -1 76 3q54 6 84 8q8 -4 24.5 -18.5t33.5 -31t31.5 -33t18.5 -24.5q0 -2 2 -20.5t2 -28.5q0 -57 -22.5 -114.5t-54 -115t-65.5 -111.5t-56 -105q-23 -49 -36.5 -110.5t-19.5 -127t-8 -130t-2 -120.5 q0 -43 9 -95t28.5 -99t53.5 -85t83 -51h23q16 0 35.5 -1t35.5 -1h25q113 0 180.5 34t104 95.5t48 149.5t11.5 197q0 63 -7 126.5t-16.5 126t-16.5 126t-7 128.5q0 27 4 66t17.5 75t37 61.5t62.5 25.5q45 0 70.5 -26.5t35.5 -64.5t12 -79t2 -72q0 -76 -8 -150.5t-17 -149.5 t-16.5 -150.5t-7.5 -151.5q0 -70 13.5 -139.5t47.5 -124.5t88 -90t138 -35q55 0 117.5 15.5t117 47t90.5 80.5t36 117v817q0 57 25.5 105.5t84.5 48.5q41 0 67.5 -23.5t37.5 -64.5q0 -10 1 -37t1 -55q0 -29 1 -54.5t1 -36.5q0 -141 -13.5 -279t-13.5 -280v-37t1 -55.5 t1 -54.5v-37q20 -80 67.5 -127t110 -71.5t136 -31t149.5 -6.5h10q10 2 43 9.5t43 11.5q0 4 1 7t1 5t-1 6l-1 4q-2 4 -10 11.5t-12 9.5q-68 25 -140.5 48.5t-132 60t-98.5 92t-39 141.5q0 78 7 154.5t16.5 153.5t16.5 154t7 154v31t-1 49.5t-1 48.5v31q-29 104 -91.5 161.5 t-166.5 57.5q-84 0 -138 -41t-86 -104.5t-44.5 -140t-12.5 -148.5q0 -117 12.5 -230.5t12.5 -230.5v-37t-1 -55.5t-1 -54.5v-37q-25 -70 -67 -111t-115 -41q-55 0 -100.5 26t-61.5 83v29q0 23 -1 46t-1 44v33q0 76 7 150.5t16.5 150t16.5 150.5t7 151q0 61 -13.5 126.5 t-43 120t-77.5 88t-120 33.5q-55 0 -107.5 -21.5t-92.5 -58t-63.5 -89t-23.5 -113.5v-688q0 -92 -33.5 -143.5t-113.5 -51.5q-53 0 -86 28.5t-50.5 71.5t-22.5 91.5t-5 89.5q0 100 23.5 198.5t64.5 188.5q16 35 45 84t57.5 104t50 112.5t21.5 108.5q0 78 -48 138.5 t-118.5 102.5t-151.5 63.5t-145 21.5q-18 0 -46.5 -5t-55.5 -17.5t-45.5 -32t-18.5 -45.5zM106 1483q-1 1 -1 3q1 4 15 5q20 2 42 2q23 0 41 -2q13 -2 13 -5q0 -1 -1 -3q-6 -4 -20.5 -7t-32.5 -2q-16 0 -32.5 2.5t-23.5 6.5zM129 1569q2 0 9 2t12 2q14 0 25 -3t18 -22 q-2 0 -9.5 -1t-11.5 -1q-12 0 -24.5 3.5t-18.5 19.5z" />
<glyph unicode="N" horiz-adv-x="1966" d="M18 1507h1850v135h-1850v-135zM55 451q0 -37 12.5 -68t31 -58.5t38 -55t33.5 -60.5q-25 -35 -50.5 -81t-25.5 -93q0 -12 2 -20.5t17 -14.5h39t60.5 -1t59.5 -1h39h125q57 0 112.5 2t113 6t131.5 12q39 27 54 59q15 31 18 67q2 18 2 37t-2 38q-1 17 -1 34q0 23 2 48 q0 12 6.5 56t13.5 95.5t13 95.5t6 56q0 4 1 31t1 41q0 39 -20.5 100.5t-53 124t-73.5 114.5t-82 77q-23 14 -48.5 18t-51 3t-52 -4t-51.5 -3q0 33 22.5 56.5t50 48t50.5 53t23 73.5q0 47 -39 81t-82 34q-80 0 -120 -20.5t-57.5 -56.5t-22.5 -85t-17 -104q-4 -18 -34 -40 t-63.5 -57.5t-62.5 -91t-29 -141.5v-43q16 -16 30.5 -19t37.5 -3q29 0 46 21.5t31.5 46t31 46t40.5 21.5h8q2 -18 8.5 -57.5t14.5 -87.5t16.5 -101t15.5 -102.5t13 -87t8 -56.5v-10v-8q-35 14 -65.5 36.5t-62 44t-64.5 37t-70 15.5q-51 0 -64.5 -26.5t-13.5 -71.5zM150 453 q2 0 6 1t6 1q12 0 38.5 -14.5t53.5 -35t47.5 -42t20.5 -33.5q0 -4 -2 -8l-1 -3q-4 -4 -25.5 -19t-29.5 -17q-6 6 -19.5 25.5t-28.5 41t-28.5 40t-17.5 26.5q-2 4 -10 18.5t-10 18.5zM170 905q8 41 26.5 82t46 75t63.5 54.5t83 20.5q0 -25 -2 -33t-8 -10t-16.5 -4.5 t-24.5 -16.5q-10 -8 -33.5 -31.5t-50.5 -50t-51.5 -51.5t-32.5 -35zM225 113q20 20 64.5 57t89.5 75t80 73.5t35 58.5q0 2 -1 10l-1 8l-97 584v25q0 14 9.5 21t22.5 10t28 3h26q8 0 23.5 -1t31 -3t26.5 -6t11 -10v-641q12 -23 31 -56.5t36 -73.5t30.5 -80t13.5 -73h-438z M377 1241q0 72 42 97.5t107 25.5q0 -23 -6 -53.5t-18.5 -58t-34 -47t-51.5 -19.5q-35 0 -37 16t-2 39zM657 887v47v45q20 -33 47 -72t51.5 -82t41 -87t16.5 -85v-32q-2 -25 -8 -86.5t-13.5 -131t-12.5 -130t-7 -85.5l-94 246l-3 52q-3 51 -6 123.5t-6.5 149.5t-5.5 128z M782 139q1 13 11 11q10 -4 10 -11q0 -4 -10 -8q-10 -2 -11 8zM1034 469q0 -37 13.5 -67.5t32 -58.5t38 -56.5t31.5 -61.5q-23 -35 -49.5 -80t-26.5 -88q0 -14 2 -24t17 -15h198h125q57 0 112.5 2.5t113 6.5t131.5 10q41 27 56 58.5t18 67.5q2 18 2 36.5t-2 38.5q-1 16 -1 33 q0 23 2 48q0 12 6.5 56.5t13.5 95.5t13 95t6 55v75q0 41 -20.5 101.5t-52 122t-72.5 114.5t-82 78q-23 14 -47.5 17.5t-51 2t-53 -4.5t-53.5 -3q0 33 23.5 57.5t51 48t51.5 53.5t24 75q0 47 -40 81t-83 34q-82 0 -122 -20.5t-57.5 -56.5t-22.5 -84t-17 -104 q-4 -20 -34 -41.5t-64 -57.5t-62.5 -91t-28.5 -141v-48q16 -14 31.5 -16t36.5 -2q29 0 47 20.5t32.5 46t30 46t39.5 20.5q2 0 5 -1l3 -1q4 -18 10.5 -56t14.5 -87t16.5 -101.5t15.5 -101.5t12 -87t7 -56v-11v-8q-33 14 -63.5 38t-62 45.5t-65.5 36.5t-71 15 q-49 0 -63.5 -26.5t-14.5 -73.5zM1130 473h11q12 0 38.5 -14.5t53.5 -35t47 -41t20 -34.5q0 -4 -1 -7l-1 -3q-4 -4 -25.5 -19.5t-27.5 -17.5q-6 6 -19.5 25.5t-28.5 41t-28.5 40t-19.5 26.5q-2 4 -9.5 18.5t-9.5 20.5zM1149 926q8 41 26.5 82t46 73.5t64.5 53t82 20.5 q0 -25 -2 -33t-7 -10t-14.5 -4t-23.5 -16q-10 -8 -34.5 -32t-52.5 -50.5t-52.5 -51zM1208 131q18 20 62.5 56t88.5 75t79 75t35 58q0 2 -1.5 10.5t-1.5 10.5l-96 585v21q0 14 9.5 21.5t22.5 10.5t28 3h26q8 0 24.5 -1t32 -3t27.5 -6.5t12 -10.5v-641q10 -23 28 -56.5 t35 -72.5t30.5 -80t13.5 -73h-438zM1356 1260q0 72 42 96t107 24q0 -20 -6 -48.5t-18.5 -56.5t-34 -47.5t-51.5 -19.5q-35 0 -37 14.5t-2 37.5zM1642 905v47v49q18 -35 44 -74.5t49.5 -82.5t40 -88t16.5 -86v-29q-2 -25 -7 -87t-11.5 -131t-11.5 -129.5t-7 -84.5l-96 244 l-3 52q-3 52 -5 124.5t-5.5 149.5t-3.5 126zM1763 158q1 12 7 12h2q10 0 10 -10q0 -8 -10 -10q-2 -1 -4 -1q-4 0 -5 9z" />
<glyph unicode="O" horiz-adv-x="1417" d="M174 1591q0 -37 20.5 -70.5t51.5 -60.5q29 -20 55.5 -31.5t54.5 -11.5q27 0 52 8l194 -196q-61 -57 -109.5 -112.5t-83 -116t-61 -126t-45.5 -145.5q-20 -90 -20 -172q0 -66 12 -128t39 -134q47 -135 140 -216t233 -81h8q133 4 221 76.5t141 195.5q59 145 60 271 q0 119 -52 258q-25 68 -51 123t-59 104t-75 93t-99 89l262 207l37 -61q-4 -16 -6 -33.5t-2 -36.5q0 -35 12 -65q16 -37 43 -67t63 -32l56 -125l92 47l-51 119q12 18 17 39t5 43q0 45 -26 92q-25 41 -45.5 51.5t-59.5 18.5l-102 207l-396 -301l-217 192q-4 51 -24.5 85 t-61.5 63q-29 18 -60.5 29.5t-60.5 11.5q-27 0 -48 -9.5t-37.5 -34t-16.5 -57.5zM264 1589q0 2 4 10q8 12 23 13q14 0 29.5 -11.5t29.5 -23.5v2q10 -12 19.5 -28.5t9.5 -26.5q0 -4 -4 -8q-8 -8 -15 -9q-14 0 -26 7.5t-25 15.5h2q-16 10 -31.5 26.5t-15.5 32.5zM428 555 q0 74 25 170q14 63 33.5 116.5t47 100.5t66.5 91t94 91q53 -39 88 -72.5t60.5 -73.5t48 -90t51.5 -120q47 -113 47 -221q0 -109 -47 -230q-31 -82 -87 -138t-142 -56h-13q-86 4 -137 64.5t-86 144.5q-25 59 -37 112.5t-12 110.5z" />
<glyph unicode="P" horiz-adv-x="716" d="M90 6h139v410l400 202v1000q0 4 -9.5 12t-13.5 8q-2 0 -25.5 1t-35.5 1q-90 0 -173 -40.5t-145.5 -107.5t-99.5 -152t-37 -175v-1159zM242 598v610q27 37 50 71t50 64.5t58.5 57t76.5 45.5v-729z" />
<glyph unicode="Q" horiz-adv-x="1282" d="M82 786q0 -141 23.5 -286.5t85 -264t169 -194.5t277.5 -76q172 0 276.5 76t162 195.5t76.5 265t19 284.5q0 86 -9 182.5t-31.5 189.5t-61.5 178t-98.5 150.5t-141 103.5t-192.5 38q-109 0 -193 -38t-145 -101.5t-103 -148.5t-67 -178t-36 -190.5t-11 -185.5zM225 786 q0 59 10.5 131t31 146t54 142.5t79.5 121.5t107.5 86t139.5 33q68 0 125 -34t101.5 -89t77 -126t55 -144.5t33 -143t10.5 -123.5q0 -104 -29 -197t-55 -192q-10 -37 -50.5 -88t-86.5 -97t-84.5 -77t-45.5 -24q-125 4 -215 70.5t-147 164.5t-84 214.5t-27 225.5zM309 -115 v-368h410q41 0 91 30.5t101.5 80.5t99.5 113.5t85 128t59.5 125t22.5 103.5q-51 0 -105.5 -27.5t-111 -62.5t-117 -65.5t-125.5 -36.5q-23 -2 -81 -5t-123.5 -6.5t-124 -6.5t-81.5 -3zM412 -207h389q39 0 66.5 21.5t52 48t51 48t61.5 21.5q0 -18 -12 -38.5t-27.5 -39 t-30 -33l-18.5 -18.5q-59 -66 -116.5 -103.5t-121 -58t-136 -25.5t-158.5 -5v182zM553 786q0 -10 1 -40.5t1 -40.5q10 -33 33.5 -39.5t50.5 -6.5q29 0 45 12.5t24.5 32t10.5 43t2 46.5q0 27 -2 51t-9.5 43.5t-24.5 32t-48 12.5q-33 0 -50.5 -12.5t-24.5 -33t-8 -47t-1 -53.5 z" />
<glyph unicode="R" horiz-adv-x="1519" d="M-18 1487q0 -10 17 -17.5t38.5 -11.5t43 -7t30.5 -3q16 0 30.5 2t14.5 -25q0 -29 -13.5 -49t-29 -39.5t-27.5 -40t-12 -49.5q0 -31 -1 -45t0 -22.5t4 -14.5l9 -18q29 -57 87 -67q18 -3 37 -2q42 0 89 14q29 -1 50 -1h19q26 1 41 2t25 1t25 -4q2 -2 15 -11.5t31.5 -33 t24.5 -54.5h127q-11 29 -11 53q0 50 50 76q25 14 50.5 12t44.5 -24q16 -16 17 -33.5t1 -32.5q0 -14 -7 -30.5t-16.5 -36t-16.5 -43t-7 -51.5v-205v-678q2 0 22 -1q10 0 22 -0.5t26 0.5q30 1 53 7q41 16 74.5 32.5t44.5 61.5q4 16 8 51t7 71t5 62l2 27v377h168l149 -557 q2 -4 13.5 -22.5t33 -37t40.5 -10.5q16 10 20 34q3 16 3 30q0 7 -1 13q-2 18 -2 20l-131 581q16 80 25.5 127t13.5 84q2 21 2 42q0 15 -1 30q-3 35 -11 90q-12 78 -34 141.5t-52 118.5q-37 66 -90.5 108t-110.5 66.5t-113.5 35.5t-101.5 17q-41 4 -71 9.5t-55.5 7.5t-53.5 2 q-27 0 -62 -6q-55 -8 -94 -25.5t-69.5 -41t-55.5 -53.5t-51 -60q-39 -43 -57.5 -84t-18.5 -101q0 -23 -2 -28t4 -19q-29 -10 -43 -5t-21.5 17.5t-8.5 27.5t1 26q4 23 12.5 39t17.5 30.5t15.5 30.5t6.5 39q0 49 -16.5 73.5t-59.5 47.5q-20 10 -29.5 19t-34.5 9q-6 0 -25.5 -7 t-40 -18t-36.5 -22.5t-16 -17.5zM0 1481q0 4 10 6t15 2q16 0 29.5 -6t29.5 -6t30.5 3t30.5 3q4 0 9.5 -6.5t5.5 -10.5q0 -6 -22.5 -7t-26.5 -1q-59 0 -111 23zM43 1516l31 10v-19zM96 1509v21l35 -10zM313 1294q20 25 37 40.5t45 31.5q32 8 67 8q39 0 82 -10q81 -18 173 -39 q49 -10 84 -20.5t64.5 -23.5t57 -32.5t58.5 -48.5q160 -149 160 -349q0 -61 -15 -126q-20 72 -35.5 129t-35 106.5t-51 92.5t-84.5 86q-27 23 -50.5 38t-48 26t-52.5 20.5t-60 21.5q-55 18 -101.5 30.5t-92.5 18.5t-95 6t-107 -6zM414 1435q-7 1 -7 5q0 5 13 16 q18 16 32.5 26.5t28 16.5t30.5 9t44 5q24 1 45 1q32 0 58 -2q44 -3 104 -13q39 -6 72.5 -11t64.5 -12.5t61.5 -19.5t65.5 -33q106 -63 166.5 -141t89.5 -199q6 -32 6 -68q0 -23 -2 -45q-6 -62 -18.5 -114.5t-23.5 -88.5l-11 -36l-1 34t-5 83t-13.5 104.5t-25.5 100.5 q-16 43 -32.5 79.5t-36 68.5t-46 60.5t-63.5 59.5q-47 39 -93.5 58.5t-95.5 28.5t-102 13t-115 15q-18 4 -42 4q-12 0 -24 -1q-40 -3 -74 -5t-50 1zM778 166v43h213l-10 -43h-203zM778 291v43h226v-43h-226zM778 416v43h226v-43h-226zM778 537v43h223v-43h-223zM778 662v43 h217v-43h-217zM799 823l6 86l178 -168zM815 979l39 104l217 -364zM1233 655l65 27l27 -64l-82 -18zM1255 537l70 26l23 -61l-80 -21zM1288 422l60 22l26 -61l-63 -25zM1325 297l49 31l23 -64l-60 -22zM1343 184l68 25l25 -62l-62 -24z" />
<glyph unicode="S" horiz-adv-x="1585" d="M43 -319l1 37q1 36 5 67q8 55 23.5 110.5t38 101.5t56.5 80t79 46q39 57 73.5 97t74.5 64.5t88 35t114 10.5h27q23 0 51 -3t57 -9.5t51 -18.5q18 14 40 41t56 52q34 26 84 42q32 10 74 9q25 0 54 -3q-37 117 -103.5 230.5t-131 217t-112 192.5t-47.5 159t34 128t87 101 t122 72t138 41q35 6 56.5 16.5t39 19.5t35 15t43.5 6q66 -2 116 -33.5t87 -62.5q18 -16 -17.5 -46t-107.5 -56q-8 -4 -21.5 -5t-23.5 -1q-27 2 -55.5 1t-36.5 1q57 -39 101 -120t74 -184.5t48.5 -216t27.5 -214t9 -181.5t-4 -114q-8 -47 -11 -70t-5 -45q29 -53 42 -97 t17 -78q3 -23 3 -41q0 -9 -1 -17q-2 -24 -4 -38q-4 -27 -19.5 -69.5t-56.5 -82.5t-113.5 -69.5t-189.5 -29.5q-49 0 -91 11t-73 23.5t-48 23.5t-19 11q-8 0 -37 -20.5t-72 -41.5q-44 -22 -100 -35q-29 -7 -59 -7q-28 0 -58 6q-82 14 -128 43t-73.5 64.5t-45 75.5t-42.5 81 q-23 -14 -51.5 -30.5t-44.5 -32.5q-18 -20 -30.5 -49t-25 -63t-27.5 -71.5t-42 -76.5zM399 14q4 -4 12.5 -34.5t37.5 -61.5q29 -29 65.5 -46t83.5 -17q37 0 77 11t58 34q-76 31 -159 62.5t-175 51.5zM422 129q41 -10 98.5 -25.5t113.5 -34t100 -37t61 -34.5q2 23 4 39t-2 39 q-4 29 -63.5 58.5t-137.5 37.5q-9 1 -18 1q-32 -1 -72 -11q-51 -14 -84 -33zM815 1221q0 -49 39 -150.5t123 -294.5q16 -27 30.5 -47t25.5 -40.5t22.5 -43t21.5 -51.5q12 -33 21.5 -59.5t15.5 -53t8 -55.5q1 -10 1 -20q0 -21 -3 -44q-4 -29 -17 -65.5t-23.5 -58t-12.5 -25.5 q33 20 48 36.5t21.5 33t9.5 36t11 43.5q8 27 7 59t-9 63.5t-17.5 63.5t-15.5 58q18 -4 44 -12t42.5 -13.5t18.5 -5.5q2 -59 7 -108q2 -19 2 -40q0 -34 -5 -73q-4 -29 -7 -49t-8.5 -39.5t-13.5 -43t-20 -60.5q29 27 46 51.5t26.5 51t14.5 55t11 63.5q9 54 9 96v8 q-1 45 -13 105l90 65q6 -43 7 -87v-43v-41q-1 -40 -5 -72.5t-6 -51.5q-2 -12 -8 -45.5t-13.5 -70.5t-13.5 -71t-8 -48q16 14 30.5 47t24.5 76t18.5 91t12.5 95q2 37 2 84q0 49 -1 79t-1 34q-4 25 -10 85t-18.5 140t-31 170t-47.5 172q-88 254 -268 254q-49 0 -89 -20.5 t-67.5 -54t-43 -75.5t-15.5 -83zM886 1241q3 35 7 51q12 45 30.5 60.5t65.5 38.5q4 -20 15.5 -64.5t23.5 -97.5t26.5 -111.5t24.5 -105.5l-129 -6q-29 33 -43 74.5t-19 83.5q-3 26 -3 50q0 14 1 27zM950 250q-1 -6 0 -11q0 -9 2 -18q9 -37 46 -37h8q14 0 25 11.5t17.5 24.5 t5.5 27.5t-14 22.5q-23 16 -32 10t-37 -10q-19 -4 -21 -20zM952 -49l28 -9q28 -10 68 -19t84 -15q22 -3 40.5 -3t33.5 3q57 12 95 60q29 36 29 85q0 15 -3 31q-37 -35 -61.5 -55.5t-67.5 -24.5q-23 -2 -51.5 -3t-59 1t-58.5 6t-44 12q-8 -23 -12 -34t-7 -16t-5.5 -9 t-8.5 -10zM965 940l131 -4l88 -274l-97 20zM985 1466l32.5 6.5t22.5 2.5t20.5 -1t27 -3.5t34 -11.5t27.5 -13q6 -2 7 9t11 9q20 -4 46 -7t47 -7v51q-35 4 -59.5 12.5t-59.5 2.5q-47 -8 -90 -14.5t-66 -35.5zM1040 1409q20 4 33 4q14 0 29 -10q41 -33 73.5 -78t55 -90t35 -82 t12.5 -51q-18 -20 -25.5 -27.5t-15.5 -12.5t-24.5 -11.5t-51.5 -26.5q-16 45 -33.5 101.5t-35 110.5t-32 100t-20.5 73zM1176 911q0 35 24.5 56.5t102.5 50.5q29 -133 42 -203l13 -70q-20 -16 -30.5 -24t-20 -15.5t-22.5 -15.5t-40 -26q-14 41 -27.5 85t-22.5 79.5t-11 47.5 zM1237 1562q0 -11 8 -20q8 -12 24.5 -13t26.5 9q12 8 13.5 23.5t-9.5 25.5q-8 10 -24 11h-3q-14 0 -24 -9q-12 -10 -12 -27zM1260 1563q0 6 4 10t11 5h3q5 0 6 -3q4 -4 5 -11.5t-3 -9.5q-4 -4 -11 -5t-11 3t-4 11zM1278 1456h10v43l-10 -2v-41zM1309 1454l23 5q24 5 40 16 q16 8 34 23l17 15l-114 -16v-43z" />
<glyph unicode="T" horiz-adv-x="1034" d="M39 678l412 63l-103 -741h338l-108 750l401 -62v27v63v82v80q-61 -18 -98 -25.5t-71 -13.5t-78 -14t-122 -25q63 86 117.5 199t58.5 254v13q0 56 -15 114q-17 64 -53 113t-87 78.5t-117 29.5t-118 -29.5t-89 -78t-57.5 -109t-20.5 -123.5q0 -72 16.5 -134.5t42 -118.5 t58.5 -107.5t64 -102.5l-371 80v-262zM342 1300q0 37 10 79t30.5 78t52.5 60.5t73 24.5q43 0 74.5 -21.5t54 -55t34 -76.5t11.5 -84q0 -127 -48 -228.5t-118 -193.5q-27 37 -57.5 83t-56 99t-43 112.5t-17.5 122.5z" />
<glyph unicode="U" horiz-adv-x="1017" d="M31 1483q0 -47 14 -77.5t59 -55.5l2 -1063q0 -78 40 -132.5t99.5 -89t130 -51t130.5 -16.5q70 0 118 8t88 28.5t76.5 56.5t85.5 93q8 8 19.5 32t11.5 30l-2 1104q57 27 66.5 65.5t9.5 87.5q0 76 -43 116t-115 40q-66 0 -110.5 -41t-44.5 -113q0 -47 27.5 -84t56.5 -71 l2 -875q-4 0 -10.5 -3t-10.5 -1l-205 82h-10q-35 0 -65.5 -12.5t-62.5 -26.5t-63.5 -26.5t-64.5 -12.5l-2 854q27 29 54.5 70t27.5 84q0 76 -49 116.5t-117 40.5q-72 0 -107.5 -46t-35.5 -111zM133 1493q0 23 8.5 43t32.5 20q23 0 43.5 -19t20.5 -44t-20.5 -44t-43.5 -19 q-25 0 -33 20t-8 43zM279 287q0 4 1 11t1 9q23 10 52 24.5t60 28t63.5 22.5t61.5 9q20 0 55 -8t71 -22.5t65.5 -34t42.5 -39.5q-31 -88 -92.5 -127t-153.5 -39q-35 0 -75 10t-73.5 30.5t-56 51.5t-22.5 74zM788 1513q0 18 3.5 41t29.5 23q29 0 41 -24.5t12 -47.5 q0 -25 -7 -40t-36 -15q-31 0 -37 17t-6 46z" />
<glyph unicode="V" horiz-adv-x="876" d="M86 41q23 -8 33 -15.5t19 -13.5t22.5 -10t38.5 -4q57 0 71.5 20.5t20.5 83.5q94 86 163.5 179.5t122 195t91.5 212t73 233.5q4 16 11.5 45.5t13.5 59.5t11 52.5t5 26.5v553h-41l-3 -15q-3 -14 -6 -33.5t-6 -40t-5 -34.5q-12 -92 -26.5 -197.5t-37 -216t-55.5 -221 t-78 -210t-105.5 -182.5t-137.5 -140v1044q0 8 -11.5 12.5t-25 6.5t-26.5 3t-19 1h-15q-10 0 -20 -2t-18.5 -7.5t-8.5 -13.5v-1147l-51 -20v-205z" />
<glyph unicode="W" horiz-adv-x="1251" d="M88 872q0 -2 1 -6l1 -4l8 -16t13.5 -25.5t13.5 -27t8 -15.5v-10v-10q-2 -2 -10 -10.5t-10 -12.5v-10v-10q2 -4 8 -19.5t13 -33t13.5 -33t6.5 -19.5q0 -2 1 -11t1 -13q0 -12 -7.5 -17.5t-15.5 -8.5t-15 -7t-7 -14q0 -49 44 -90t103 -74t119.5 -59.5t93.5 -47.5 q-47 -8 -66.5 -22.5t-19.5 -61.5q0 -31 6 -59.5t45 -28.5q23 0 40.5 3.5t35.5 21.5q-4 -6 -6 -20.5t-2 -32.5q0 -16 2 -32t6 -22q6 -8 22.5 -12t36 -6t39 -3t29.5 -1q17 0 39 -1h9q17 0 33 3q20 4 34 14t14 35q0 14 -3 23.5t-6 16.5t-6 15t-3 21q27 0 50 -11.5t52 -11.5 q35 0 48 34t13 65v10q-6 16 -14 25.5t-15 14.5t-13.5 10t-6.5 11t4 10q33 10 81 36t91 61t74 75.5t31 83.5q0 16 -3 19.5t-12 3.5q-8 0 -20 2t-31 14l-1 3q-1 4 -1 8t1 8l1 4l21 20q2 4 9 16.5t14 26t12.5 25.5t7.5 16v11q0 18 -12.5 25t-12.5 26q0 29 12.5 50t12.5 46 q0 20 -11.5 28.5t-11.5 30.5q0 74 12.5 146t12.5 145q0 10 -4 46t-10.5 83t-17.5 98.5t-23.5 94.5t-29 71.5t-34.5 28.5q-25 0 -45 -29.5t-35.5 -67.5t-25 -73t-11.5 -43v-37t-1 -56.5t-1 -57.5v-37q0 -86 13.5 -163t13.5 -159q0 -4 -1 -10l-1 -6q-2 -2 -11.5 -5t-19.5 -6.5 t-20.5 -5.5t-12.5 -4l-1 -4q-1 -4 -1 -8q0 -2 1 -6l1 -4q2 -2 12.5 -11.5t20.5 -19.5l19.5 -19.5t11.5 -13.5l1 -7q1 -7 1 -11q0 -23 -12.5 -29t-12.5 -26v-11q10 -29 26.5 -55.5t16.5 -60.5v-11q-4 -4 -21.5 -10t-21.5 -10q-14 -39 -21 -72t-24.5 -58.5t-53.5 -43 t-108 -25.5v21q0 23 10.5 44t23 41.5t22.5 39t10 37.5q0 2 -1 5l-1 3q-2 2 -12.5 4t-20.5 5t-19 6t-12 5l-1 7q-1 8 -1 12q0 25 13.5 42t31 32.5t30.5 30.5t13 34q0 14 -10 17t-23.5 5t-23.5 6.5t-10 22.5q0 16 7 26.5t16.5 18.5t16.5 17.5t7 23.5q0 16 -7 22.5t-15.5 9.5 t-15.5 8t-7 20q0 20 -1 46.5t1 53t11 47t32 27.5v211l-21 20q-4 14 -12 54t-18 83t-19.5 82t-13.5 55q-8 27 -14 36t-29 9q-4 0 -11 -2t-10 -2q-10 -25 -27.5 -52t-33.5 -58t-29.5 -61.5t-15.5 -59.5v-25t-1 -53.5t-1 -62.5v-49q0 -53 -1 -91v-19q0 -27 2 -51 q3 -32 13.5 -62.5t30.5 -71.5l1 -4q1 -5 1 -9q0 -2 -1 -5l-1 -3q-2 -2 -11 -5t-20.5 -6t-20.5 -5t-11 -4l-2 -3q-1 -4 -1 -8t1 -8l2 -4q2 -4 18 -28.5t25 -34.5l20 -21l1 -4q1 -4 1 -6q0 -4 -1 -7l-1 -3q-4 -4 -21.5 -11.5t-21.5 -11.5l-1 -3q-1 -3 -1 -5q0 -20 10 -36.5 t23.5 -32t24 -33t10.5 -39.5q0 -4 -2 -12l-1 -7q-2 -2 -11 -5t-19 -6t-20.5 -5t-12.5 -4l-1 -3q-1 -3 -1 -8q0 -8 9 -23t20.5 -39t20.5 -56.5t9 -75.5q-31 0 -69.5 7t-73.5 23.5t-58.5 42t-23.5 62.5v10q0 2 3 11.5t7 20.5t7.5 20.5t3.5 11.5q2 8 3 19l1 12h-88 q23 29 44 65.5t21 71.5q0 25 -12 33t-12 30q0 25 12 43.5t12 40.5q0 23 -11 29t-11 22q0 70 11 137.5t11 139.5v35t-1 44t-1 38v20q0 6 -6 30.5t-16.5 57.5t-22.5 70t-24.5 67.5t-24.5 51t-23 20.5q-2 0 -6 -1l-4 -1q-6 -4 -22.5 -19.5t-20.5 -23.5q-31 -102 -58.5 -208.5 t-27.5 -217.5q0 -35 2 -61.5t7 -53t13.5 -58.5t22.5 -75q-6 0 -22.5 -8t-20.5 -12l-1 -4q-1 -4 -1 -9zM598 248q6 16 17.5 19t23.5 3t24.5 -3t18.5 -19q-6 -18 -18.5 -21.5t-24.5 -3.5t-23.5 3.5t-17.5 21.5z" />
<glyph unicode="X" horiz-adv-x="1763" d="M88 584q0 -25 14.5 -52.5t38 -51t50 -40t51.5 -16.5q4 0 11 1t9 1l66 881l20 86q4 -2 12.5 -9.5t10.5 -11.5q8 -14 30.5 -51t46 -78t44 -78t28.5 -51v-10q0 -49 -10 -100.5t-21.5 -102.5t-21.5 -103.5t-10 -103.5q0 -53 10 -106t23.5 -105.5t23.5 -104.5t10 -106 q0 -98 -42 -141t-134 -49v-86h1000q0 47 -15.5 65.5t-37 26.5t-45 17.5t-42.5 39.5q-2 4 -12 20.5t-20.5 35t-19.5 34t-11 19.5l-1 7t-1 11q0 53 11 106.5t23.5 108t23.5 108.5t11 110q0 49 -7 97t-16 94t-16.5 92t-7.5 93v11q35 76 80 163.5t92 159.5l11.5 11.5t11.5 9.5 l63 -990q0 -4 9.5 -11t13.5 -9l4 -1q4 -1 6 -1q14 0 34.5 13.5t41 30.5t38 35.5t25.5 28.5q0 10 2 39t2 37q0 135 -31.5 275.5t-58.5 273.5q-8 39 -18 92.5t-21.5 110.5t-23.5 113.5t-21.5 100.5t-15.5 72l-6 27h-23l-22 -35q-23 -34 -53.5 -81.5t-63.5 -99.5t-53 -85 q-8 -12 -17.5 -34.5t-20.5 -44t-25.5 -37t-32.5 -15.5q-27 0 -53.5 14.5t-57.5 31t-65.5 30.5t-75.5 14q-47 0 -78 -8t-56.5 -20.5t-53 -27.5t-66.5 -32l-258 408l-3 2q-3 2 -6 2q-14 0 -24 -11.5t-16.5 -25.5t-10.5 -29.5t-6 -23.5q-4 -27 -14 -80t-22.5 -121t-27 -142.5 t-26.5 -143t-23.5 -122t-15.5 -79.5q-14 -74 -29.5 -146t-15.5 -147zM560 761v18q0 27 2 55q3 36 13.5 70t30.5 59q20 -10 46 -52.5t50.5 -91.5t45 -94t30.5 -63l-149 -259q-29 14 -43.5 52.5t-19.5 83.5t-5 88v67q0 31 -1 67zM586 102q0 6 8 22.5t12 20.5l5 3q5 2 7 2t6 -2 l5 -3q4 -4 12 -20t8 -23h-63zM686 1069q0 29 15.5 49.5t38 33.5t51 19.5t53.5 6.5q20 0 48 -7.5t50.5 -20.5t38.5 -32.5t16 -46.5q0 -4 -2 -11t-2 -11q-6 -12 -24.5 -46t-39 -72t-39 -72t-26.5 -46q-2 -4 -9 -11l-11 -11l-152 237q-2 2 -4 18.5t-2 22.5zM690 287 q0 14 18.5 50t43 76t50 74.5t42.5 44.5q4 -2 11 -9t9 -11q6 -6 20.5 -29.5t32 -51.5t34 -53.5t22.5 -37.5q4 -8 12 -24.5t8 -18.5q0 -25 -18.5 -42t-45 -27.5t-53 -14.5t-45.5 -4q-16 0 -39.5 5t-46 14.5t-39 25t-16.5 33.5zM928 674q0 31 14 69.5t35.5 76.5t49.5 71t52 51 q39 -55 43 -123.5t4 -130.5v-63q0 -39 -5 -79t-19.5 -74t-42.5 -46q-10 16 -32.5 45t-44 63.5t-38 71.5t-16.5 68zM1016 102v8q0 24 10 32q12 10 33 10t33 -10q11 -9 10 -32v-8h-86z" />
<glyph unicode="Y" horiz-adv-x="1847" d="M70 1038q0 -18 11 -46.5t38 -28.5h6q6 2 20.5 7t29.5 11t28.5 12t17.5 8q16 -6 18.5 -17t2.5 -21q0 -18 -9.5 -31.5t-21.5 -26t-21.5 -25t-9.5 -30.5q0 -25 18.5 -42t41.5 -17q29 0 50 17t44 42q16 -10 24.5 -25.5t12.5 -31.5q-4 -6 -15.5 -19.5t-22.5 -28t-21.5 -27.5 t-14.5 -20l-1 -4q-1 -4 -1 -6q0 -23 18.5 -36t40.5 -13q4 0 10 1l7 1q6 4 19 14.5t28.5 22.5t29 23.5t19.5 15.5l55 -55q-4 -6 -11 -22.5t-16.5 -35t-17.5 -35t-10 -22.5l-1 -3q-1 -3 -1 -5q0 -12 8 -18.5t20.5 -9.5t24.5 -3h21q4 0 13 1l9 1l76 113q4 4 17.5 -3.5 t19.5 -15.5l1 -6q1 -6 1 -10q0 -29 -11.5 -55.5t-11.5 -55.5t20.5 -37t49.5 -8q2 0 5 1l3 1l55 131h29v-565h133v561q27 0 39 -8t19.5 -21.5t12.5 -28t17.5 -27.5t34 -21.5t62.5 -8.5q0 37 -13.5 72t-29.5 68q6 16 16 18t20 2q25 0 37.5 -15.5t23.5 -33.5t24.5 -33.5 t39.5 -15.5q23 0 36 8t13 31q0 4 -1 11l-1 7q0 2 -6 14.5t-13 24.5t-13 23.5t-9 13.5l-1 4t-1 6q0 4 1 7l1 4q2 2 10.5 10t17.5 17l17.5 17.5t12.5 10.5q6 -4 19.5 -15.5t28.5 -23.5t28.5 -22.5t17.5 -14.5l4 -1q4 -1 6 -1t7 1l4 1q4 2 13 7t18 11.5t16.5 12.5t9.5 8l1 3 q1 3 1 5t-1 6l-1 4q-4 6 -14.5 19.5t-22.5 28t-23.5 27.5t-17.5 20q6 8 27.5 29.5t29.5 27.5l4 1q5 1 7 1t6 -1l4 -1q2 -2 16.5 -10.5t29.5 -18.5t29.5 -18t18.5 -10l3 -1q3 -1 5 -1q23 0 36 19t13 40q0 4 -1 11l-1 7q-2 2 -13 13.5t-24.5 25t-24.5 23.5t-13 14l-1 4 q-1 4 -1 6q0 20 18 35t39 15q29 0 58.5 -12.5t58.5 -12.5t34 25.5t5 48.5q0 16 -1.5 23t-7.5 11.5t-18 9.5t-33 15q-23 12 -76 43t-112.5 63.5t-113.5 62.5t-75 40q0 6 -1 23.5t-1 23.5q0 27 12.5 52.5t28 49t28.5 44t13 36.5v13q-2 8 -7 36.5t-9 36.5q-2 0 -9.5 1t-11.5 1 q-61 0 -94 -43t-56.5 -107.5t-43 -140t-51 -140t-83 -107.5t-139.5 -43q-86 0 -135 43t-76.5 107.5t-43 140t-36 140t-53 107.5t-94.5 43q-4 0 -10 -1t-8 -1q-4 -8 -11.5 -36.5t-9.5 -36.5v-13q0 -12 11.5 -31.5t24.5 -44t24.5 -54t11.5 -62.5q0 -6 -1 -28.5t-1 -26.5 q-20 -10 -71.5 -37t-108 -57.5t-107.5 -57.5t-72 -39q-18 -10 -46.5 -27.5t-28.5 -46.5zM352 1067q0 2 1 5l1 3q4 4 18.5 12.5t18.5 8.5q10 0 49 -53.5t102.5 -118t151.5 -117.5t197 -53q94 0 170 28.5t141.5 75.5t124.5 108.5t121 129.5q2 0 4 1t4 1t6 -1l4 -1 q4 -2 11.5 -9.5t9.5 -11.5v-10v-8q-2 -4 -9.5 -19.5t-11.5 -19.5q-63 -70 -126.5 -131.5t-134 -107.5t-151.5 -73.5t-180 -27.5q-61 0 -151 36t-172 92t-140.5 125.5t-58.5 135.5zM502 1143q0 16 13 22t30 6q18 0 44.5 -35.5t71 -78.5t110 -79t157.5 -36q61 0 114.5 19.5 t99.5 53.5t85 79t71 96q4 -2 20 -18q17 -17 17 -21q0 -5 -6 -17q-8 -16 -14 -22q-41 -47 -85 -91t-93.5 -78t-104.5 -55.5t-121 -21.5q-147 0 -241.5 70t-165.5 197l-1 4q-1 4 -1 6z" />
<glyph unicode="Z" horiz-adv-x="1984" d="M-120 32q18 -12 96 -18q46 -4 109 -4q42 0 90 2q122 4 257 21.5t269.5 51.5t236.5 89q66 35 122 81t104 95t87 98.5t68 92.5q45 66 73.5 125t48 121.5t34 132t32.5 153.5q-113 -12 -196.5 -26.5t-155.5 -21.5q-42 -4 -82 -4q-29 0 -57 2q-68 5 -148 34q-35 13 -46 81 q-10 63 -10 144v16q1 92 13.5 185.5t24.5 156.5h-172l-80 -731q61 -4 113.5 -9t101.5 -13t97 -20.5t98 -30.5q27 -12 51 -22.5t42.5 -27t30 -43t15.5 -71.5q1 -11 1 -21q0 -57 -20 -107q-22 -58 -63 -109.5t-97.5 -96.5t-117.5 -88q-47 -33 -119 -57.5t-157 -42t-177 -28.5 t-178 -21.5t-159.5 -19.5t-122.5 -20q-60 -13 -60 -24q0 -3 3 -5zM883 16h940v127h-824z" />
<glyph unicode="\" horiz-adv-x="1183" d="M27 1552l143 58l29 -72q35 -82 93 -178t144 -209q111 -143 177.5 -235.5t93.5 -133.5q156 -258 258 -381q41 -47 100 -115.5t137 -162.5l-121 -98l-215 251q-63 76 -112 142.5t-84 122.5q-31 53 -81 131t-118 182q-86 115 -148.5 198t-97.5 136q-125 184 -198 364z" />
<glyph unicode="^" horiz-adv-x="923" d="M31 647l123 -119l301 301l309 -309l127 127l-172 174l69 74l-323 322l-324 -322l68 -70zM137 698l326 326l323 -326l-71 -69l-256 254l-252 -250zM225 750l31 -31l205 205l209 -207l28 28l-237 240zM227 942l238 236l235 -238l-28 -29l-209 205l-203 -203z" />
<glyph unicode="a" horiz-adv-x="972" d="M45 334q0 -35 7 -45t40 -10h14q12 0 19 2q6 8 17.5 36.5t11.5 49.5h63q0 -20 1 -41t1 -27q-6 -51 -15 -85t-20.5 -56.5t-25 -37t-27.5 -22.5q-4 -4 -10 -5t-12 -5q-6 -2 -8.5 -3t-6.5 -3q-2 -4 -5 -11.5t-3 -27.5q0 -29 3 -35t5 -8q0 -2 19 -4h37h61h33q16 0 30 4 q27 4 42.5 16.5t15.5 38.5q0 14 -6.5 23.5t-16.5 19.5q-10 16 -18 34t-8 46q0 29 5 57.5t11 53.5q8 27 16.5 54.5t18.5 68.5h276l8 -16q9 -17 20 -40.5t21.5 -48t16.5 -41.5q2 -6 5 -19.5t7 -28.5t7 -27.5t3 -18.5q0 -4 1 -13t1 -14q0 -29 -24 -47q-18 -10 -37 -12 q-16 -4 -23.5 -10t-7.5 -23v-14q59 -16 104.5 -19.5t108.5 -3.5q23 0 42.5 -2t39.5 2q35 6 35 35q0 23 -9 30t-30 13q-4 2 -10 4l-12 4q-23 10 -41.5 23.5t-28.5 36.5q-2 4 -11.5 29.5t-19.5 57.5t-20.5 64.5t-14.5 51.5v12v16q10 25 64 51q0 -35 4 -55t11 -30.5t16.5 -13.5 t21.5 -3q59 0 60 68q0 25 -8.5 62.5t-24 73.5t-39 61.5t-53.5 25.5q-4 0 -6.5 8t-2.5 0q-8 -8 -15 -41t1 -57q-14 -2 -39.5 31.5t-55.5 86t-61.5 116t-56.5 122.5t-41 107.5t-16 68.5q0 16 8 24.5t16 12.5q10 4 18.5 7t18.5 7q14 6 21.5 12.5t7.5 20.5q0 25 -12.5 37 t-34.5 16q-23 6 -47 6h-4q-26 0 -56 -1h-20q-12 0 -28.5 -1.5t-31.5 -1.5h-22q-23 -10 -28 -22t-5 -35t11.5 -35t64.5 -20q-25 -84 -36 -154.5t-22 -140.5q-10 -68 -22 -136.5t-35 -138.5q-8 -18 -65 -49q1 14 1 27q0 50 -14 62q-16 16 -49 16t-51 -30t-26.5 -69.5 t-10.5 -84t-2 -70.5zM369 608q0 72 13 136.5t42 154.5q41 -23 71.5 -71t52 -104t33 -112.5t11.5 -97.5q-29 0 -45.5 -1t-32.5 -1h-33q-14 0 -30 4q-29 4 -55.5 25.5t-26.5 66.5z" />
<glyph unicode="b" horiz-adv-x="1009" d="M59 717q0 -35 1 -65.5t4.5 -61.5t7.5 -64.5t8 -72.5h51q0 41 8 71q8 25 25.5 46.5t52.5 21.5q16 0 42 -8.5t26 -38.5v-426q-31 -2 -47.5 -3t-30.5 -1q-12 0 -24.5 -2t-20.5 -7q-18 -4 -27.5 -13t-9.5 -32q0 -20 2 -30q0 -8 6 -8q57 -8 105.5 -13.5t93.5 -7.5t92 -2h102 q43 0 113 2t137.5 19.5t116.5 54.5t49 108v269q0 29 -14.5 50t-36.5 50q-25 29 -43.5 59.5t-18.5 65.5q0 31 6.5 56.5t16.5 53.5q8 25 14 48.5t6 46.5q0 37 -5 79t-16 83.5t-29.5 76.5t-47.5 58q-74 16 -128 25t-105.5 14.5t-102.5 6.5t-119 1h-28q-18 0 -41 -1t-43 -1h-31 q-6 -4 -6 -19v-16q0 -18 10 -26.5t33 -14.5q10 -4 20.5 -7t22.5 -9q10 -6 19.5 -17.5t9.5 -30.5v-380h-133q-2 29 -3.5 46t-1.5 29q0 27 -6 49q-4 16 -14 25.5t-33 9.5h-8q-4 0 -8 -2q-14 -45 -16.5 -72.5t-2.5 -72.5zM401 117v436l27 31q4 2 27.5 7t54.5 10t63 8t52 3 q70 0 113.5 -34.5t69.5 -86t36 -108.5t10 -100q0 -16 -2 -46t-2 -38l-82 -82h-367zM401 739v369h328q10 -33 19.5 -52.5t17.5 -37.5q8 -20 14 -42t6 -46q0 -70 -20.5 -115t-56 -70.5t-85 -35t-106.5 -9.5q-14 0 -44 2.5t-40 2.5z" />
<glyph unicode="c" horiz-adv-x="901" d="M63 655q0 -109 21.5 -223.5t72 -209.5t134.5 -156.5t209 -61.5q53 0 82.5 11.5t52.5 33.5q25 16 55 47q29 33 74 60q35 25 59 26q19 2 33 0h2l-5 3t-5 18q0 31 -17.5 53.5t-45 36.5t-61.5 21.5t-69 7.5q-45 0 -53 -4.5t-8 -32.5v-13q0 -8 2 -12q4 -4 10 -12t10 -17 q25 -35 25 -47q0 -16 -17.5 -31.5t-40 -27.5t-44 -20.5t-29.5 -8.5q-80 0 -137.5 33t-97 86t-63.5 122t-36 138.5t-16 136t-4 117.5q0 66 24.5 138.5t68.5 133t104.5 100.5t133.5 40q6 0 18.5 -1t27 -2t27.5 -2t20 -1q10 -4 22 -15.5t16 -19.5l2 -8q3 -9 3 -11 q0 -20 -11 -34q-10 -12 -22 -21q-8 -10 -12.5 -16t-4.5 -17q0 -37 48 -37q25 0 59.5 12.5t66 32t55 43t23.5 43.5q0 27 2 35t-8 8q-6 0 -15 -2t-20 -2q-12 0 -27.5 2t-33.5 11q-20 8 -34.5 18t-31.5 21q-12 10 -23 18t-24 16q-23 16 -51.5 27.5t-81.5 11.5q-106 0 -184 -57 t-129 -144t-76 -192.5t-25 -202.5z" />
<glyph unicode="d" horiz-adv-x="1153" d="M68 983q0 -23 9 -25t23 -2q33 0 41.5 5.5t8.5 9.5q6 6 0 16q0 8 -1.5 15.5l-3.5 17.5q-4 23 0.5 42t21.5 34.5t53 24.5t95 9v-1038h-180q-2 0 0 -15.5t0 -25.5q-2 -4 -2 -10v-6v-15q0 -6 6 -10h43t60.5 -1t58.5 -1h39q205 0 347 23.5t231.5 96.5t128 207t38.5 353 q0 76 -26.5 169t-76.5 173t-122 134.5t-160 54.5h-632v-236zM430 145v949q0 18 20.5 29.5t49.5 15.5q18 4 35 4h18q98 0 179 -37t139.5 -101.5t91 -150.5t32.5 -184q0 -123 -21.5 -227.5t-74.5 -180.5t-143 -119t-230 -43q-2 0 -13 -1h-8q-9 0 -20 1q-23 2 -39 14.5 t-16 30.5z" />
<glyph unicode="e" horiz-adv-x="927" d="M61 487q0 -6 5.5 -5t9.5 -1h18h17h8q6 0 14 2q2 29 8 55.5t20.5 48t39 35t61.5 13.5v-526q-25 -4 -40 -5.5t-29 -5.5q-31 -4 -56 -12q-53 -18 -53 -57q0 -25 5 -30t28 -5h35q49 2 118.5 6t143 8t147.5 8t132.5 8.5t95 7.5t38.5 3l33 14v209q0 2 -4 2q-6 2 -30.5 4 t-43.5 4q-2 -14 -3 -32.5t-3 -37t-3 -33t-3 -20.5q-4 -12 -14.5 -26.5t-26.5 -14.5h-332v510q27 4 42.5 7.5t27.5 7.5t24.5 7t22.5 9q41 18 41 64q0 29 -25.5 30.5t-54.5 1.5h-37q-18 0 -35 4q-18 4 -34.5 14.5t-16.5 37.5v286q0 8 24.5 24.5t41.5 20.5h14t28.5 1t31.5 1h26 q49 0 81 -7t50.5 -19t27.5 -27.5t15 -32.5q4 -12 7 -23t14 -20q6 -4 19 -10t40 -8v236h-686v-7q-2 -6 -2 -14v-14q0 -29 18.5 -38t53.5 -13q16 -2 32.5 -3.5t28.5 -3.5q45 -8 45 -43v-321q-43 0 -65.5 3t-37 11t-28.5 25l-4 8q-6 10 -18.5 18.5t-47.5 10.5v-351z" />
<glyph unicode="f" horiz-adv-x="921" d="M57 1133h244v-404q-61 0 -87 20.5t-40 41.5q-4 6 -6 10t-6 8q-12 12 -22.5 18.5t-26.5 6.5q-20 0 -31 -3q-6 0 -6 -2v-385q0 -8 9 -5t13 3q27 0 37 13.5t17 40.5q10 25 17 55.5t32 46.5q16 8 55 -4q4 -4 9 -5t9 -5q2 0 6.5 -1t20.5 -1v-408q0 -39 -13.5 -62.5t-35 -38 t-50 -21.5t-59.5 -9v-49h443q-6 53 -24.5 67.5t-41.5 18.5q-16 2 -33 2q-14 0 -24 2q-16 2 -30.5 11t-14.5 34v473h176q2 -23 2 -37v-24q2 -12 2 -27q0 -12 4 -25q10 -47 39 -47q6 0 17.5 1t22.5 4.5t19.5 8.5t8.5 13v360q0 4 -4.5 3t-8.5 2h-16h-16h-31q-8 0 -10 -9 q-2 -6 -1 -12t1 -16q2 -12 4 -28.5t2 -49.5h-238l29 403h311q27 0 44.5 -14t27.5 -34.5t14 -44t4 -42.5q10 -2 25 -2h22q18 0 23 4q0 14 2 46t2 42v43v23q0 14 -4 24q-12 47 -45 47h-748q-23 0 -35 -30q-6 -25 -6 -51z" />
<glyph unicode="g" horiz-adv-x="1214" d="M55 659q0 -117 34 -234.5t99.5 -213.5t165 -156.5t232.5 -60.5q49 0 92 15.5t82 42t71.5 59t61.5 69.5q29 35 50.5 69t37.5 62q43 72 63 72l17 -4h-4l20 -21q0 -14 1 -27.5t3 -23.5q0 -18 9 -39q4 -12 14 -19t33 -7q14 0 23 2t9 22v344q-27 -4 -38 -18t-21 -37 q-6 -14 -12 -27.5t-17 -25.5q-20 -31 -59 -31h-21q-6 6 -20 14.5t-18 8.5q-10 2 -36 6t-55.5 7t-59.5 6t-46 5q-4 53 -12.5 84t-48.5 31q-23 0 -40.5 -14.5t-17.5 -34.5v-324q25 4 35 19.5t20 37.5q10 33 27 56q24 30 63 30h3q4 0 11 -1l7 -1q10 -4 22.5 -16t16.5 -25v-14 q0 -55 -30.5 -100t-75 -77t-96.5 -48.5t-95 -16.5q-106 0 -183 58.5t-126 144.5t-72.5 182.5t-23.5 172.5q0 88 31.5 169.5t87 145t132 102.5t166.5 39q14 0 53 -3t60 -3q12 -20 25.5 -28.5t29.5 -18.5q18 -10 33 -23q8 -4 18.5 -14t30.5 -39q-41 -12 -62.5 -23.5 t-21.5 -31.5q0 -16 4 -19.5t8.5 -5.5t10.5 -2h14h35q23 0 64.5 6.5t83.5 18.5t74 30.5t32 45.5q0 14 -32 36.5t-81 48t-108.5 50t-115.5 44t-101.5 32t-63.5 12.5q-111 0 -204 -50.5t-158.5 -131t-102.5 -183t-37 -207.5z" />
<glyph unicode="h" horiz-adv-x="1273" d="M59 516h91q2 0 -0.5 3t0.5 5q4 10 6 21.5t6 23.5q10 35 26.5 60.5t51.5 25.5q14 0 40.5 -8t26.5 -37v-520h-84q-29 0 -53 -6q-23 -4 -34 -14.5t-11 -38.5v-17q0 -12 6 -16h76q45 0 81 1t71.5 3t76.5 6t94 10q6 2 7 9q2 8 2 30q0 39 -31 47t-86 11v542l471 -28v-496 q0 -14 -14.5 -26.5t-22.5 -16.5q-12 -4 -52 -10t-67 -10q-2 -8 -2 -17v-12v-14v-17q2 -4 1 -8t3 -4h428q23 0 26 21.5t3 37.5q0 27 -22.5 31t-51.5 6q-18 2 -34.5 3t-32.5 5q-16 6 -30.5 18.5t-14.5 35.5v475h63q2 -29 3 -45.5t3 -26.5q0 -12 2 -20.5t4 -16.5 q6 -14 16.5 -21t33.5 -7q29 0 43 22.5t18 63.5q2 26 2 52q0 20 -1 39q-3 46 -3 74q0 6 -1 20.5t-1 31.5q0 16 -1 31.5t-1 23.5q-4 8 -10 8h-13q-43 0 -63.5 -32.5t-32.5 -104.5h-61v364q0 18 11 27.5t21.5 14t20.5 7.5t20 7q23 4 32 10t9 23q0 4 1 14t-1 20q-2 6 -1 11.5 t-3 5.5h-381q-2 0 -2 -6q-2 -10 -2 -17v-12q0 -35 43 -55q12 -6 25.5 -9.5t26 -7.5t26.5 -7t37 -9v-359h-471v332q8 6 21.5 21.5t26.5 33t25.5 33t18.5 23.5q0 4 1 8l1 4q0 4 3 15.5t-7 11.5h-385q-8 0 -5 -10.5t3 -14.5q0 -29 19.5 -42t48 -19t59.5 -6h55v-347 q0 -23 -15.5 -31.5t-29.5 -11.5q-8 -2 -22 -2h-15q-37 0 -53 27q-8 10 -11 23.5t-7 27.5q-4 20 -9.5 29.5t-27.5 9.5q-23 0 -40.5 -13t-17.5 -34v-297z" />
<glyph unicode="i" horiz-adv-x="686" d="M70 270q0 -68 5 -131t21 -129q12 -2 44 -5t68 -6t67.5 -6t43.5 -3h21h22q12 0 41 3t61 6t59.5 6t37.5 5q39 12 44 35t5 49q0 14 -2 45t-5 61.5t-8 53t-11 22.5h-68q2 -10 2 -40q0 -29 -6 -61t-20.5 -60.5t-40.5 -36.5l-43 45v989q0 4 8 12.5t12 10.5q8 2 30.5 3t47 2 t45.5 1h33v88h-488v-88h33t47.5 -1t46 -2t29.5 -3q6 -2 14 -10.5t8 -12.5v-969q0 -4 -17 -19t-28 -26l-4 -1t-6 -1q-23 0 -33 13.5t-15 32t-9 42t-13.5 42t-28 31.5t-50.5 13z" />
<glyph unicode="j" horiz-adv-x="1236" d="M16 549q0 -68 6.5 -120t20.5 -130q0 -2 2 -4t12.5 -4t18.5 -1t18 1q29 0 33 9t2 32q0 10 -1 23.5t1 27.5q4 16 16.5 28.5t47.5 20.5q23 -59 38 -102t31 -82q16 -37 33.5 -71t40.5 -60q45 -53 111.5 -86t183.5 -33q106 0 183 30.5t140 118.5q8 14 21.5 38t26 48.5t20.5 42 t8 19.5v817q29 4 59.5 6t59.5 10q53 14 53 46q0 12 -3 33.5t-25 21.5h-453q-14 0 -20.5 -29t-6.5 -41t5.5 -15t23.5 -5q8 0 30.5 -1t47.5 -1q27 0 51.5 1t36.5 1l35 -37v-830q0 -2 -16.5 -20.5t-39 -43t-47 -49t-41.5 -38.5q-16 -16 -31.5 -22.5t-32 -8.5t-30.5 -1t-33 1 q-53 0 -109.5 17.5t-102.5 50t-75.5 82t-29.5 110.5v17q-2 6 -1 15t1 17q2 12 11 29.5t42 24.5q29 -23 37 -37q10 -14 20 -33q16 -25 35 -25q29 0 46.5 18.5t17.5 53.5q0 18 -3 56t-11.5 77t-21.5 67.5t-34 28.5q-35 0 -46 -4t-15 -8t-6 -8t-2 -10t-3 -11q-8 -35 -43.5 -55 t-136.5 -20q-10 0 -47 1t-61 1q-8 51 -19.5 61t-36.5 10t-30.5 -3t-8.5 -7l-4 -22v-35z" />
<glyph unicode="k" horiz-adv-x="1243" d="M73 3v-5q0 -5 1 -12q4 -10 6 -11h29q20 0 42.5 -1t41.5 -1h28q25 0 67 -4q17 -2 33 -2q25 0 50 4q88 10 88 60q0 16 -10.5 24t-32.5 17q-10 4 -21.5 7t-21.5 7q-10 6 -19.5 17.5t-9.5 27.5v463q0 8 10.5 27.5t16.5 29.5q4 8 17 21.5t28.5 29t32 29.5t26.5 23 q14 -8 24.5 -18.5t14.5 -16.5q6 -8 17.5 -24.5t22.5 -35t19.5 -35t12.5 -22.5l1 -8q1 -8 1 -10q0 -18 -5 -32.5t-16 -31.5q-10 -14 -19 -27.5t-13 -29.5h176l184 -301l-4 4q4 -4 7 -16.5t3 -20.5q0 -31 -27 -47q-8 -4 -16 -7t-18 -7q-16 -6 -25.5 -12.5t-9.5 -24.5t2 -29v-6 h410q-4 41 -14.5 53t-28.5 17q-6 2 -14.5 3t-16.5 3t-15.5 3t-17.5 5q-43 16 -74 59q-10 14 -35.5 52t-53 81t-53.5 81t-38 55q-2 6 -8 18t-13.5 26.5t-14.5 28t-9 19.5l-2 8t-2 10q0 20 7 33.5t17 28.5l11 12q8 10 14 21.5t8 27.5h-145q-27 0 -50.5 26.5t-42 61.5 t-29.5 67.5t-11 45.5q0 4 2 16l2 12l233 234q25 2 43 2h37q16 2 29 2q12 0 24 4q16 4 24.5 15.5t8.5 43.5q0 8 1 16.5t-1 19t-6 10.5q-12 0 -44 2t-42 2q-72 0 -138.5 -37t-129.5 -97q-33 -29 -62.5 -60.5t-58.5 -61.5q-29 -33 -56.5 -64t-62.5 -70l-45 43v228q27 4 43 4 t27 2q27 4 39 8q14 4 21 13.5t7 29.5q0 29 -18.5 42t-52.5 18q-18 2 -37 2h-33q-20 0 -35.5 -1t-28.5 -1h-24t-37.5 -1t-40.5 -1h-27q-29 -10 -40 -21.5t-11 -36.5q0 -18 12.5 -26.5t38.5 -12.5q12 -4 25.5 -6t26 -6t22.5 -16.5t10 -30.5v-952q0 -4 -21.5 -21.5t-37.5 -21.5 q-10 -2 -42 -8.5t-54 -10.5q-2 -8 -2 -16v-13q0 -8 -1 -15z" />
<glyph unicode="l" horiz-adv-x="1204" d="M59 1104q0 -33 8.5 -61.5t28 -49t56.5 -20.5q16 0 21 6t5 29t-5 38t-34 48l47 22q8 4 13.5 6t9.5 4l9 4q9 3 13 3t13 -5l10 -4q8 -8 18.5 -29.5t10.5 -31.5v-973h-86q0 16 -2 42t-6.5 52.5t-8.5 47t-6 28.5q0 8 -4 8q-10 2 -42 4t-56 4q0 -18 2 -41.5t3 -47t3 -43 t4 -27.5q2 -12 5 -33t6 -39t6 -31.5t8 -13.5h862q47 0 56 16.5t9 44.5q0 16 -1 37t-1 39q2 18 9.5 40t23.5 38q10 10 21.5 15.5t21.5 9.5q21 8 29 10q12 2 12 29v12q0 8 -2 14q0 2 -4 6h-29q-18 0 -37.5 1t-38.5 2h-26q-14 0 -50 2q-12 1 -24 1q-24 0 -49 -3q-78 -8 -78 -48 q0 -14 10 -24q8 -4 19.5 -6.5t21.5 -4.5q35 -6 61.5 -19t26.5 -56q0 -18 -7 -37t-36 -29h-22t-34.5 -1t-35.5 -1h-24q-29 0 -93.5 5t-132 13.5t-119 20.5t-51.5 29v929q0 2 6.5 11.5t14.5 19.5t18 19.5t17 13.5l9 2t11 2q23 0 34 -12.5t17 -26.5q8 -16 12.5 -32.5t8.5 -32.5 q8 -29 16 -52.5t35 -23.5q8 0 13 6t9 25q2 10 3 18v20v33v49q0 25 -5 50q-12 45 -45 45h-483l-27 -13q-2 -10 -2 -22v-17v-63z" />
<glyph unicode="m" horiz-adv-x="1368" d="M70 -2h383v2t2 4l-2 -2q4 14 7 37.5t3 40.5h-170q-18 0 -30.5 23.5t-12.5 31.5q0 14 8 77.5t20.5 151t28 185.5t30.5 183t26.5 142.5t17.5 63.5q35 -23 54.5 -49.5t37.5 -52.5q16 -31 29.5 -63t29.5 -64q29 -55 54.5 -99.5t60.5 -44.5t57.5 53.5t49.5 122.5 q16 37 30.5 75t30.5 73q18 35 40 64.5t56 52.5q29 -23 43.5 -45.5t22.5 -45.5q23 -203 69 -402.5t123 -412.5h-237q-4 0 -2 -3t2 -7q-2 -10 -2 -20v-13v-16q0 -6 2 -16v-7h379q-4 41 -20.5 95.5t-39.5 113.5q-27 66 -51 132.5t-37 115.5q-18 74 -30.5 153t-28.5 156 q-14 78 -32.5 156t-53.5 166l162 53q4 0 -4.5 6t-8.5 11q0 2 1 12t-3 24v13q0 8 -6 8h-227q-2 0 -11.5 -9.5t-20.5 -23.5t-23.5 -28.5t-18.5 -22.5q-27 -31 -55.5 -78t-57.5 -98q-29 -49 -53 -97.5t-49 -89.5q-49 39 -77.5 73t-51.5 69q-18 33 -36.5 67.5t-37.5 69.5 q-37 63 -84 105t-131 42q-8 0 -18 1t-23 1h-28t-25 -2q-47 -6 -47 -34q0 -27 9 -37.5t28 -14.5q16 -8 43 -8q16 -2 35 -2q18 0 49 -4v-33q0 -20 1 -39.5t1 -35.5v-23q0 -106 -12.5 -211.5t-28.5 -212t-31.5 -215.5t-21.5 -221q-45 -20 -63.5 -52t-22.5 -71z" />
<glyph unicode="n" horiz-adv-x="1132" d="M70 1184q0 -25 14 -40.5t36.5 -23.5t50.5 -10t56 -2v-975q0 -18 -11 -30.5t-28 -20.5l-18 -8q-33 -14 -33 -41t7.5 -31t45.5 -4q74 0 140.5 5t144.5 15q0 8 1 15.5t1 11.5q0 88 -137 90v783l43 43l213 -213q8 -6 34.5 -30t56.5 -49.5t55.5 -49t31.5 -29.5 q6 -4 11.5 -11.5t9.5 -13.5q16 -20 23 -35.5t30 -31.5v-342q0 -20 -7 -33.5t-18 -26.5q-12 -8 -23.5 -12t-23.5 -8q-23 -6 -33 -13.5t-10 -29.5q0 -16 2 -27q0 -6 2 -6h332q2 0 2 6q2 6 2 14v13q0 20 -6 30.5t-18 18.5q-6 4 -14.5 7t-18.5 7t-22.5 9.5t-32.5 13.5v985 q61 10 76.5 23.5t15.5 52.5q0 23 -10.5 32t-30.5 13q-10 2 -23 2h-26t-27.5 -1t-26.5 -1q-12 0 -38.5 1t-28.5 -1l-17 -15v-139l23 -20v-283l-29 -31l-14 7q-14 6 -33.5 16t-39 22.5t-32.5 22.5q-20 18 -70 65.5t-106.5 100.5t-107.5 100t-72 68q-6 10 -22.5 35.5 t-22.5 31.5q-2 4 -3 8l-1 5h-221q-2 0 -2 -9q-2 -6 -2 -14v-12z" />
<glyph unicode="o" horiz-adv-x="1146" d="M57 596q0 -98 33 -203.5t94.5 -192.5t147.5 -143.5t192 -56.5q96 0 177 51t140.5 132t93.5 179.5t34 190.5q0 76 -18.5 148.5t-56.5 130t-95.5 91t-134.5 33.5q-61 0 -116.5 -22.5t-97.5 -62.5t-67 -94t-25 -115q0 -45 14.5 -86t40 -73t62.5 -51.5t80 -19.5q41 0 78 16.5 t63.5 45t42 65.5t15.5 78q0 59 -33 102t-90 43q-41 0 -71 -23.5t-30 -62.5q0 -20 1 -34.5t24 -14.5q16 0 30.5 6t55.5 37q0 -33 1 -45t1 -16q0 -37 -25.5 -62.5t-62.5 -25.5q-29 0 -48.5 16t-33.5 40t-20.5 51.5t-6.5 49.5q0 37 20.5 68t51.5 53.5t67 34.5t66 12 q63 0 103.5 -28.5t63 -71.5t31.5 -93t9 -93q0 -66 -19.5 -148t-61.5 -153.5t-104.5 -120.5t-148.5 -49q-90 0 -159.5 55t-117.5 135t-74 170t-26 160q0 98 45.5 185t118 151.5t162.5 102.5t180 38q6 0 22.5 -1t36 -2t38 -2t26.5 -1q68 -41 114 -97.5t79 -121.5 q31 -61 53.5 -124.5t42.5 -129.5l29 28q0 16 2 49t2 44q0 106 -44 192t-116 146.5t-165 93t-193 32.5q-111 0 -207.5 -56t-166 -144t-109.5 -199t-40 -217z" />
<glyph unicode="p" horiz-adv-x="974" d="M69 3q-1 -2 -1 -4q0 -5 8 -5h307q23 0 23 8q4 8 4 18v21q0 33 -14 49q-12 13 -55 13q-11 0 -24 -1v291q51 -10 82 -18t58 -17q29 -8 55 -12t55 -4q90 0 155.5 30.5t107.5 84t62.5 128t20.5 160.5q0 66 -15 150t-48 157.5t-84 125t-125 51.5q-35 0 -69.5 -10.5 t-69.5 -24.5q-39 -14 -76 -25.5t-78 -11.5q-14 0 -35 12q-10 4 -20 10.5t-25 14.5q-27 14 -55.5 23.5t-60.5 9.5q-10 0 -37 -1t-37 -1l-3 -3t-3 -5q-2 -6 -1 -14.5t1 -14.5q0 -61 112 -78q0 -37 2 -104.5t5.5 -152.5t5.5 -176t4 -174t3 -149.5t1 -97.5v-63v-80 q-20 -10 -33.5 -16.5t-26.5 -10.5q-10 -4 -20 -7t-21 -7q-16 -6 -24 -18.5t-8 -37.5q0 -4 -3 -13zM317 543v461q0 23 38 43t87.5 35.5t95.5 24.5t64 9q4 0 16.5 -1t26.5 -1q16 0 30.5 -1t24.5 -1q8 -12 24.5 -36.5t33 -52.5t29 -51.5t12.5 -33.5v-350q0 -16 -14.5 -39 t-32.5 -41l-30.5 -30.5t-23.5 -22.5q-10 0 -28.5 -1t-38.5 -1t-38 -1t-26 -1q-10 0 -47 1t-80 7q-49 6 -86 27.5t-37 56.5zM532 797q0 -27 6 -33t29 -6q25 0 32 7t7 32q0 23 -6 28.5t-33 5.5q-23 0 -29 -6t-6 -28z" />
<glyph unicode="q" horiz-adv-x="1218" d="M57 559q0 -100 21.5 -199.5t71 -179.5t126 -129t187.5 -49q57 0 112.5 19.5t106.5 44.5q51 27 98 49q23 10 43.5 16t38.5 6q66 0 105 -31q32 -26 32 -80q0 -12 -2 -26h21q27 0 54.5 20.5t50 50t35.5 64.5t13 66q0 29 -7 38t-23 9t-27.5 -5t-26.5 -16q-16 -12 -31.5 -20 t-37.5 -8q-35 0 -56.5 14t-52.5 43v18q0 88 13.5 173t13.5 178q0 117 -22.5 225t-75 191t-138.5 133.5t-215 50.5q-115 0 -196.5 -66.5t-133 -167t-75 -217.5t-23.5 -215zM150 582q0 72 19 164t60 173.5t107.5 138t163.5 56.5q117 0 184.5 -47t103 -123t45 -168t9.5 -184 v-25q0 -12 -3 -47t-6.5 -74.5t-7.5 -77.5t-6 -59h-28h-17q-10 6 -25.5 13.5t-29.5 15.5t-26.5 13t-16.5 7q-8 14 -5 37t11 45q4 10 7 18.5t5 18.5q-10 0 -26 4q-10 2 -18.5 4t-16.5 2q-8 2 -15.5 0t-17.5 -18q-4 -6 -16.5 -23.5t-25.5 -38t-25.5 -39t-18.5 -26.5 q-12 -18 -16 -27.5t-2 -17.5q0 -10 3 -23.5t5 -42.5l24 -6q8 -2 15.5 -4t11.5 0q2 0 6 4t10.5 7.5t10.5 7.5q14 10 25 16t18 8q10 0 28.5 -10t28.5 -16q6 -4 15.5 -14.5t15.5 -22.5q-14 -29 -49 -46.5t-76 -27.5t-79 -13t-58 -3q-92 0 -151.5 49t-92.5 120.5t-45 153.5 t-12 148z" />
<glyph unicode="r" horiz-adv-x="1116" d="M57 453q0 -2 6 -2q10 -2 29 -2q18 0 28.5 6t18.5 18q4 8 8.5 15.5t8.5 17.5t10 22.5t24 32.5q4 2 11 2q2 0 7 -1t7 -1q10 -4 24.5 -16.5t14.5 -24.5l20 -391q2 -25 -9 -35t-27 -12q-12 -2 -24.5 0t-25.5 4q-20 2 -32.5 -5t-12.5 -42v-14v-17q2 -4 1 -8t3 -4h304q4 0 3 4 t1 8v17v14q0 35 -11.5 46t-56.5 28v413l33 35q10 0 35.5 2t36.5 2q72 0 135 -45t110 -111.5t75 -143.5t28 -138q0 -20 -11.5 -31.5t-27.5 -19.5l-17 -8q-16 -10 -24 -18.5t-8 -22.5t2 -22.5t22 -8.5h283q4 0 3 5t1 9q1 7 1 14v6q-1 10 -1 15q0 18 -6 24.5t-23 10.5l-18 6 q-45 16 -62 55l-198 416v57q80 63 129 140t49 170q0 51 -22.5 100t-60.5 89t-86 67.5t-99 33.5h-48q-31 0 -66.5 1.5t-68.5 1.5h-43q-32 0 -74 1h-28q-30 0 -62 -1q-41 0 -80.5 -4.5t-70.5 -14.5q-2 -8 -2 -16q0 -35 31 -54q8 -4 17 -7t19 -7q12 -4 26.5 -7t37.5 -11v-418 q-51 0 -71.5 11t-30.5 26q-2 4 -3.5 6t-5.5 6q-12 12 -34 12q-4 0 -15.5 1t-21.5 -1q-4 -2 -9.5 -1t-5.5 -3v-282zM365 670v411q0 8 22.5 23.5t38.5 19.5h12q12 0 25.5 1t25.5 1h23q55 0 110.5 -8t99.5 -32.5t71.5 -68.5t27.5 -114q0 -27 -12 -66.5t-35.5 -76.5t-56.5 -63.5 t-72 -26.5h-280z" />
<glyph unicode="s" horiz-adv-x="1062" d="M25 250q31 2 57.5 -6t52.5 -23q33 -18 61.5 -42.5t57.5 -45.5q59 -51 129 -92t166 -41q82 0 156.5 29.5t132 82t91.5 124t34 157.5q0 70 -24 118t-63.5 81t-91 55.5t-108.5 38.5q-29 8 -56.5 16.5t-54.5 16.5q-59 14 -98 37q-45 20 -77 51t-32 84q0 43 29 83t71 72.5 t87 56t76 30.5q16 2 61 -5l29 -6q6 -2 12 -2h29q0 -29 -1 -41t-3 -20q-2 -12 -13 -29q-4 -12 -6 -24.5t-4 -32.5q31 0 78 3t91 13t77 30.5t33 57.5q0 20 -3.5 26.5t-11.5 8.5t-16 3t-19 3q-12 2 -24 5t-29 14q-20 12 -34.5 24.5t-26.5 22.5q-10 10 -20.5 18t-22.5 15 q-14 16 -37 25t-72 9q-68 0 -141.5 -26.5t-136 -72.5t-103.5 -107.5t-41 -133.5q0 -74 22.5 -123t61.5 -81.5t89 -53t104 -35.5q27 -8 54.5 -15t51.5 -17q37 -10 73 -24.5t63.5 -37t45 -55.5t17.5 -78q0 -70 -23.5 -122t-63.5 -87t-95.5 -52t-116.5 -17q-37 0 -88 10 t-98.5 33.5t-81 59.5t-33.5 87q0 2 2 11l2 10l8 16t13.5 26.5t12.5 25.5t7 16q0 4 1 6t1 6q2 2 2 6q0 25 -14 25h-35q-35 0 -49.5 -6.5t-46.5 -32.5q-12 -12 -34 -32t-42.5 -38t-35.5 -32.5t-15 -16.5v-43z" />
<glyph unicode="t" horiz-adv-x="1146" d="M45 913q0 -2 12 -4l-8 2q16 -2 39 -5t39 -3v209h434v-1006l-9 -6t-21.5 -13t-28 -14t-27.5 -10h-14h-27q-6 29 -9 56.5t-11 56.5q-14 47 -37 47q-16 0 -39 -2t-23 -24v-172l31 -31h508v223q0 10 -9 7t-14 -3q-6 0 -25.5 3t-19.5 -7v-131h-86v1026h299v-199l3 7q2 6 6 4 q18 -6 30 -13h17h6q12 53 16 94.5t4 98.5v26t-2 25q-2 33 -15 51.5t-54 18.5h-783h-43q-14 -2 -31.5 -3t-33.5 -5q-35 -8 -54.5 -22.5t-19.5 -37.5v-244z" />
<glyph unicode="u" horiz-adv-x="1280" d="M55 975q0 -23 9.5 -34t25.5 -15q10 -4 21 -4q12 0 26 -2q12 0 28.5 -1t45.5 -4v-153q0 -76 4 -152q4 -78 13.5 -152.5t29.5 -142.5q18 -68 48 -124t76 -98t109.5 -65.5t149.5 -23.5q63 0 139 27.5t140.5 75t107.5 112t43 135.5v539q29 4 57 4q31 0 60 4q49 8 49 39 t-51 57q-27 12 -52.5 20.5t-52.5 14.5v76q27 6 54.5 10t54.5 12q49 14 49 37q0 14 -4 35t-27 21h-434q-4 0 -2 -6.5t2 -12.5q-4 -12 -3 -21t1 -12q0 -4 -9 -10t-5 -6l213 -47v-92h-246q0 -18 2 -41t4 -33q0 -4 4 -4l236 -47v-494q0 -53 -35 -106t-86 -98.5t-109.5 -73 t-105.5 -27.5q-53 0 -108.5 26.5t-101.5 70.5t-74.5 98.5t-28.5 109.5v531h114q0 18 -2 39.5t-4 33.5q0 4 -8 5q-10 4 -44 12t-56 12q0 16 -1.5 26.5t-1.5 14.5q0 49 41 66q12 4 30 5t34 3q20 2 40.5 13t24.5 65h-409q-4 0 -2 -4.5t0 -8.5q-2 -12 -1 -21t1 -13q0 -33 33 -46 q18 -8 39 -10q10 -4 24 -6t37 -6v-78q-29 -2 -45 -3t-29 -1q-31 0 -47 -8q-16 -4 -25.5 -13.5t-9.5 -29.5z" />
<glyph unicode="v" horiz-adv-x="1245" d="M32 1188q1 -10 1 -12q0 -20 6 -23.5t20 -5.5q6 0 11.5 -1t9.5 -1q23 -4 39 -12.5t24 -30.5q10 -29 38 -102.5t58.5 -157.5t58.5 -159t40 -103q4 -8 14 -31t24.5 -53.5t32 -66.5t34 -73t34 -72.5t30.5 -67.5t22.5 -55.5t9.5 -31.5q0 -37 -33 -51q-10 -4 -20.5 -6t-20.5 -4 q-12 -4 -24.5 -14.5t-16.5 -45.5h395q2 0 2 6q2 10 2 29q0 23 -11 26t-28 9q-35 12 -53 55q0 2 2 16.5t6 34t9.5 40t9.5 34.5q2 2 9 18.5t9 22.5q4 14 20.5 62.5t35 101.5t34 100t19.5 60q4 10 11 34.5t18.5 57.5t24.5 71.5t28 79.5q12 39 27.5 78t30.5 73t30.5 58.5 t29.5 34.5q29 16 56 20q12 2 22 3q13 0 23 2q12 4 19 9t7 32q0 2 -1 7t-1 9q-10 8 -35.5 20.5t-31.5 12.5h-324q-10 0 -7 -9.5t3 -13.5q0 -37 33 -57q10 -6 19.5 -10.5t19.5 -8.5t24.5 -7t36.5 -11q-10 -72 -25.5 -127t-34 -108.5t-40 -104.5t-45.5 -104q-41 -104 -83 -209 t-75 -228q-4 -2 -10 -2q-2 0 -11 1l-8 1q-8 4 -19 16.5t-15 16.5q-45 94 -86 195.5t-79 206t-73 208t-68 199.5v14v31q23 0 50.5 12.5t35.5 18.5q2 8 3 18v15q0 2 1 11t-1 19q-2 6 -1 11.5t-4 5.5h-321q-6 0 -4 -5.5t-2 -11.5q-1 -7 -1 -13v-7z" />
<glyph unicode="w" horiz-adv-x="1366" d="M51 1165q0 -18 6 -25t17 -16q14 -6 28 -16q20 -8 35 -33q59 -238 119.5 -461t120.5 -458v-11v-28q-23 -4 -36 -6t-25.5 -6.5t-21.5 -5.5t-18 -5q-29 -12 -28 -43q0 -8 -2 -17t2 -20q0 -10 4 -12h27q18 0 38.5 -1t36.5 -1h23q25 0 75 -4q25 -2 50.5 -2t52.5 2q43 2 77 10 t34 41q0 39 -30 55q-22 11 -66 11q-17 0 -38 -2v34q0 23 6.5 69t16.5 102.5t26.5 118t36 115.5t43 95t50.5 60q8 -12 17 -29t17.5 -33t14.5 -29.5t8 -19.5q14 -39 35.5 -104.5t43 -128t37 -110.5t15.5 -52v-99h-123q2 -16 4 -34.5t6 -32.5q4 -8 13.5 -19.5t13.5 -11.5h389 q37 0 54.5 15.5t17.5 39.5q0 20 -7 29.5t-20 13.5q-8 2 -18 5.5t-23 3.5q-10 2 -24.5 3t-42.5 3v49q0 121 17.5 237.5t39.5 233.5q25 115 51.5 228t42.5 224q0 10 1 32t1 32q0 14 -1 38.5t-1 27.5v2h-260q-23 0 -24 -7q-2 -4 -2 -16v-14q0 -29 3 -39t17 -13h18q4 0 10.5 1.5 t14.5 1.5q12 4 31.5 5t54.5 1q0 -86 -9 -209t-27.5 -252t-45.5 -252t-59 -211q-29 53 -43.5 89t-24.5 63q-2 12 -10 36.5t-19.5 57.5t-24.5 71.5t-28 77.5q-12 39 -25.5 76t-23.5 66q-12 31 -18.5 51t-6.5 24t1.5 14.5t1.5 24.5q23 4 36 6t23 5q16 0 41 10q35 12 35 37v12 q0 8 -2 16q0 8 -2 10h-500q-2 0 -1 -3t-1 -5v-30q0 -33 67 -47q35 -4 69 -5.5t67 -3.5q-35 -131 -79 -257t-100 -273q-16 43 -27 73.5t-16 41.5q-4 14 -16 68t-26.5 116.5t-28 117t-17.5 68.5q-6 27 -16 56.5t-20.5 60.5t-17.5 63.5t-7 63.5q0 23 11 35t27.5 16t34 5t33.5 3 q25 2 46.5 8.5t21.5 36.5q0 6 1 24.5t-7 23.5h-29q-18 0 -37.5 1t-38.5 1h-24h-51q-39 0 -86 -7q-39 -6 -71 -15t-32 -34z" />
<glyph unicode="x" horiz-adv-x="1304" d="M61 1135q0 -16 14.5 -22.5t35.5 -10.5q29 -6 58.5 -16.5t47.5 -34.5q12 -14 40 -52t59.5 -80t59 -80t40.5 -55q6 -10 17 -24.5t22 -32.5q12 -16 22 -36.5t10 -41.5v-14q-4 -8 -12 -25.5t-12 -25.5q-6 -10 -29.5 -47t-49.5 -78t-49.5 -76t-29.5 -43q-25 -41 -57.5 -87 t-61.5 -93q-27 -41 -43 -82t-20 -82h344q10 0 7 9t-3 13q0 53 -47 68.5t-119 26.5q14 51 49 126.5t75 145.5t77 119t59 49q6 0 15 -4l8 -4l411 -434q-37 -2 -55 -8.5t-27.5 -14.5t-10.5 -18.5t-1 -22.5q0 -41 13.5 -47t52.5 -6q37 0 66.5 1t60 4t63.5 7t74 10q10 4 10 9v16 q0 31 -9 35t-34 14q-20 6 -39 23q-72 55 -137 122.5t-127 139.5q-33 35 -62.5 70.5t-62.5 70.5q-31 35 -62.5 67.5t-68.5 67.5v54q0 2 25.5 33.5t61.5 72.5t75 84t65 70q10 10 34 30.5t49.5 42t47 39t29.5 23.5q16 10 43 18q10 4 21.5 6t21.5 6q39 14 39 41q0 20 -10 25 q-39 12 -90 18.5t-107 8.5q-45 2 -88 2h-74q2 -20 8.5 -31.5t16.5 -22.5q4 -4 5 -8t5 -8q23 -29 23 -61q0 -2 -2 -12l-2 -11l-310 -311q-12 18 -34.5 47t-45 59.5t-42 56t-27.5 35.5q-8 12 -23.5 37t-21.5 33l-2 10q-2 9 -2 11q0 6 2 10v22q11 -1 21 -1q45 0 57 16 q16 18 16 49v20t-4 21q0 2 -4 5t-21 3h-311q-20 0 -23.5 -23.5t-3.5 -35.5zM264 649q0 -27 24 -31t44 -4q35 0 42 5.5t7 31.5q0 59 -59 60q-25 0 -41.5 -16.5t-16.5 -45.5zM530 360q0 -25 11 -41t34 -16q18 0 23.5 8t5.5 39q0 35 -6 42t-33 7q-23 0 -29 -5t-6 -34z" />
<glyph unicode="y" horiz-adv-x="1079" d="M23 1171q0 -29 20 -31.5t43 -2.5q35 -2 74 -5.5t61 -35.5q8 -12 27.5 -41t41 -60.5t41 -60.5t25.5 -41q2 -4 9.5 -20.5t11.5 -24.5q10 -16 31.5 -51t46 -73t47 -73t35.5 -49v-491q-25 -4 -48.5 -7.5t-46.5 -11.5q-16 -4 -28.5 -9t-12.5 -17q0 -18 4.5 -35t12.5 -35 q12 0 29.5 -1t23.5 -1q27 0 86 -1h20q49 0 99 4q61 5 107 20.5t46 45.5q0 35 -22.5 40.5t-46.5 5.5q-16 0 -34.5 -1.5t-35.5 5.5q-43 12 -43 59v385q18 29 33.5 69t32 87t34 98t39.5 100q20 45 46 88t59 76t73 52.5t89 19.5v24q0 29 -13.5 36t-54.5 7h-51q-12 0 -48 -3 t-77 -6t-79 -6t-54 -5q-23 -10 -28 -19.5t-5 -27.5t13.5 -22.5t29.5 -8.5q10 -4 22.5 -7t22.5 -9q12 -10 20.5 -21.5t8.5 -29.5q0 -37 -18.5 -81t-41.5 -85q-10 -23 -22 -44.5t-25 -43.5q-10 -20 -18 -42t-21 -61q-47 37 -86 85t-69.5 100.5t-55 105.5t-45.5 98 q12 25 27.5 36t38.5 18l18 4q18 4 25.5 10t7.5 22q0 29 -31.5 43.5t-73.5 19.5t-87 5h-68h-51q-31 0 -62.5 -6t-55 -20.5t-23.5 -41.5z" />
<glyph unicode="z" horiz-adv-x="1013" d="M127 12q2 -2 1 -4t1 -2h711q2 0 15 2t29.5 5t33 6.5t24.5 7.5q12 4 31.5 2t19.5 0v260q0 2 -10 2q-10 2 -20.5 1t-14.5 -1q-41 0 -48 -17.5t-3 -48.5q4 -20 4 -30q2 -10 3 -17.5t1 -15.5q0 -16 -8 -31.5t-35 -15.5h-594q29 59 52.5 116.5t50.5 110.5q29 53 62.5 102.5 t78.5 79.5h16q29 0 47 -18q12 -10 21.5 -18.5t26.5 -8.5q35 0 42 5t7 32q0 20 -4 34.5t-14.5 29t-29 32t-49.5 41.5q14 16 38 50t49.5 69t47 66.5t29.5 44.5q16 23 45 61.5t57.5 81.5t48 79t19.5 56q0 55 -69 56h-623q-4 0 -25.5 -7.5t-33.5 -11.5l-25 -12q-4 -2 -5 3l-1 5 v-287q37 4 48 23.5t15 50.5l7 37q6 39 22.5 66.5t54.5 43.5q10 0 31 1t43 1q23 0 43.5 1.5t28.5 1.5q45 0 83 -1.5t78 -4.5t85 -9t102 -18l-289 -412q-47 41 -72.5 49t-60.5 8q-18 0 -32.5 -2t-14.5 -24q0 -72 115 -92q-16 -86 -53 -160t-80 -143.5t-84 -134t-70 -121.5v-29 v-27z" />
<glyph unicode="&#xa4;" horiz-adv-x="1867" d="M72 977q141 39 274 43q37 137 133 233q113 113 322 179q104 29 196.5 43t169.5 16q131 0 285 -41q10 20 32.5 54t57.5 83l127 -90l-45 -61q-59 -84 -74 -142q-8 -39 -16 -76.5t-16 -76.5l-150 37q6 23 13.5 54.5t17.5 72.5q-127 31 -232 30q-150 0 -309 -47 q-178 -51 -272 -145q-53 -53 -80 -125q33 -2 59 -2h53q61 0 150.5 1t206.5 3q233 6 354 6h76l-100 -154h-78q-125 0 -305 -6q-182 -6 -304 -6q-27 0 -62.5 1t-82.5 3q-2 -27 -3 -57.5t-1 -67.5v-16l795 -2l-105 -156h-76l-573 4q66 -152 180 -247q174 -150 512 -150 q119 0 166 6q66 8 158 53q-23 51 -31 105l-10 76l151 22l13 -76q18 -121 120 -194l64 -45l-90 -125l-62 45q-18 14 -36.5 29.5t-34.5 33.5q-63 -29 -112.5 -46t-86.5 -25q-66 -12 -209 -13q-389 0 -612 187q-170 145 -244 364h-35q-23 0 -61 -2q-31 -2 -55 -2h-43h-78v156 h78h45t120 2q-2 6 -2 16q0 72 7 127q-49 -4 -101.5 -13t-105.5 -26z" />
<glyph unicode="&#xad;" d="M201 1006l65 6q86 12 226 12q269 0 423 -18l-18 -107q-145 18 -408 19q-131 0 -272 -19z" />
<glyph unicode="&#xc4;" horiz-adv-x="1495" d="M113 33q0 -31 21.5 -54.5t58.5 -23.5q2 0 6 1l4 1q4 2 11 11t9 14l740 1433v-45q0 -152 -14.5 -303.5t-31 -304t-31 -304t-14.5 -304.5v-25q0 -18 1 -38.5t1 -41.5v-26q6 -23 29 -23h37h14t25.5 1t25 6t11.5 16v1064q4 -14 9 -51t10 -79t9.5 -78.5t4.5 -51.5q2 -29 4 -87 t5 -133t5 -157.5t4 -157.5t3 -135.5t1 -88.5q8 -27 22.5 -47.5t43.5 -20.5q43 0 55 30.5t12 61.5q0 106 -14 212t-31.5 211.5t-32 209.5t-14.5 211v16t1 26.5t1 27.5v18q29 -115 50.5 -236.5t42 -244.5t40 -244t41.5 -231q6 -37 20.5 -61.5t55.5 -24.5h12q10 4 26.5 11 t16.5 9v131l-413 1499q-4 18 -16.5 21.5t-26.5 3.5q-16 0 -24.5 -3t-18.5 -22l-803 -1564q-2 -2 -3 -14.5t-1 -20.5zM262 1305h359l2 94h-359zM262 1542h359l2 96h-359z" />
<glyph unicode="&#xd6;" horiz-adv-x="1230" d="M53 795q0 -141 23.5 -287t85 -264.5t169 -194.5t277.5 -76q172 0 276.5 76t162 196t77 265t19.5 285q0 86 -9.5 182t-32 189.5t-61.5 178.5t-98 150.5t-141 103t-193 37.5q-109 0 -192.5 -37.5t-145 -101t-103.5 -148.5t-66.5 -178.5t-36 -190.5t-11.5 -185zM197 795 q0 59 10 130.5t30.5 145.5t54.5 142.5t80 122t107.5 86t138.5 32.5q68 0 125.5 -34t101.5 -89t76.5 -125.5t55 -144.5t33 -143.5t10.5 -122.5q0 -104 -28.5 -197.5t-55.5 -191.5q-10 -37 -50 -88.5t-86 -97.5t-85 -76.5t-45 -24.5q-125 4 -215 70.5t-147.5 165t-84 215 t-26.5 225.5zM408 829q0 -10 1 -40.5t1 -40.5q10 -33 33.5 -39.5t50.5 -6.5q29 0 45 12.5t24 32t10 43t2 46.5q0 27 -2 51t-9 43.5t-24.5 32t-47.5 12.5q-33 0 -50.5 -12.5t-24.5 -33t-8 -47t-1 -53.5zM668 827q0 -10 1 -41t1 -41q10 -33 33.5 -39t50.5 -6q29 0 45 12.5 t24 32t10.5 43t2.5 46.5q0 27 -2.5 51t-9.5 43.5t-24.5 32t-47.5 12.5q-33 0 -50.5 -12.5t-24.5 -33t-8 -47t-1 -53.5z" />
<glyph unicode="&#xdc;" horiz-adv-x="1017" d="M31 1483q0 -47 14 -77.5t59 -55.5l2 -1063q0 -78 40 -132.5t99.5 -89t130 -51t130.5 -16.5q70 0 118 8t88 28.5t76.5 56.5t85.5 93q8 8 19.5 32t11.5 30l-2 1104q57 27 66.5 65.5t9.5 87.5q0 76 -43 116t-115 40q-66 0 -110.5 -41t-44.5 -113q0 -47 27.5 -84t56.5 -71 l2 -875q-4 0 -10.5 -3t-10.5 -1l-205 82h-10q-35 0 -65.5 -12.5t-62.5 -26.5t-63.5 -26.5t-64.5 -12.5l-2 854q27 29 54.5 70t27.5 84q0 76 -49 116.5t-117 40.5q-72 0 -107.5 -46t-35.5 -111zM133 1493q0 23 8.5 43t32.5 20q23 0 43.5 -19t20.5 -44t-20.5 -44t-43.5 -19 q-25 0 -33 20t-8 43zM279 287q0 4 1 11t1 9q23 10 52 24.5t60 28t63.5 22.5t61.5 9q20 0 55 -8t71 -22.5t65.5 -34t42.5 -39.5q-31 -88 -92.5 -127t-153.5 -39q-35 0 -75 10t-73.5 30.5t-56 51.5t-22.5 74zM358 1190q0 -47 14.5 -78t213.5 -76q27 29 54.5 70t27.5 84 q0 76 -49.5 117t-116.5 41q-72 0 -108 -46.5t-36 -111.5zM371 795q0 -47 14 -78t213 -76q27 29 54.5 70t27.5 84q0 76 -49 116.5t-117 40.5q-72 0 -107.5 -46t-35.5 -111zM461 1200q0 23 8 43.5t33 20.5q23 0 43 -19.5t20 -44.5t-20.5 -44t-42.5 -19q-25 0 -33 20t-8 43z M473 805q0 23 8 43t33 20q23 0 43.5 -19.5t20.5 -43.5q0 -25 -20.5 -44.5t-43.5 -19.5q-25 0 -33 20.5t-8 43.5zM788 1513q0 18 3.5 41t29.5 23q29 0 41 -24.5t12 -47.5q0 -25 -7 -40t-36 -15q-31 0 -37 17t-6 46z" />
<glyph unicode="&#xe4;" horiz-adv-x="972" d="M45 334q0 -35 7 -45t40 -10h14q12 0 19 2q6 8 17.5 36.5t11.5 49.5h63q0 -20 1 -41t1 -27q-6 -51 -15 -85t-20.5 -56.5t-25 -37t-27.5 -22.5q-4 -4 -10 -5t-12 -5q-6 -2 -8.5 -3t-6.5 -3q-2 -4 -5 -11.5t-3 -27.5q0 -29 3 -35t5 -8q0 -2 19 -4h37h61h33q16 0 30 4 q27 4 42.5 16.5t15.5 38.5q0 14 -6.5 23.5t-16.5 19.5q-10 16 -18 34t-8 46q0 29 5 57.5t11 53.5q8 27 16.5 54.5t18.5 68.5h276l8 -16q9 -17 20 -40.5t21.5 -48t16.5 -41.5q2 -6 5 -19.5t7 -28.5t7 -27.5t3 -18.5q0 -4 1 -13t1 -14q0 -29 -24 -47q-18 -10 -37 -12 q-16 -4 -23.5 -10t-7.5 -23v-14q59 -16 104.5 -19.5t108.5 -3.5q23 0 42.5 -2t39.5 2q35 6 35 35q0 23 -9 30t-30 13q-4 2 -10 4l-12 4q-23 10 -41.5 23.5t-28.5 36.5q-2 4 -11.5 29.5t-19.5 57.5t-20.5 64.5t-14.5 51.5v12v16q10 25 64 51q0 -35 4 -55t11 -30.5t16.5 -13.5 t21.5 -3q59 0 60 68q0 25 -8.5 62.5t-24 73.5t-39 61.5t-53.5 25.5q-4 0 -6.5 8t-2.5 0q-8 -8 -15 -41t1 -57q-14 -2 -39.5 31.5t-55.5 86t-61.5 116t-56.5 122.5t-41 107.5t-16 68.5q0 16 8 24.5t16 12.5q10 4 18.5 7t18.5 7q14 6 21.5 12.5t7.5 20.5q0 25 -12.5 37 t-34.5 16q-25 6 -51.5 5.5t-55.5 -0.5h-20q-12 0 -28.5 -1.5t-31.5 -1.5h-22q-23 -10 -28 -22t-5 -35t11.5 -35t64.5 -20q-25 -84 -36 -154.5t-22 -140.5q-10 -68 -22 -136.5t-35 -138.5q-8 -18 -65 -49q4 74 -12.5 89.5t-49.5 15.5t-51 -30t-26.5 -69.5t-10.5 -84t-2 -70.5 zM89 1122q-1 -22 1 -45h37q50 0 70 10q10 4 18 16.5t8 53.5q0 29 -11 40t-73 11q-23 0 -31 -7t-14 -34q-4 -23 -5 -45zM369 608q0 72 13 136.5t42 154.5q41 -23 71.5 -71t52 -104t33 -112.5t11.5 -97.5q-29 0 -45.5 -1t-32.5 -1h-33q-14 0 -30 4q-29 4 -55.5 25.5 t-26.5 66.5zM632 1122q-1 -22 1 -45h37q47 0 67 10q12 4 20.5 16.5t8.5 53.5q0 29 -11.5 40t-72.5 11q-23 0 -31 -7t-14 -34q-4 -23 -5 -45z" />
<glyph unicode="&#xf6;" horiz-adv-x="1107" d="M84 537q0 -10 1 -38t2 -59.5t2 -62.5t1 -47q45 -90 96.5 -153.5t112.5 -103.5t137 -57.5t172 -17.5q113 0 192 56.5t127 146.5t69.5 202.5t21.5 225.5q0 125 -28.5 232.5t-87 187t-148.5 126t-213 46.5q-133 0 -221.5 -58.5t-140.5 -154t-73.5 -219t-21.5 -252.5z M205 537q0 78 13 172t52 175t111.5 136t189.5 55q111 0 172.5 -54t90 -130t34.5 -160t6 -141q0 -10 -1 -39t-2 -62.5t-2 -65.5t-1 -50q-31 -53 -58.5 -95t-63 -73t-83 -47.5t-114.5 -16.5q-80 0 -144.5 36t-108.5 92.5t-67.5 127t-23.5 140.5zM488.5 719.5 q-1.5 -23.5 0.5 -45.5h35q52 0 72 10q12 2 21.5 15.5t9.5 56.5q0 29 -12.5 40t-75.5 11q-23 0 -31 -7t-14 -34q-4 -23 -5.5 -46.5zM495 412.5q-1 -23.5 1 -45.5h36q47 0 72 10q12 2 20.5 15.5t8.5 56.5q0 14 -2 24t-10.5 16.5t-25.5 9.5t-48 3q-25 0 -33 -7.5t-14 -35.5 q-4 -23 -5 -46.5z" />
<glyph unicode="&#xf7;" horiz-adv-x="413" />
<glyph unicode="&#xfc;" horiz-adv-x="1280" d="M55 975q0 -23 9.5 -34t25.5 -15q10 -4 21 -4q12 0 26 -2q12 0 28.5 -1t45.5 -4v-153q0 -76 4 -152q4 -78 13.5 -152.5t29.5 -142.5q18 -68 48 -124t76 -98t109.5 -65.5t149.5 -23.5q63 0 139 27.5t140.5 75t107.5 112t43 135.5v539q29 4 57 4q31 0 60 4q49 8 49 39 t-51 57q-27 12 -52.5 20.5t-52.5 14.5v76q27 6 54.5 10t54.5 12q49 14 49 37q0 14 -4 35t-27 21h-434q-4 0 -2 -6.5t2 -12.5q-4 -12 -3 -21t1 -12q0 -4 -9 -10t-5 -6l213 -47v-92h-246q0 -18 2 -41t4 -33q0 -4 4 -4l236 -47v-494q0 -53 -35 -106t-86 -98.5t-109.5 -73 t-105.5 -27.5q-53 0 -108.5 26.5t-101.5 70.5t-74.5 98.5t-28.5 109.5v531h114q0 18 -2 39.5t-4 33.5q0 4 -8 5q-10 4 -44 12t-56 12q0 16 -1.5 26.5t-1.5 14.5q0 49 41 66q12 4 30 5t34 3q20 2 40.5 13t24.5 65h-409q-4 0 -2 -4.5t0 -8.5q-2 -12 -1 -21t1 -13q0 -33 33 -46 q18 -8 39 -10q10 -4 24 -6t37 -6v-78q-29 -2 -45 -3t-29 -1q-31 0 -47 -8q-16 -4 -25.5 -13.5t-9.5 -29.5zM587 684.5q-1 -22.5 1 -45.5h37q49 0 69 10q10 2 18.5 14.5t8.5 55.5q0 29 -11.5 40t-72.5 11q-23 0 -30 -7t-15 -36q-4 -20 -5 -42.5zM595 419.5q-1 -22.5 1 -44.5 h37q49 0 69 10q10 4 18.5 16.5t8.5 53.5q0 29 -11 40t-73 11q-23 0 -30 -7t-13 -34q-6 -23 -7 -45.5z" />
<glyph unicode="&#x2000;" horiz-adv-x="925" />
<glyph unicode="&#x2001;" horiz-adv-x="1851" />
<glyph unicode="&#x2002;" horiz-adv-x="925" />
<glyph unicode="&#x2003;" horiz-adv-x="1851" />
<glyph unicode="&#x2004;" horiz-adv-x="617" />
<glyph unicode="&#x2005;" horiz-adv-x="462" />
<glyph unicode="&#x2006;" horiz-adv-x="308" />
<glyph unicode="&#x2007;" horiz-adv-x="308" />
<glyph unicode="&#x2008;" horiz-adv-x="231" />
<glyph unicode="&#x2009;" horiz-adv-x="370" />
<glyph unicode="&#x200a;" horiz-adv-x="102" />
<glyph unicode="&#x2010;" d="M201 1006l65 6q86 12 226 12q269 0 423 -18l-18 -107q-145 18 -408 19q-131 0 -272 -19z" />
<glyph unicode="&#x2011;" d="M201 1006l65 6q86 12 226 12q269 0 423 -18l-18 -107q-145 18 -408 19q-131 0 -272 -19z" />
<glyph unicode="&#x2012;" d="M201 1006l65 6q86 12 226 12q269 0 423 -18l-18 -107q-145 18 -408 19q-131 0 -272 -19z" />
<glyph unicode="&#x2013;" horiz-adv-x="1413" d="M201 1006l93 6q124 12 324 12q386 0 607 -18l-26 -107q-208 18 -585 19q-188 0 -390 -19z" />
<glyph unicode="&#x2014;" horiz-adv-x="2437" d="M201 1006l186 6q247 12 649 12q771 0 1213 -18l-52 -107q-416 18 -1170 19q-376 0 -780 -19z" />
<glyph unicode="&#x202f;" horiz-adv-x="370" />
<glyph unicode="&#x205f;" horiz-adv-x="462" />
<glyph unicode="&#x25fc;" horiz-adv-x="1228" d="M0 0v1229h1229v-1229h-1229z" />
</font>
</defs>
</svg>
