<?xml version="1.0" standalone="no"?>
<!DOCTYPE svg PUBLIC "-//W3C//DTD SVG 1.1//EN" "http://www.w3.org/Graphics/SVG/1.1/DTD/svg11.dtd" >
<svg xmlns="http://www.w3.org/2000/svg">
<metadata></metadata>
<defs>
<font id="vrindabold" horiz-adv-x="1026" >
<font-face units-per-em="2048" ascent="1638" descent="-410" />
<missing-glyph horiz-adv-x="640" />
<glyph horiz-adv-x="0" />
<glyph unicode="&#xd;" horiz-adv-x="620" />
<glyph unicode=" "  horiz-adv-x="640" />
<glyph unicode="&#x09;" horiz-adv-x="640" />
<glyph unicode="&#xa0;" horiz-adv-x="640" />
<glyph unicode="!" horiz-adv-x="512" d="M130 0v246h251v-246h-251zM148 989v331h216v-331l-30 -686h-156z" />
<glyph unicode="&#x22;" horiz-adv-x="718" d="M57 1083v237h249v-236l-42 -271h-160zM411 1083v237h250v-236l-42 -271h-161z" />
<glyph unicode="#" d="M20 348v200h171l47 238h-150v199h190l68 335h207l-68 -335h183l69 335h205l-68 -335h132v-199h-171l-47 -238h149v-200h-190l-68 -348h-207l68 348h-182l-69 -348h-207l68 348h-130zM398 548h181l49 238h-183z" />
<glyph unicode="$" d="M70 420h241q8 -92 39.5 -147.5t84.5 -78.5v382q-336 80 -336 358q0 78 24 141.5t67.5 111t105.5 78t139 42.5v131h169v-130q292 -42 328 -374h-245q-9 131 -83 163v-336q102 -23 166.5 -54.5t101.5 -74.5q83 -94 83 -244q0 -74 -23.5 -142t-68 -122.5t-110 -91.5 t-149.5 -48v-131h-169v131q-89 12 -155 45.5t-110 88t-68.5 130t-31.5 172.5zM340 946q0 -60 25 -92.5t70 -51.5v297q-95 -38 -95 -153zM604 192q110 38 110 186q0 31 -4.5 55t-16.5 42.5t-33.5 32t-55.5 25.5v-341z" />
<glyph unicode="%" horiz-adv-x="1640" d="M60 982q0 85 23.5 151.5t65.5 113t99.5 71t126.5 24.5q68 0 126 -24.5t100.5 -71t66.5 -113.5t24 -151t-23.5 -150.5t-65.5 -113t-100.5 -71.5t-127.5 -25q-70 0 -128 24.5t-99.5 71t-64.5 113.5t-23 151zM272 982q0 -182 103 -182q104 0 104 182t-104 182 q-103 0 -103 -182zM360 0l721 1320h210l-719 -1320h-212zM949 339q0 84 23.5 150.5t65 113t99.5 71.5t127 25t127 -25.5t100 -72t65.5 -113.5t23.5 -149q0 -84 -23.5 -151t-65.5 -114t-100 -72t-127 -25q-70 0 -128 25t-99.5 71.5t-64.5 113.5t-23 152zM1161 339 q0 -184 103 -184q104 0 104 184q0 181 -104 181q-103 0 -103 -181z" />
<glyph unicode="&#x26;" horiz-adv-x="1230" d="M82 382q0 144 78 241q33 39 79 77t107 76q-57 79 -84 141t-27 115q0 66 25.5 122.5t71.5 98.5t108 65.5t136 23.5q69 0 127.5 -23t102 -63.5t68 -94.5t24.5 -116q0 -49 -13.5 -91t-40.5 -80.5t-68 -74t-97 -70.5q25 -32 44.5 -56t37.5 -46.5l38 -47.5l48 -60 q8 34 13 73.5t7 86.5h242q0 -56 -15 -164.5t-76 -236.5l130 -166l-181 -153l-105 134q-146 -116 -356 -116q-92 0 -169.5 33t-134 88.5t-88.5 129t-32 154.5zM324 393q0 -38 13.5 -74.5t38 -65.5t58.5 -46.5t74 -17.5q131 0 219 76l-252 347q-31 -19 -54.5 -34.5 t-45.5 -37.5t-36.5 -52t-14.5 -95zM467 1048q0 -26 17.5 -61t48.5 -76l19 -23q59 35 86.5 70t27.5 83q0 22 -8 41t-21.5 32.5t-31.5 21t-37 7.5q-42 0 -71.5 -26t-29.5 -69z" />
<glyph unicode="'" horiz-adv-x="352" d="M51 1083v237h250v-236l-42 -271h-160z" />
<glyph unicode="(" horiz-adv-x="614" d="M51 487q0 106 20 215t59.5 217t98.5 214.5t137 208.5h196q-139 -223 -208 -441.5t-69 -413.5q0 -98 17.5 -205t52 -218.5t86.5 -226t121 -225.5h-196q-79 102 -138 211.5t-98.5 221.5t-59 223.5t-19.5 218.5z" />
<glyph unicode=")" horiz-adv-x="614" d="M51 -388q69 111 121 225.5t86.5 226t52 218.5t17.5 205q0 195 -69 413.5t-208 441.5h196q78 -102 137 -208.5t98.5 -214.5t59.5 -217t20 -215q0 -107 -19.5 -218.5t-59 -223.5t-98.5 -221.5t-138 -211.5h-196z" />
<glyph unicode="*" horiz-adv-x="936" d="M128 408v157h166l-127 127l95 94l124 -124v164h161v-164l126 124l93 -94l-126 -127h167v-157h-167l126 -126l-93 -95l-126 125v-162h-161v162l-124 -125l-95 95l127 126h-166z" />
<glyph unicode="+" horiz-adv-x="1077" d="M97 529v216h332v332h219v-332h332v-216h-332v-332h-219v332h-332z" />
<glyph unicode="," horiz-adv-x="560" d="M108 140q0 31 11 59t31.5 49t49.5 33t65 12q62 0 103 -28t65 -71t34 -94.5t10 -97.5q0 -65 -19.5 -118t-54 -94.5t-81 -73t-99.5 -52.5l-50 109q86 37 124 85t38 120v12t-1 11q-17 -7 -32.5 -10.5t-41.5 -3.5q-36 0 -64 12t-47.5 32.5t-30 48.5t-10.5 60z" />
<glyph unicode="-" horiz-adv-x="1249" d="M182 512v199h835v-199h-835z" />
<glyph unicode="." horiz-adv-x="560" d="M127 140q0 31 12 59t33 49t48.5 33t59.5 12q31 0 59 -12t49 -33t33 -49t12 -59q0 -32 -12 -59.5t-33 -48.5t-49 -33t-59 -12q-32 0 -59.5 12t-48.5 33t-33 48.5t-12 59.5z" />
<glyph unicode="/" horiz-adv-x="512" d="M-32 0l382 1320h203l-382 -1320h-203z" />
<glyph unicode="0" d="M77 652q0 167 27 295.5t81.5 216.5t136 133t190.5 45t190.5 -45t136 -133t82 -216.5t27.5 -295.5q0 -332 -109.5 -503.5t-326.5 -171.5q-218 0 -326.5 171.5t-108.5 503.5zM318 652q0 -132 12.5 -223t37.5 -147t61 -81t83 -25q48 0 84 25t60.5 81.5t37 147t12.5 222.5 t-12.5 225t-37 152t-60.5 86.5t-84 27.5q-47 0 -83 -27t-61 -86t-37.5 -152t-12.5 -226z" />
<glyph unicode="1" d="M200 901v199q292 0 334 220h194v-1320h-237v939q-105 -38 -291 -38z" />
<glyph unicode="2" d="M70 0q0 171 71 278q39 57 104 125t161 146q85 69 143.5 123t94 101.5t51 93.5t15.5 99q0 84 -46.5 130.5t-134.5 46.5q-36 0 -69 -14.5t-58.5 -43.5t-42.5 -71.5t-21 -99.5h-242q8 97 42 176.5t90.5 135t133.5 86t170 30.5q100 0 178.5 -29t131.5 -80t81 -120t28 -150 q0 -75 -20 -138t-60 -120q-38 -52 -113 -130t-184 -169q-32 -27 -82 -72.5t-98 -112.5h560v-221h-884z" />
<glyph unicode="3" d="M73 396h245q0 -45 12.5 -85t37 -70t60.5 -47.5t83 -17.5q45 0 82 16t63 44.5t40 68t14 86.5q0 48 -14.5 88t-43 68.5t-70 44.5t-96.5 16h-100v199h76q94 0 140.5 49.5t46.5 134.5q0 75 -39 113.5t-111 38.5q-149 0 -170 -192h-242q11 96 46 169t89 122.5t124 74.5t150 25 q90 0 162.5 -26t124 -73t79.5 -111.5t28 -142.5q0 -35 -7.5 -71.5t-22.5 -71t-37.5 -65t-52.5 -53.5q44 -23 78 -58.5t57 -79.5t35 -94t12 -102q0 -92 -34 -169t-93 -132t-140 -85.5t-174 -30.5q-94 0 -172 30t-135.5 84.5t-91.5 132t-39 172.5z" />
<glyph unicode="4" d="M53 290v187l570 853h185v-826h164v-214h-164v-290h-236v290h-519zM312 504h260v410z" />
<glyph unicode="5" d="M69 393h242q6 -55 23 -96t42.5 -68t57.5 -40t68 -13q48 0 87 20t67 55.5t43.5 82.5t15.5 101q0 66 -16 116t-44.5 83.5t-68 51t-87.5 17.5q-111 0 -201 -101h-185l58 718h728v-220h-520l-17 -223q74 35 178 35q82 0 157.5 -30t133.5 -88.5t92 -145t34 -199.5 q0 -100 -32.5 -186.5t-91.5 -150t-143.5 -99.5t-187.5 -36q-84 0 -158 25.5t-131.5 77.5t-95.5 130t-48 183z" />
<glyph unicode="6" d="M75 619q0 176 29.5 311t88 226.5t146.5 138.5t205 47q76 0 141.5 -24t117 -71t86 -118.5t48.5 -165.5h-244q-21 180 -157 180q-41 0 -75.5 -24t-61.5 -68t-47 -107t-30 -141q52 37 108.5 60t119.5 23q92 0 166 -36t126.5 -98.5t80.5 -145t28 -175.5t-30 -176t-85 -144.5 t-132.5 -97.5t-172.5 -36q-109 0 -194 44t-143 126.5t-88.5 201.5t-30.5 270zM311 571q3 -92 19.5 -165t44 -124t66.5 -78.5t87 -27.5q42 0 75.5 19t57 52.5t36 78t12.5 95.5q0 52 -13 98.5t-37.5 82t-59 56t-77.5 20.5q-104 0 -211 -107z" />
<glyph unicode="7" d="M79 1100v220h867v-154l-455 -1166h-260l452 1100h-604z" />
<glyph unicode="8" d="M72 359q0 49 13 97t40 92.5t67 83.5t94 69q-81 60 -124 138.5t-43 163.5q0 74 28.5 136.5t80 107.5t124 70t160.5 25t160 -25.5t124 -70.5t80.5 -107t28.5 -136q0 -86 -41.5 -164t-125.5 -138q53 -30 93.5 -69t67.5 -83.5t40.5 -92.5t13.5 -97q0 -86 -32 -156t-90 -120.5 t-139.5 -78t-179.5 -27.5t-179 27.5t-139 77.5t-90 120.5t-32 156.5zM313 359q0 -87 54.5 -135t144.5 -48q44 0 80.5 12.5t63 36t41 57.5t14.5 77q0 66 -48.5 123t-150.5 104q-31 -15 -66 -36.5t-64.5 -50t-49 -64t-19.5 -76.5zM361 1003q0 -116 151 -189q152 74 152 189 q0 67 -40 103.5t-112 36.5q-71 0 -111 -36.5t-40 -103.5z" />
<glyph unicode="9" d="M75 883q0 93 30 176t85 146t132.5 100t172.5 37q107 0 192 -42t143.5 -122.5t89.5 -198.5t31 -270q0 -176 -29.5 -312.5t-88 -229.5t-147 -141.5t-205.5 -48.5q-76 0 -142 24t-117 71t-85 118t-47 166h243q19 -180 158 -180q41 0 75 25t60.5 71t45.5 110.5t30 143.5 q-103 -74 -226 -74q-84 0 -157 32t-127 89.5t-85.5 136.5t-31.5 173zM317 892q0 -53 13 -97t37.5 -76t59 -50t76.5 -18q106 0 210 107q-3 92 -19 163.5t-44 121t-66 75t-85 25.5q-41 0 -74.5 -19.5t-57.5 -53.5t-37 -80t-13 -98z" />
<glyph unicode=":" horiz-adv-x="560" d="M127 140q0 31 12 59t33 49t48.5 33t59.5 12q31 0 59 -12t49 -33t33 -49t12 -59q0 -32 -12 -59.5t-33 -48.5t-49 -33t-59 -12q-32 0 -59.5 12t-48.5 33t-33 48.5t-12 59.5zM127 732q0 31 12 59t33 49t48.5 33t59.5 12q31 0 59 -12t49 -33t33 -49t12 -59q0 -32 -12 -59.5 t-33 -48.5t-49 -33t-59 -12q-32 0 -59.5 12t-48.5 33t-33 48.5t-12 59.5z" />
<glyph unicode=";" horiz-adv-x="560" d="M127 732q0 31 12 59t33 49t48.5 33t59.5 12q31 0 59 -12t49 -33t33 -49t12 -59q0 -32 -12 -59.5t-33 -48.5t-49 -33t-59 -12q-32 0 -59.5 12t-48.5 33t-33 48.5t-12 59.5zM128 140q0 31 11 59t31.5 49t49.5 33t65 12q62 0 103 -28t65 -71t34 -94.5t10 -97.5 q0 -65 -19.5 -118t-54 -94.5t-81 -73t-99.5 -52.5l-50 109q86 37 124 85t38 120v12t-1 11q-17 -7 -32.5 -10.5t-41.5 -3.5q-36 0 -64 12t-47.5 32.5t-30 48.5t-10.5 60z" />
<glyph unicode="&#x3c;" horiz-adv-x="1077" d="M97 542v190l883 376v-234l-575 -237l575 -238v-232z" />
<glyph unicode="=" horiz-adv-x="1077" d="M97 345v215h883v-215h-883zM97 713v217h883v-217h-883z" />
<glyph unicode="&#x3e;" horiz-adv-x="1077" d="M97 167v232l576 238l-576 237v234l883 -376v-190z" />
<glyph unicode="?" d="M79 914q9 98 44.5 177.5t93 135t134 85.5t166.5 30q96 0 175 -27.5t135.5 -76.5t88 -117t31.5 -148q0 -54 -14 -101.5t-39 -90t-60 -80.5t-77 -73q-47 -39 -75.5 -69t-38.5 -52q-20 -43 -20 -189h-225q0 200 39 281q38 78 142 165q45 37 70 65.5t38 51t16 42t3 40.5 q0 39 -13.5 72t-38.5 57t-59 37.5t-76 13.5q-164 0 -200 -229h-240zM391 0v246h249v-246h-249z" />
<glyph unicode="@" horiz-adv-x="1872" d="M122 426q0 95 16.5 187t49 176.5t79.5 161t108 139.5q243 252 616 252q105 0 201.5 -22t181 -64t154 -102.5t119 -137.5t76.5 -169.5t27 -197.5q0 -149 -42.5 -269t-117 -205t-174.5 -131t-215 -46q-62 0 -107.5 26t-69.5 69q-98 -95 -237 -95q-74 0 -136 26.5 t-107.5 75.5t-71 119t-25.5 157q0 234 144 414q73 92 151.5 134t167.5 42q149 0 238 -67l9 43h231l-133 -595q-10 -42 -15 -73t-5 -52q0 -25 22 -25q43 0 98.5 33t98 92.5t67.5 143.5t25 186q0 105 -41.5 196t-116 158t-176.5 105.5t-223 38.5q-143 0 -260.5 -49.5 t-209.5 -150.5q-46 -50 -82.5 -111t-61.5 -128.5t-38.5 -139.5t-13.5 -145q0 -141 47.5 -250.5t136 -185t215.5 -115t285 -39.5q193 0 364 77l103 -169q-227 -100 -465 -100q-203 0 -366.5 53.5t-279.5 154.5t-178.5 246t-62.5 328zM680 381q0 -184 138 -184q36 0 71 17 t65.5 48.5t54.5 75.5t37 97l54 257q-59 75 -178 75q-48 0 -92 -35.5t-77 -91t-53 -124.5t-20 -135z" />
<glyph unicode="A" horiz-adv-x="1290" d="M5 0l508 1321h234l538 -1321h-275l-144 378h-462l-138 -378h-261zM478 587h311l-160 419z" />
<glyph unicode="B" horiz-adv-x="1272" d="M160 0v1320h483q106 0 192.5 -24.5t147.5 -70.5t94.5 -112t33.5 -149q0 -84 -31 -146t-96 -110q48 -23 83 -55.5t58.5 -72.5t35 -85.5t11.5 -93.5q0 -198 -126.5 -299.5t-378.5 -101.5h-507zM406 227h260q253 0 253 174q0 45 -13 78t-45 54.5t-85 32t-133 10.5h-237v-349 zM406 800h236q115 0 169.5 34.5t54.5 115.5q0 36 -12.5 63t-41 45t-74 26.5t-112.5 8.5h-220v-293z" />
<glyph unicode="C" horiz-adv-x="1365" d="M100 661q0 156 44 282t124.5 214.5t195 136.5t255.5 48q102 0 193 -31t163 -88t121 -138t66 -180h-251q-10 51 -36 91t-64 67.5t-87 42t-104 14.5q-85 0 -153 -30t-116 -88t-74 -143.5t-26 -197.5q0 -111 26 -197t74 -145.5t115.5 -90t150.5 -30.5q119 0 197 61.5 t98 178.5h253q-14 -111 -60.5 -196.5t-118 -144t-165 -88.5t-202.5 -30q-143 0 -257.5 48t-194.5 137t-123.5 215t-43.5 282z" />
<glyph unicode="D" horiz-adv-x="1370" d="M160 0v1320h435q675 0 675 -653q0 -667 -675 -667h-435zM407 227h187q123 0 205 30t130.5 86.5t68.5 138t20 185.5q0 100 -19.5 179t-68 134t-130.5 84t-206 29h-187v-866z" />
<glyph unicode="E" horiz-adv-x="1269" d="M160 0v1320h980v-227h-734v-298h687v-225h-687v-343h763v-227h-1009z" />
<glyph unicode="F" horiz-adv-x="1181" d="M160 0v1320h921v-227h-675v-304h587v-226h-587v-563h-246z" />
<glyph unicode="G" horiz-adv-x="1481" d="M100 661q0 156 46.5 282t130.5 214t201 135.5t258 47.5q113 0 211 -30.5t174.5 -87t126.5 -136.5t67 -179h-254q-23 102 -107 157t-216 55q-86 0 -157 -30t-122 -88.5t-79 -143.5t-28 -196q0 -109 28.5 -195t79.5 -145.5t122 -91t157 -31.5q124 0 211.5 36t147.5 113v138 h-327v228h570v-713h-189l-32 95q-69 -57 -163 -86.5t-216 -29.5q-144 0 -262 49t-202 138.5t-130.5 215t-46.5 279.5z" />
<glyph unicode="H" horiz-adv-x="1378" d="M160 0v1320h246v-508h564v508h248v-1320h-248v585h-564v-585h-246z" />
<glyph unicode="I" horiz-adv-x="565" d="M160 0v1320h245v-1320h-245z" />
<glyph unicode="J" horiz-adv-x="1002" d="M80 360v73h245q0 -229 128 -229q34 0 60.5 8.5t44.5 33.5t27.5 68.5t9.5 114.5v891h247v-883q0 -125 -24 -212t-73 -142t-122 -79.5t-170 -24.5q-86 0 -154.5 27t-117.5 76.5t-75 120t-26 157.5z" />
<glyph unicode="K" horiz-adv-x="1312" d="M160 0v1320h247v-555l549 555h336l-563 -551l568 -769h-316l-427 599l-147 -145v-454h-247z" />
<glyph unicode="L" horiz-adv-x="1092" d="M160 0v1320h246v-1093h606v-227h-852z" />
<glyph unicode="M" horiz-adv-x="1572" d="M160 0v1320h320l306 -941l307 941h319v-1320h-239v846l-285 -846h-207l-282 846v-846h-239z" />
<glyph unicode="N" horiz-adv-x="1378" d="M160 0v1320h233l586 -884v884h239v-1320h-232l-589 883v-883h-237z" />
<glyph unicode="O" horiz-adv-x="1470" d="M100 661q0 154 47.5 280t132.5 215t201 137.5t254 48.5t254.5 -49t201 -138t132 -215t47.5 -279q0 -151 -47 -276.5t-131 -215.5t-200.5 -140t-256.5 -50t-256.5 49.5t-200.5 139.5t-131 215.5t-47 277.5zM351 661q0 -109 28.5 -195t79.5 -145.5t121.5 -91t153.5 -31.5 q84 0 155 31.5t122 91t79.5 145.5t28.5 195q0 110 -29 195.5t-80 144.5t-121 89.5t-152 30.5q-84 0 -154.5 -31t-122 -90.5t-80.5 -145t-29 -193.5z" />
<glyph unicode="P" horiz-adv-x="1275" d="M160 0v1320h506q102 0 196 -17.5t165.5 -63t114.5 -123t43 -197.5q0 -211 -128 -316.5t-380 -105.5h-271v-497h-246zM406 723h276q68 0 115.5 12.5t77.5 37t44 60t14 82.5q0 57 -20.5 91.5t-56 54t-82 26t-97.5 6.5h-271v-370z" />
<glyph unicode="Q" horiz-adv-x="1470" d="M100 661q0 154 48 280t132.5 215t201 137.5t254.5 48.5t254.5 -49t201 -138t132 -215t47.5 -279q0 -137 -36.5 -249.5t-108.5 -204.5l182 -145l-149 -178l-214 170q-71 -39 -146.5 -57t-162.5 -18q-140 0 -257 49.5t-201 139.5t-131 215.5t-47 277.5zM352 661 q0 -109 28.5 -195t79.5 -145.5t121 -91t154 -31.5q27 0 54.5 4t52.5 11l-101 79l149 179l148 -119q81 120 81 309q0 110 -28.5 195.5t-79.5 144.5t-121 89.5t-152 30.5q-84 0 -154.5 -31t-122 -90.5t-80.5 -145t-29 -193.5z" />
<glyph unicode="R" horiz-adv-x="1386" d="M160 0v1320h592q53 0 101 -2.5t92 -11.5t84 -27t77 -49q65 -55 97.5 -134t32.5 -162q0 -121 -58.5 -207.5t-160.5 -132.5q43 -32 77 -81.5t60 -121.5l142 -391h-266l-126 359q-13 37 -36 68.5t-53 54.5t-66.5 36t-77.5 13h-264v-531h-247zM407 758h328q66 0 113 9t77 30 t44 54.5t14 82.5q0 88 -54.5 129t-168.5 41h-353v-346z" />
<glyph unicode="S" horiz-adv-x="1272" d="M100 441h241q12 -61 41.5 -105.5t72 -74t95.5 -43.5t112 -14q60 0 109.5 12t85 34.5t54.5 55t19 72.5t-18.5 69t-60.5 51t-110 41t-167 40q-113 24 -195 57.5t-134.5 79t-77.5 105.5t-25 138q0 83 35 153.5t98.5 121.5t152.5 79.5t197 28.5t198 -28.5t157.5 -81.5 t108.5 -130.5t50 -174.5h-240q-42 188 -267 188q-120 0 -183.5 -40.5t-63.5 -110.5q0 -29 14 -50.5t44.5 -39t78 -32.5t115.5 -29q59 -13 121.5 -27.5t122 -35.5t112.5 -50.5t93 -72.5t63 -101t23 -135q0 -91 -37.5 -166.5t-104.5 -130t-158.5 -85t-200.5 -30.5 q-136 0 -239 33.5t-173.5 94.5t-110 146t-48.5 188z" />
<glyph unicode="T" horiz-adv-x="1187" d="M60 1093v227h1067v-227h-411v-1093h-247v1093h-409z" />
<glyph unicode="U" horiz-adv-x="1378" d="M160 564v756h246v-754q0 -113 19 -183.5t55 -110t88.5 -54t120.5 -14.5q69 0 121.5 14.5t88 54.5t53.5 110.5t18 182.5v754h248v-756q0 -138 -23.5 -246.5t-83.5 -183.5t-162.5 -115t-259.5 -40q-125 0 -212.5 25t-146.5 67.5t-93 100t-51 122.5t-21.5 134t-4.5 136z" />
<glyph unicode="V" horiz-adv-x="1304" d="M25 1320h264l362 -985l365 985h263l-514 -1320h-227z" />
<glyph unicode="W" horiz-adv-x="1788" d="M40 1320h259l219 -888l245 888h262l244 -887l220 887h259l-367 -1320h-220l-268 967l-267 -967h-220z" />
<glyph unicode="X" horiz-adv-x="1349" d="M25 0l506 694l-457 626h301l299 -427l301 427h301l-458 -626l506 -694h-302l-346 496l-346 -496h-305z" />
<glyph unicode="Y" horiz-adv-x="1342" d="M25 1320h298l349 -534l347 534h298l-522 -765v-555h-247v555z" />
<glyph unicode="Z" horiz-adv-x="1184" d="M60 0v208l727 885h-657v227h971v-209l-727 -884h750v-227h-1064z" />
<glyph unicode="[" horiz-adv-x="512" d="M88 -338v1658h409v-200h-173v-1257h173v-201h-409z" />
<glyph unicode="\" horiz-adv-x="512" d="M-51 1320h204l381 -1320h-203z" />
<glyph unicode="]" horiz-adv-x="512" d="M15 -137h173v1257h-173v200h409v-1658h-409v201z" />
<glyph unicode="^" horiz-adv-x="866" d="M32 734l319 586h167l319 -586h-246l-157 310l-157 -310h-245z" />
<glyph unicode="_" horiz-adv-x="1018" d="M-9 -105h1035v-161h-1035v161z" />
<glyph unicode="`" horiz-adv-x="676" d="M68 1366h284l138 -274h-206z" />
<glyph unicode="a" horiz-adv-x="1058" d="M80 271q0 347 571 347h38q-1 39 -6.5 68.5t-23.5 50t-52 31t-91 10.5q-71 0 -112.5 -22t-56.5 -83h-241q42 305 420 305q92 0 165.5 -16.5t125 -58.5t79 -114t27.5 -183v-606h-234v50q-58 -35 -125.5 -54t-144.5 -19q-72 0 -134 21.5t-107.5 60.5t-71.5 93t-26 119z M320 279q0 -48 39 -75t105 -27t127 26.5t98 77.5v144h-69q-300 0 -300 -146z" />
<glyph unicode="b" horiz-adv-x="1064" d="M135 0v1320h235v-413q94 71 212 71q96 0 171 -35.5t126.5 -100t78 -155.5t26.5 -202q0 -115 -31.5 -209t-87 -160.5t-130.5 -102.5t-163 -36q-60 0 -108.5 12.5t-93.5 39.5v-29h-235zM370 262q44 -42 92 -63.5t101 -21.5q82 0 130.5 78t48.5 230q0 146 -46 219.5 t-127 73.5q-103 0 -199 -126v-390z" />
<glyph unicode="c" horiz-adv-x="982" d="M80 478q0 118 32.5 211t92 157t143.5 98t186 34q76 0 141.5 -21t117.5 -62t87.5 -103.5t50.5 -144.5h-245q-9 69 -51 100t-101 31q-47 0 -86 -19t-67 -56.5t-43.5 -93.5t-15.5 -131t15.5 -131t43.5 -94t67 -57t86 -19q27 0 52.5 8.5t46 26t34.5 43t19 59.5h246 q-15 -84 -51 -147t-88 -105t-118 -63.5t-141 -21.5q-101 0 -184.5 33.5t-143.5 97t-93 157t-33 213.5z" />
<glyph unicode="d" horiz-adv-x="1065" d="M80 472q0 118 31.5 211.5t87 159t131 100.5t162.5 35q57 0 108 -13t96 -38v393h234v-1320h-234v50q-48 -35 -100.5 -54t-111.5 -19q-98 0 -173.5 35.5t-126.5 100.5t-77.5 156.5t-26.5 202.5zM322 472q0 -146 46 -219.5t128 -73.5q105 0 200 125v389q-91 85 -194 85 q-82 0 -131 -76t-49 -230z" />
<glyph unicode="e" horiz-adv-x="1066" d="M80 478q0 116 33 208.5t93 157.5t143 99.5t184 34.5q104 0 187.5 -34t142.5 -98t91 -157t32 -211v-75h-658q18 -113 77.5 -169.5t144.5 -56.5q27 0 54.5 8t51 23.5t41 38t25.5 52.5h247q-18 -78 -56.5 -138t-93 -101t-123 -62t-146.5 -21q-105 0 -191.5 34t-148.5 98.5 t-96 157.5t-34 211zM333 602h399q-23 88 -75 132t-124 44q-71 0 -124 -44t-76 -132z" />
<glyph unicode="f" horiz-adv-x="581" d="M30 757v198h130v71q0 319 285 319q42 0 81.5 -6t74.5 -16v-210q-48 8 -78.5 11.5t-53.5 3.5q-39 0 -56 -23.5t-17 -80.5v-69h165v-198h-165v-757h-236v757h-130z" />
<glyph unicode="g" horiz-adv-x="1065" d="M80 472q0 118 31.5 211.5t87 159t131 100.5t162.5 35q57 0 108 -13t96 -38v28h234v-880q0 -463 -422 -463q-86 0 -155.5 20.5t-121 59t-82.5 94t-38 125.5h245q21 -99 147 -99q85 0 133.5 57t57.5 178q-48 -35 -99.5 -52.5t-110.5 -17.5q-98 0 -173.5 35.5t-126.5 100.5 t-77.5 156.5t-26.5 202.5zM322 472q0 -146 46 -220.5t128 -74.5q105 0 200 125v391q-91 85 -194 85q-82 0 -131 -76t-49 -230z" />
<glyph unicode="h" horiz-adv-x="1066" d="M135 0v1320h235v-421q102 79 222 79q339 0 339 -365v-613h-238v606q0 89 -28.5 127t-94.5 38q-96 0 -200 -116v-655h-235z" />
<glyph unicode="i" horiz-adv-x="504" d="M135 0v955h234v-955h-234zM135 1074v246h234v-246h-234z" />
<glyph unicode="j" horiz-adv-x="516" d="M-30 -155q53 -17 80.5 -22t45.5 -5q15 0 24.5 6.5t15.5 22.5t8 44t2 71v993h235v-999q0 -107 -18.5 -174.5t-53 -105t-83 -51t-109.5 -13.5q-37 0 -74 3t-73 8v222zM146 1074v246h235v-246h-235z" />
<glyph unicode="k" horiz-adv-x="995" d="M135 0v1320h235v-658l284 293h309l-379 -370l391 -585h-282l-271 423l-52 -51v-372h-235z" />
<glyph unicode="l" horiz-adv-x="504" d="M135 0v1320h234v-1320h-234z" />
<glyph unicode="m" horiz-adv-x="1539" d="M135 0v955h235v-55q49 41 100.5 59.5t108.5 18.5q93 0 156.5 -32t100.5 -96q40 42 73.5 67t63.5 38.5t59 18t60 4.5q312 0 312 -365v-613h-238v606q0 90 -22 127.5t-74 37.5q-88 0 -185 -115v-656h-234v606q0 90 -22.5 127.5t-74.5 37.5q-87 0 -184 -115v-656h-235z" />
<glyph unicode="n" horiz-adv-x="1066" d="M135 0v955h235v-56q102 79 222 79q339 0 339 -365v-613h-238v606q0 89 -28.5 127t-94.5 38q-96 0 -200 -116v-655h-235z" />
<glyph unicode="o" horiz-adv-x="1066" d="M80 478q0 118 32.5 211t91.5 157t143 98t186 34q104 0 187.5 -34t142.5 -98t91 -157t32 -211t-32.5 -211t-91.5 -157.5t-143 -98.5t-186 -34q-101 0 -184.5 33.5t-143 97t-92.5 157t-33 213.5zM322 478q0 -75 15.5 -131t43 -94t66.5 -57t86 -19q46 0 85 19t66.5 57t43 94 t15.5 131t-15.5 131t-43 93.5t-66.5 56.5t-85 19q-47 0 -86 -19t-66.5 -56.5t-43 -93.5t-15.5 -131z" />
<glyph unicode="p" horiz-adv-x="1064" d="M135 -368v1323h235v-48q94 71 212 71q96 0 171 -35.5t126.5 -100t78 -155.5t26.5 -202q0 -115 -31.5 -209t-87 -160.5t-130.5 -102.5t-163 -36q-60 0 -108.5 11.5t-93.5 38.5v-395h-235zM370 260q88 -83 193 -83q82 0 130.5 78t48.5 230q0 146 -46 219.5t-127 73.5 q-103 0 -199 -126v-392z" />
<glyph unicode="q" horiz-adv-x="1065" d="M80 472q0 118 31.5 211.5t87 159t131 100.5t162.5 35q107 0 204 -51v28h234v-1323h-234v416q-95 -71 -212 -71q-98 0 -173.5 35.5t-126.5 100.5t-77.5 156.5t-26.5 202.5zM322 472q0 -146 46 -220.5t128 -74.5q105 0 200 125v391q-91 85 -194 85q-82 0 -131 -76t-49 -230 z" />
<glyph unicode="r" horiz-adv-x="686" d="M135 0v955h235v-55q87 78 191 78q19 0 45.5 -3t64.5 -11v-243q-31 13 -58.5 19.5t-75.5 6.5t-88 -24.5t-79 -75.5v-647h-235z" />
<glyph unicode="s" horiz-adv-x="971" d="M80 301h240q19 -124 176 -124q78 0 118.5 30t40.5 73q0 20 -8.5 33.5t-33.5 25t-69 23.5t-114 30q-86 21 -148 42.5t-102 53t-59.5 78.5t-19.5 119q0 62 26 115.5t74 93t116 62t152 22.5q365 0 391 -291h-235q-24 91 -145 91q-31 0 -57 -5t-45.5 -15t-30.5 -25t-11 -34 q0 -15 5.5 -25.5t27 -20.5t63.5 -21.5t114 -29.5q88 -21 152.5 -44t107.5 -57t64 -83t21 -122q0 -68 -28 -126t-79 -101t-123.5 -67.5t-162.5 -24.5q-376 0 -418 324z" />
<glyph unicode="t" horiz-adv-x="554" d="M30 757v198h108v238h238v-238h142v-198h-142v-478q0 -33 3 -53t8.5 -31t14 -14.5t19.5 -3.5q22 0 52 3.5t66 9.5v-192q-45 -11 -82.5 -16t-69.5 -5q-83 0 -132.5 19.5t-75.5 58t-33.5 96.5t-7.5 135v471h-108z" />
<glyph unicode="u" horiz-adv-x="1068" d="M135 341v614h239v-606q0 -89 29 -127t94 -38q108 0 201 115v656h235v-955h-235v56q-101 -79 -224 -79q-339 0 -339 364z" />
<glyph unicode="v" horiz-adv-x="979" d="M30 955h255l204 -601l204 601h256l-361 -955h-196z" />
<glyph unicode="w" horiz-adv-x="1375" d="M30 955h261l134 -552l162 552h205l164 -552l134 552h255l-286 -955h-210l-159 544l-160 -544h-212z" />
<glyph unicode="x" horiz-adv-x="1017" d="M20 0l350 496l-326 459h292l171 -271l170 271h293l-326 -459l353 -496h-293l-197 308l-196 -308h-291z" />
<glyph unicode="y" horiz-adv-x="969" d="M20 955h255l204 -601l204 601h256l-351 -930q-32 -84 -64.5 -159t-73 -131.5t-93 -89.5t-125.5 -33q-34 0 -69 5t-74 18v224q47 -19 73.5 -22.5t42.5 -3.5q21 0 43 15.5t43 43t40.5 64.5t35.5 81z" />
<glyph unicode="z" horiz-adv-x="978" d="M60 0v185l500 562h-468v208h798v-183l-499 -561h527v-211h-858z" />
<glyph unicode="{" horiz-adv-x="633" d="M37 373v209q41 1 70.5 11t48.5 25.5t29 36.5t13 44q2 17 4 49.5t3 72.5t2 83.5t2.5 84.5t3.5 75t5 54q9 62 33 104.5t61.5 69t87 38.5t110.5 12h66v-205h-46q-60 0 -69 -23q-4 -9 -7 -33.5t-5 -59t-3 -78t-1 -91.5q0 -77 -9 -136.5t-26 -104.5t-43 -77.5t-60 -55.5 q34 -23 59.5 -54t43 -76t26.5 -105t9 -139q0 -48 1 -92t3 -79.5t5 -59.5t7 -33q9 -23 69 -23h46v-205h-66q-50 0 -98 9t-88 33.5t-68 68.5t-38 113q-3 20 -4.5 54.5t-3 75t-2 84t-2 83.5t-3.5 72t-5 50q-3 24 -13 45t-29.5 37t-49 25.5t-69.5 10.5z" />
<glyph unicode="|" horiz-adv-x="487" d="M139 -368v1688h209v-1688h-209z" />
<glyph unicode="}" horiz-adv-x="633" d="M37 -183h46q60 0 69 23q4 9 7 33t5 59.5t3 79.5t1 92q0 79 9 139t26.5 105t43 76t59.5 54q-34 23 -60 55.5t-43 77.5t-26 104.5t-9 136.5q0 48 -1 91.5t-3 78t-5 59t-7 33.5q-9 23 -69 23h-46v205h66q61 0 110.5 -12t87 -38.5t61.5 -69t33 -104.5q3 -20 5 -54t3.5 -75 t2.5 -84.5t2 -83.5t2.5 -72.5t4.5 -49.5q3 -23 13 -44t29 -36.5t48.5 -25.5t70.5 -11v-209q-41 -1 -70 -10.5t-48.5 -25.5t-29.5 -37t-13 -45q-3 -18 -5 -50t-3.5 -72t-2 -83.5t-2 -84t-3 -75t-4.5 -54.5q-10 -69 -38 -113t-68 -68.5t-88 -33.5t-98 -9h-66v205z" />
<glyph unicode="~" horiz-adv-x="1077" d="M79 1026v234q96 109 249 109q100 0 234 -61q69 -31 120 -45.5t85 -14.5q116 0 232 123v-234q-94 -109 -248 -109q-99 0 -235 60q-138 61 -205 61q-117 0 -232 -123z" />
<glyph unicode="&#xa1;" horiz-adv-x="512" d="M130 709v246h251v-246h-251zM148 -34l30 686h156l30 -686v-331h-216v331z" />
<glyph unicode="&#xa2;" d="M77 478q0 117 32 209.5t91 157t142 98.5t184 35l45 181l162 -44l-40 -165q91 -35 152 -110t83 -193h-245q-7 58 -42 91l-136 -560q6 -1 12.5 -1h13.5q27 0 52.5 8.5t46 26t34.5 43t19 59.5h246q-15 -84 -51 -147t-88 -105t-118 -63.5t-141 -21.5q-20 0 -38 1.5t-36 3.5 l-48 -198l-165 37l52 213q-103 58 -161 170t-58 274zM319 478q0 -60 10 -108t28 -84l119 484q-72 -20 -114.5 -92.5t-42.5 -199.5z" />
<glyph unicode="&#xa3;" d="M60 -44v234q48 25 81 51.5t53.5 60t30 77.5t9.5 104q0 17 -1 32.5t-3 32.5h-170v198h114q-14 55 -21.5 101t-7.5 80q0 90 30.5 161.5t86 121t131.5 75.5t168 26q85 0 157.5 -26t126 -76t86.5 -122.5t40 -166.5h-241q-17 192 -172 192q-38 0 -70 -13.5t-55 -37t-35.5 -55 t-12.5 -66.5q0 -40 8 -85.5t28 -108.5h270v-198h-221q1 -11 1.5 -19t0.5 -17q0 -118 -38 -192q-8 -17 -16.5 -30.5t-20.5 -29.5q38 0 89.5 -8.5t73.5 -13t53 -10.5t54.5 -10.5t44.5 -8.5t39 -4q80 0 223 73v-248q-113 -51 -216 -51q-70 0 -196 39q-59 18 -101 27.5t-69 9.5 q-125 0 -332 -99z" />
<glyph unicode="&#xa4;" horiz-adv-x="1111" d="M58 355l130 130q-53 101 -53 203q0 110 53 201l-130 134l159 158l131 -130q94 56 207 56q114 0 207 -55l130 129l159 -157l-128 -133q53 -97 53 -203q0 -80 -11.5 -120t-42.5 -83l130 -130l-160 -162l-130 131q-101 -54 -207 -54q-57 0 -107 13t-98 42l-133 -132z M361 688q0 -40 15.5 -75.5t42 -62t61.5 -42t75 -15.5t75 15.5t61.5 42t42 62t15.5 75.5t-15.5 76t-42.5 62t-62 41.5t-74 15.5t-74 -15.5t-61.5 -41.5t-42.5 -62t-16 -76z" />
<glyph unicode="&#xa5;" horiz-adv-x="1027" d="M-25 1291h269l269 -492l272 492h268l-317 -553h236v-193h-340v-73h340v-192h-340v-280h-232v280h-344v192h344v73h-344v193h237z" />
<glyph unicode="&#xa6;" horiz-adv-x="519" d="M140 378h219v-763h-219v763zM140 627v763h219v-763h-219z" />
<glyph unicode="&#xa7;" d="M68 572q0 37 10.5 76t30.5 75t49.5 68t68.5 55q-41 46 -62 95.5t-21 100.5q0 56 27 110t75 96t115 68t148 26q161 0 263 -83.5t131 -234.5h-243q-14 60 -51.5 89.5t-91.5 29.5q-28 0 -52.5 -7t-43 -19t-29.5 -29t-11 -37q0 -23 8.5 -42.5t34.5 -44.5t74.5 -59t129.5 -86 q55 -36 113.5 -72.5t106.5 -81.5t78.5 -103t30.5 -136q0 -38 -11 -76.5t-32.5 -75t-52.5 -69t-71 -56.5q99 -89 99 -227q0 -67 -27.5 -123.5t-76.5 -98t-116.5 -65t-147.5 -23.5t-148 22t-121.5 64.5t-90 105.5t-52.5 146h243q14 -69 59 -102.5t110 -33.5q31 0 56 8.5 t42 23.5t26 34t9 40q0 23 -15 44.5t-49.5 48.5t-90.5 62.5t-138 86.5q-49 30 -89 62.5t-70.5 63.5t-51.5 58t-33 47q-49 83 -49 179zM297 589q0 -48 43.5 -103.5t146.5 -123.5l159 -105q18 11 32.5 27.5t25 35.5t16.5 38.5t6 35.5q0 45 -47 101.5t-153 127.5l-164 109 q-17 -10 -29 -27t-20 -36.5t-12 -40.5t-4 -39z" />
<glyph unicode="&#xa8;" horiz-adv-x="667" d="M24 1112v248h235v-248h-235zM410 1112v248h233v-248h-233z" />
<glyph unicode="&#xa9;" horiz-adv-x="1358" d="M6 659q0 139 53.5 261.5t146 214t215 145t260.5 53.5q91 0 176 -24.5t159.5 -69t136 -106.5t106 -136.5t69 -160t24.5 -177.5t-24 -178t-68 -161t-105 -136.5t-136 -106t-160.5 -69t-177.5 -24.5q-138 0 -260.5 53t-215 144.5t-146 214.5t-53.5 263zM143 659 q0 -111 42.5 -208.5t115.5 -170.5t171 -115.5t208 -42.5q109 0 206 42.5t170 115.5t115.5 170.5t42.5 208.5q0 108 -42 205.5t-115 170.5t-170 116t-207 43t-208 -42.5t-171 -115.5t-115.5 -170.5t-42.5 -206.5zM321 656q0 90 25.5 161.5t73 121t115.5 76t152 26.5 q62 0 115.5 -17t94.5 -49t69 -78.5t39 -105.5h-153q-26 126 -168 126q-51 0 -90.5 -18.5t-67 -53t-42 -83t-14.5 -109.5q0 -57 15 -104t43 -80.5t66.5 -52.5t86.5 -19q149 0 180 137h153q-66 -269 -332 -269q-82 0 -148.5 28t-114 79t-73 123t-25.5 161z" />
<glyph unicode="&#xaa;" horiz-adv-x="739" d="M30 892q0 54 26.5 98.5t80 76.5t133 49.5t186.5 17.5h17q0 38 -9 60.5t-23.5 34.5t-33.5 16t-39 4q-90 0 -105 -66h-213q16 124 96.5 178t226.5 54q76 0 134 -15t97.5 -48.5t59.5 -87t20 -129.5v-450h-208v58q-40 -32 -86.5 -52t-100.5 -20q-56 0 -103.5 16t-82 45 t-54 69.5t-19.5 90.5zM64 465v152h610v-152h-610zM235 896q0 -21 19.5 -39t59.5 -18q18 0 41 2t46 7t43 14.5t32 24.5v98h-40q-96 0 -148.5 -23.5t-52.5 -65.5z" />
<glyph unicode="&#xab;" horiz-adv-x="1111" d="M104 512l312 448h220l-276 -448l276 -448h-220zM474 512l311 448h221l-275 -448l275 -448h-221z" />
<glyph unicode="&#xac;" horiz-adv-x="1256" d="M175 478v201h905v-445h-203v244h-702z" />
<glyph unicode="&#xad;" horiz-adv-x="1249" d="M182 512v199h835v-199h-835z" />
<glyph unicode="&#xae;" horiz-adv-x="1358" d="M-4 659q0 139 53.5 261.5t146 214t215 145t260.5 53.5q91 0 176 -24.5t159.5 -69t136 -106.5t106 -136.5t69 -160.5t24.5 -177q0 -92 -24 -178t-68 -161t-105 -136.5t-136 -106t-160.5 -69t-177.5 -24.5q-138 0 -260.5 53t-215 144.5t-146 214.5t-53.5 263zM133 659 q0 -111 42.5 -208.5t115.5 -170.5t171 -115.5t208 -42.5q109 0 206 42.5t170 115.5t115.5 170.5t42.5 208.5q0 108 -42 205.5t-115 170.5t-170 116t-207 43t-208 -42.5t-171 -115.5t-115.5 -170.5t-42.5 -206.5zM374 279v737h281q295 0 295 -210q0 -173 -146 -209 q66 -37 101 -121l82 -197h-162l-59 165q-23 63 -65.5 96t-109.5 33h-76v-294h-141zM515 700h129q156 0 156 97q0 94 -159 94h-126v-191z" />
<glyph unicode="&#xaf;" horiz-adv-x="999" d="M-11 1578v166h1018v-166h-1018z" />
<glyph unicode="&#xb0;" horiz-adv-x="800" d="M113 1121q0 59 23 111t62 91t91.5 62t111.5 23q60 0 112 -23.5t90.5 -63t61 -91.5t22.5 -109q0 -59 -23 -111.5t-62 -91.5t-91 -62t-110 -23q-59 0 -111.5 22.5t-91.5 61.5t-62 91.5t-23 112.5zM290 1121q0 -23 8.5 -43.5t23.5 -36.5t35 -25t44 -9q23 0 43 9t35 25 t24 36.5t9 43.5t-9 43.5t-24 35.5t-35 24t-43 9q-48 0 -79.5 -32t-31.5 -80z" />
<glyph unicode="&#xb1;" horiz-adv-x="1167" d="M109 0v225h948v-225h-948zM109 612v226h359v361h230v-361h359v-226h-359v-361h-230v361h-359z" />
<glyph unicode="&#xb2;" horiz-adv-x="666" d="M10 654q14 96 77 172t177 145q57 34 91.5 59t53 44.5t24.5 37.5t6 39q0 80 -103 80q-102 0 -123 -92h-186q48 248 310 248q69 0 124 -17t93.5 -47t58.5 -72t20 -92t-15.5 -88.5t-41 -69t-59 -54.5t-69.5 -45.5t-51 -30t-36 -21.5t-52 -37h327v-159h-626z" />
<glyph unicode="&#xb3;" horiz-adv-x="666" d="M31 844h173q13 -27 44 -40.5t72 -13.5q118 0 118 102q0 36 -25 49.5t-86 13.5h-76v141q49 0 79.5 6t47.5 16.5t23.5 26t6.5 33.5q0 55 -90 55q-16 0 -32 -1.5t-29.5 -6.5t-24 -14.5t-15.5 -25.5h-175q18 108 89.5 155.5t188.5 47.5q65 0 116 -15t86.5 -41t54.5 -62 t19 -78q0 -107 -81 -156q114 -45 114 -171q0 -50 -21 -92t-60.5 -72t-95.5 -47t-126 -17q-129 0 -200 50t-95 157z" />
<glyph unicode="&#xb4;" horiz-adv-x="676" d="M128 1092l138 274h284l-216 -274h-206z" />
<glyph unicode="&#xb5;" horiz-adv-x="1027" d="M99 -338v1293h235v-635q0 -134 135 -134q26 0 48.5 5.5t44 19t44.5 36t50 55.5v653h236v-720q0 -33 20.5 -46t75.5 -13v-186h-121q-136 0 -187 88q-57 -52 -116 -75.5t-128 -23.5q-54 0 -102 16v-333h-235z" />
<glyph unicode="&#xb6;" horiz-adv-x="992" d="M-3 931q0 93 30.5 165.5t86.5 122t136.5 75.5t179.5 26h562v-198h-116v-1460h-200v1460h-146v-1460h-199v898q-82 10 -144.5 42.5t-104.5 81.5t-63.5 112.5t-21.5 134.5z" />
<glyph unicode="&#xb7;" horiz-adv-x="583" d="M95 773q0 40 15.5 75.5t42.5 62t62.5 41.5t75.5 15t75.5 -15.5t62.5 -41.5t42.5 -61.5t15.5 -75.5q0 -39 -15.5 -74.5t-42.5 -62.5t-62.5 -42.5t-75.5 -15.5t-75.5 15.5t-62.5 42t-42.5 62t-15.5 75.5z" />
<glyph unicode="&#xb8;" horiz-adv-x="666" d="M113 -238q8 -3 23 -5t32 -4t33.5 -3t28.5 -1q74 0 74 53q0 49 -124 49v175h184v-89q46 -5 76 -17t47.5 -30t24 -42.5t6.5 -55.5q0 -43 -16.5 -77.5t-52 -58.5t-91.5 -37t-134 -13q-10 0 -24.5 0.5t-30.5 1.5t-31 2.5t-25 3.5v148z" />
<glyph unicode="&#xb9;" horiz-adv-x="666" d="M63 1021v148q242 0 242 173h145v-734h-180v444q-74 -31 -207 -31z" />
<glyph unicode="&#xba;" horiz-adv-x="729" d="M29 1040q0 87 24.5 156t68.5 118t105.5 75t136.5 26q73 0 135 -26.5t106 -75.5t69 -118.5t25 -154.5q0 -89 -25 -159t-69 -118.5t-106 -74t-135 -25.5q-76 0 -138 25t-105.5 73.5t-67.5 118.5t-24 160zM60 465v152h609v-152h-609zM243 1040q0 -182 121 -182 q122 0 122 182q0 177 -122 177q-121 0 -121 -177z" />
<glyph unicode="&#xbb;" horiz-adv-x="1111" d="M104 64l275 448l-275 448h221l311 -448l-311 -448h-221zM474 64l276 448l-276 448h220l312 -448l-312 -448h-220z" />
<glyph unicode="&#xbc;" horiz-adv-x="1541" d="M83 1021v148q242 0 242 173h145v-681h-180v391q-74 -31 -207 -31zM176 0l940 1320h203l-940 -1320h-203zM800 132v136l390 433h138v-413h90v-156h-90v-132h-168v132h-360zM986 288h174v192z" />
<glyph unicode="&#xbd;" horiz-adv-x="1541" d="M63 1021v148q242 0 242 173h145v-734h-180v444q-74 -31 -207 -31zM156 0l940 1320h203l-940 -1320h-203zM859 0q14 96 77 172t177 145q57 34 91.5 59t53 44.5t24.5 37.5t6 39q0 80 -103 80q-102 0 -123 -92h-186q48 248 310 248q69 0 124 -17t93.5 -47t58.5 -72t20 -92 t-15.5 -88.5t-41 -69t-59 -54.5t-69.5 -45.5l-72 -43t-67 -45.5h327v-159h-626z" />
<glyph unicode="&#xbe;" horiz-adv-x="1541" d="M31 798h173q13 -27 44 -40.5t72 -13.5q118 0 118 102q0 36 -25 49.5t-86 13.5h-76v141q49 0 79.5 6t47.5 16.5t23.5 26t6.5 33.5q0 55 -90 55q-16 0 -32 -1.5t-29.5 -6.5t-24 -14.5t-15.5 -25.5h-175q18 108 89.5 155.5t188.5 47.5q65 0 116 -15t86.5 -41t54.5 -62 t19 -78q0 -107 -81 -156q114 -45 114 -171q0 -50 -21 -92t-60.5 -72t-95.5 -47t-126 -17q-129 0 -200 50t-95 157zM226 0l940 1320h203l-940 -1320h-203zM800 132v136l390 433h138v-413h90v-156h-90v-132h-168v132h-360zM986 288h174v192z" />
<glyph unicode="&#xbf;" d="M59 -18q0 54 14 101.5t39 90t60 80.5t77 73q47 39 75.5 69t38.5 52q20 43 20 189h225v-117.5t-39 -163.5q-38 -78 -142 -165q-45 -38 -70 -66t-38 -50.5t-16 -42t-3 -40.5q0 -39 13.5 -72t38.5 -57t59 -37.5t76 -13.5q164 0 200 229h240q-9 -98 -44.5 -177.5t-93 -135 t-134 -85.5t-166.5 -30q-96 0 -175 27.5t-135.5 76.5t-88 117t-31.5 148zM366 709v246h249v-246h-249z" />
<glyph unicode="&#xc0;" horiz-adv-x="1290" d="M5 0l508 1321h234l538 -1321h-275l-144 378h-462l-138 -378h-261zM345 1662h284l138 -274h-206zM478 587h311l-160 419z" />
<glyph unicode="&#xc1;" horiz-adv-x="1290" d="M5 0l508 1321h234l538 -1321h-275l-144 378h-462l-138 -378h-261zM418 1388l138 274h284l-216 -274h-206zM478 587h311l-160 419z" />
<glyph unicode="&#xc2;" horiz-adv-x="1290" d="M5 0l508 1321h234l538 -1321h-275l-144 378h-462l-138 -378h-261zM296 1388l234 290h198l234 -290h-242l-91 127l-91 -127h-242zM478 587h311l-160 419z" />
<glyph unicode="&#xc3;" horiz-adv-x="1290" d="M5 0l508 1321h234l538 -1321h-275l-144 378h-462l-138 -378h-261zM283 1405q0 48 16 92.5t44 79t67 55.5t86 21q19 0 51.5 -9t66 -20t62 -20t39.5 -9q14 0 28 2t25.5 8t20 17.5t10.5 31.5h188q0 -49 -15.5 -93.5t-43.5 -78.5t-67 -54t-86 -20q-20 0 -53.5 8.5t-67 19 t-61.5 19t-37 8.5q-14 0 -28.5 -2t-26 -8t-19.5 -17.5t-10 -30.5h-189zM478 587h311l-160 419z" />
<glyph unicode="&#xc4;" horiz-adv-x="1290" d="M5 0l508 1321h234l538 -1321h-275l-144 378h-462l-138 -378h-261zM324 1408v248h235v-248h-235zM478 587h311l-160 419zM710 1408v248h233v-248h-233z" />
<glyph unicode="&#xc5;" horiz-adv-x="1290" d="M5 0l508 1321h234l538 -1321h-275l-144 378h-462l-138 -378h-261zM451 1520q0 36 13.5 68.5t37.5 57t56.5 39t69.5 14.5t69.5 -14.5t57 -39.5t38.5 -57t14 -68t-14 -68.5t-38 -56.5t-57 -38.5t-70 -14.5t-69.5 13.5t-56.5 37.5t-37.5 56.5t-13.5 70.5zM478 587h311 l-160 419zM560 1520q0 -29 20 -49.5t48 -20.5q30 0 50 20t20 50q0 28 -20.5 49t-49.5 21q-28 0 -48 -21t-20 -49z" />
<glyph unicode="&#xc6;" horiz-adv-x="1855" d="M5 0l763 1320h959v-226h-620v-299h572v-225h-572v-343h648v-227h-893v359h-374l-199 -359h-284zM610 585h252v455z" />
<glyph unicode="&#xc7;" horiz-adv-x="1365" d="M100 661q0 156 44 282t124.5 214.5t195 136.5t255.5 48q102 0 193 -31t163 -88t121 -138t66 -180h-251q-10 51 -36 91t-64 67.5t-87 42t-104 14.5q-85 0 -153 -30t-116 -88t-74 -143.5t-26 -197.5q0 -111 26 -197t74 -145.5t115.5 -90t150.5 -30.5q119 0 197 61.5 t98 178.5h253q-14 -111 -60.5 -196.5t-118 -144t-165 -88.5t-202.5 -30q-143 0 -257.5 48t-194.5 137t-123.5 215t-43.5 282zM573 -238q8 -3 23 -5t32 -4t33.5 -3t28.5 -1q74 0 74 53q0 49 -124 49v175h184v-89q46 -5 76 -17t47.5 -30t24 -42.5t6.5 -55.5q0 -43 -16.5 -77.5 t-52 -58.5t-91.5 -37t-134 -13q-10 0 -24.5 0.5t-30.5 1.5t-31 2.5t-25 3.5v148z" />
<glyph unicode="&#xc8;" horiz-adv-x="1269" d="M160 0v1320h980v-227h-734v-298h687v-225h-687v-343h763v-227h-1009zM368 1662h284l138 -274h-206z" />
<glyph unicode="&#xc9;" horiz-adv-x="1269" d="M160 0v1320h980v-227h-734v-298h687v-225h-687v-343h763v-227h-1009zM528 1388l138 274h284l-216 -274h-206z" />
<glyph unicode="&#xca;" horiz-adv-x="1269" d="M160 0v1320h980v-227h-734v-298h687v-225h-687v-343h763v-227h-1009zM336 1388l234 290h198l234 -290h-242l-91 127l-91 -127h-242z" />
<glyph unicode="&#xcb;" horiz-adv-x="1269" d="M160 0v1320h980v-227h-734v-298h687v-225h-687v-343h763v-227h-1009zM356 1408v248h235v-248h-235zM742 1408v248h233v-248h-233z" />
<glyph unicode="&#xcc;" horiz-adv-x="565" d="M-12 1662h284l138 -274h-206zM160 0v1320h245v-1320h-245z" />
<glyph unicode="&#xcd;" horiz-adv-x="565" d="M128 1388l138 274h284l-216 -274h-206zM160 0v1320h245v-1320h-245z" />
<glyph unicode="&#xce;" horiz-adv-x="565" d="M-44 1388l234 290h198l234 -290h-242l-91 127l-91 -127h-242zM160 0v1320h245v-1320h-245z" />
<glyph unicode="&#xcf;" horiz-adv-x="565" d="M-26 1408v248h235v-248h-235zM160 0v1320h245v-1320h-245zM360 1408v248h233v-248h-233z" />
<glyph unicode="&#xd0;" horiz-adv-x="1370" d="M7 548v227h153v545h435q675 0 675 -653q0 -667 -675 -667h-435v548h-153zM407 227h187q123 0 205 30t130.5 86.5t68.5 138t20 185.5q0 100 -19.5 179t-68 134t-130.5 84t-206 29h-187v-318h294v-227h-294v-321z" />
<glyph unicode="&#xd1;" horiz-adv-x="1378" d="M160 0v1320h233l586 -884v884h239v-1320h-232l-589 883v-883h-237zM324 1405q0 48 16 92.5t44 79t67 55.5t86 21q19 0 51.5 -9t66 -20t62 -20t39.5 -9q14 0 28 2t25.5 8t20 17.5t10.5 31.5h188q0 -49 -15.5 -93.5t-43.5 -78.5t-67 -54t-86 -20q-20 0 -53.5 8.5t-67 19 t-61.5 19t-37 8.5q-14 0 -28.5 -2t-26 -8t-19.5 -17.5t-10 -30.5h-189z" />
<glyph unicode="&#xd2;" horiz-adv-x="1470" d="M100 661q0 154 47.5 280t132.5 215t201 137.5t254 48.5t254.5 -49t201 -138t132 -215t47.5 -279q0 -151 -47 -276.5t-131 -215.5t-200.5 -140t-256.5 -50t-256.5 49.5t-200.5 139.5t-131 215.5t-47 277.5zM351 661q0 -109 28.5 -195t79.5 -145.5t121.5 -91t153.5 -31.5 q84 0 155 31.5t122 91t79.5 145.5t28.5 195q0 110 -29 195.5t-80 144.5t-121 89.5t-152 30.5q-84 0 -154.5 -31t-122 -90.5t-80.5 -145t-29 -193.5zM448 1662h284l138 -274h-206z" />
<glyph unicode="&#xd3;" horiz-adv-x="1470" d="M100 661q0 154 47.5 280t132.5 215t201 137.5t254 48.5t254.5 -49t201 -138t132 -215t47.5 -279q0 -151 -47 -276.5t-131 -215.5t-200.5 -140t-256.5 -50t-256.5 49.5t-200.5 139.5t-131 215.5t-47 277.5zM351 661q0 -109 28.5 -195t79.5 -145.5t121.5 -91t153.5 -31.5 q84 0 155 31.5t122 91t79.5 145.5t28.5 195q0 110 -29 195.5t-80 144.5t-121 89.5t-152 30.5q-84 0 -154.5 -31t-122 -90.5t-80.5 -145t-29 -193.5zM548 1388l138 274h284l-216 -274h-206z" />
<glyph unicode="&#xd4;" horiz-adv-x="1470" d="M100 661q0 154 47.5 280t132.5 215t201 137.5t254 48.5t254.5 -49t201 -138t132 -215t47.5 -279q0 -151 -47 -276.5t-131 -215.5t-200.5 -140t-256.5 -50t-256.5 49.5t-200.5 139.5t-131 215.5t-47 277.5zM351 661q0 -109 28.5 -195t79.5 -145.5t121.5 -91t153.5 -31.5 q84 0 155 31.5t122 91t79.5 145.5t28.5 195q0 110 -29 195.5t-80 144.5t-121 89.5t-152 30.5q-84 0 -154.5 -31t-122 -90.5t-80.5 -145t-29 -193.5zM406 1388l234 290h198l234 -290h-242l-91 127l-91 -127h-242z" />
<glyph unicode="&#xd5;" horiz-adv-x="1470" d="M100 661q0 154 47.5 280t132.5 215t201 137.5t254 48.5t254.5 -49t201 -138t132 -215t47.5 -279q0 -151 -47 -276.5t-131 -215.5t-200.5 -140t-256.5 -50t-256.5 49.5t-200.5 139.5t-131 215.5t-47 277.5zM351 661q0 -109 28.5 -195t79.5 -145.5t121.5 -91t153.5 -31.5 q84 0 155 31.5t122 91t79.5 145.5t28.5 195q0 110 -29 195.5t-80 144.5t-121 89.5t-152 30.5q-84 0 -154.5 -31t-122 -90.5t-80.5 -145t-29 -193.5zM386 1405q0 48 16 92.5t44 79t67 55.5t86 21q19 0 51.5 -9t66 -20t62 -20t39.5 -9q14 0 28 2t25.5 8t20 17.5t10.5 31.5h188 q0 -49 -15.5 -93.5t-43.5 -78.5t-67 -54t-86 -20q-20 0 -53.5 8.5t-67 19t-61.5 19t-37 8.5q-14 0 -28.5 -2t-26 -8t-19.5 -17.5t-10 -30.5h-189z" />
<glyph unicode="&#xd6;" horiz-adv-x="1470" d="M100 661q0 154 47.5 280t132.5 215t201 137.5t254 48.5t254.5 -49t201 -138t132 -215t47.5 -279q0 -151 -47 -276.5t-131 -215.5t-200.5 -140t-256.5 -50t-256.5 49.5t-200.5 139.5t-131 215.5t-47 277.5zM351 661q0 -109 28.5 -195t79.5 -145.5t121.5 -91t153.5 -31.5 q84 0 155 31.5t122 91t79.5 145.5t28.5 195q0 110 -29 195.5t-80 144.5t-121 89.5t-152 30.5q-84 0 -154.5 -31t-122 -90.5t-80.5 -145t-29 -193.5zM424 1408v248h235v-248h-235zM810 1408v248h233v-248h-233z" />
<glyph unicode="&#xd7;" horiz-adv-x="1077" d="M104 378l260 259l-260 259l154 154l259 -259l259 259l154 -154l-259 -259l259 -259l-154 -154l-259 259l-259 -259z" />
<glyph unicode="&#xd8;" horiz-adv-x="1470" d="M75 64l150 168q-60 86 -92.5 193.5t-32.5 235.5q0 154 47.5 280t132.5 215t201 137.5t254 48.5q109 0 203.5 -30t172.5 -87l142 159l148 -123l-155 -174q60 -85 92 -192t32 -234q0 -151 -47 -276.5t-131 -215.5t-200.5 -140t-256.5 -50q-109 0 -203.5 29.5t-172.5 86.5 l-142 -159zM351 661q0 -69 11.5 -128t33.5 -110l560 628q-93 70 -219 70q-84 0 -154.5 -31t-122 -90.5t-80.5 -145t-29 -193.5zM514 269q46 -35 101.5 -53t118.5 -18q84 0 155 31.5t122 91t79.5 145.5t28.5 195q0 69 -11.5 127.5t-32.5 107.5z" />
<glyph unicode="&#xd9;" horiz-adv-x="1378" d="M160 564v756h246v-754q0 -113 19 -183.5t55 -110t88.5 -54t120.5 -14.5q69 0 121.5 14.5t88 54.5t53.5 110.5t18 182.5v754h248v-756q0 -138 -23.5 -246.5t-83.5 -183.5t-162.5 -115t-259.5 -40q-125 0 -212.5 25t-146.5 67.5t-93 100t-51 122.5t-21.5 134t-4.5 136z M396 1662h284l138 -274h-206z" />
<glyph unicode="&#xda;" horiz-adv-x="1378" d="M160 564v756h246v-754q0 -113 19 -183.5t55 -110t88.5 -54t120.5 -14.5q69 0 121.5 14.5t88 54.5t53.5 110.5t18 182.5v754h248v-756q0 -138 -23.5 -246.5t-83.5 -183.5t-162.5 -115t-259.5 -40q-125 0 -212.5 25t-146.5 67.5t-93 100t-51 122.5t-21.5 134t-4.5 136z M556 1388l138 274h284l-216 -274h-206z" />
<glyph unicode="&#xdb;" horiz-adv-x="1378" d="M160 564v756h246v-754q0 -113 19 -183.5t55 -110t88.5 -54t120.5 -14.5q69 0 121.5 14.5t88 54.5t53.5 110.5t18 182.5v754h248v-756q0 -138 -23.5 -246.5t-83.5 -183.5t-162.5 -115t-259.5 -40q-125 0 -212.5 25t-146.5 67.5t-93 100t-51 122.5t-21.5 134t-4.5 136z M354 1388l234 290h198l234 -290h-242l-91 127l-91 -127h-242z" />
<glyph unicode="&#xdc;" horiz-adv-x="1378" d="M160 564v756h246v-754q0 -113 19 -183.5t55 -110t88.5 -54t120.5 -14.5q69 0 121.5 14.5t88 54.5t53.5 110.5t18 182.5v754h248v-756q0 -138 -23.5 -246.5t-83.5 -183.5t-162.5 -115t-259.5 -40q-125 0 -212.5 25t-146.5 67.5t-93 100t-51 122.5t-21.5 134t-4.5 136z M376 1408v248h235v-248h-235zM762 1408v248h233v-248h-233z" />
<glyph unicode="&#xdd;" horiz-adv-x="1342" d="M25 1320h298l349 -534l347 534h298l-522 -765v-555h-247v555zM528 1388l138 274h284l-216 -274h-206z" />
<glyph unicode="&#xde;" horiz-adv-x="1275" d="M160 0v1320h246v-244h260q102 0 196 -17.5t165.5 -63t114.5 -123t43 -197.5q0 -211 -128 -316.5t-380 -105.5h-271v-253h-246zM406 479h276q68 0 115.5 12.5t77.5 37t44 60t14 82.5q0 57 -20.5 91.5t-56 54t-82 26t-97.5 6.5h-271v-370z" />
<glyph unicode="&#xdf;" horiz-adv-x="1155" d="M100 0v897q0 445 399 445q104 0 176.5 -24t117.5 -64t65.5 -93t20.5 -110q0 -48 -19.5 -91.5t-42.5 -83t-42.5 -76t-19.5 -71.5q0 -12 4 -27t18.5 -34t41 -42t71.5 -53q55 -36 91 -68.5t57 -65.5t29 -68t8 -75q0 -65 -25 -122.5t-70 -100.5t-108.5 -68.5t-140.5 -25.5 q-63 0 -118 17.5t-98.5 50.5t-73.5 79.5t-41 106.5h234q8 -30 34 -42t60 -12q51 0 80 29.5t29 75.5q0 22 -7 39t-22.5 34t-42 35.5t-65.5 42.5q-49 30 -83.5 57.5t-56 57t-31.5 64t-10 80.5q0 25 10 53.5t25 59.5t32 62t32 61t25 56.5t10 48.5q0 20 -10 39t-29.5 34t-49 24 t-68.5 9q-37 0 -66.5 -11t-50.5 -39t-32.5 -77t-11.5 -124v-890h-235z" />
<glyph unicode="&#xe0;" horiz-adv-x="1058" d="M80 271q0 347 571 347h38q-1 39 -6.5 68.5t-23.5 50t-52 31t-91 10.5q-71 0 -112.5 -22t-56.5 -83h-241q42 305 420 305q92 0 165.5 -16.5t125 -58.5t79 -114t27.5 -183v-606h-234v50q-58 -35 -125.5 -54t-144.5 -19q-72 0 -134 21.5t-107.5 60.5t-71.5 93t-26 119z M243 1366h284l138 -274h-206zM320 279q0 -48 39 -75t105 -27t127 26.5t98 77.5v144h-69q-300 0 -300 -146z" />
<glyph unicode="&#xe1;" horiz-adv-x="1058" d="M80 271q0 347 571 347h38q-1 39 -6.5 68.5t-23.5 50t-52 31t-91 10.5q-71 0 -112.5 -22t-56.5 -83h-241q42 305 420 305q92 0 165.5 -16.5t125 -58.5t79 -114t27.5 -183v-606h-234v50q-58 -35 -125.5 -54t-144.5 -19q-72 0 -134 21.5t-107.5 60.5t-71.5 93t-26 119z M320 279q0 -48 39 -75t105 -27t127 26.5t98 77.5v144h-69q-300 0 -300 -146zM348 1092l138 274h284l-216 -274h-206z" />
<glyph unicode="&#xe2;" horiz-adv-x="1058" d="M80 271q0 347 571 347h38q-1 39 -6.5 68.5t-23.5 50t-52 31t-91 10.5q-71 0 -112.5 -22t-56.5 -83h-241q42 305 420 305q92 0 165.5 -16.5t125 -58.5t79 -114t27.5 -183v-606h-234v50q-58 -35 -125.5 -54t-144.5 -19q-72 0 -134 21.5t-107.5 60.5t-71.5 93t-26 119z M191 1092l234 290h198l234 -290h-242l-91 127l-91 -127h-242zM320 279q0 -48 39 -75t105 -27t127 26.5t98 77.5v144h-69q-300 0 -300 -146z" />
<glyph unicode="&#xe3;" horiz-adv-x="1058" d="M80 271q0 347 571 347h38q-1 39 -6.5 68.5t-23.5 50t-52 31t-91 10.5q-71 0 -112.5 -22t-56.5 -83h-241q42 305 420 305q92 0 165.5 -16.5t125 -58.5t79 -114t27.5 -183v-606h-234v50q-58 -35 -125.5 -54t-144.5 -19q-72 0 -134 21.5t-107.5 60.5t-71.5 93t-26 119z M161 1109q0 48 16 92.5t44 79t67 55.5t86 21q19 0 51.5 -9t66 -20t62 -20t39.5 -9q14 0 28 2t25.5 8t20 17.5t10.5 31.5h188q0 -49 -15.5 -93.5t-43.5 -78.5t-67 -54t-86 -20q-20 0 -53.5 8.5t-67 19t-61.5 19t-37 8.5q-14 0 -28.5 -2t-26 -8t-19.5 -17.5t-10 -30.5h-189z M320 279q0 -48 39 -75t105 -27t127 26.5t98 77.5v144h-69q-300 0 -300 -146z" />
<glyph unicode="&#xe4;" horiz-adv-x="1058" d="M80 271q0 347 571 347h38q-1 39 -6.5 68.5t-23.5 50t-52 31t-91 10.5q-71 0 -112.5 -22t-56.5 -83h-241q42 305 420 305q92 0 165.5 -16.5t125 -58.5t79 -114t27.5 -183v-606h-234v50q-58 -35 -125.5 -54t-144.5 -19q-72 0 -134 21.5t-107.5 60.5t-71.5 93t-26 119z M203 1112v248h235v-248h-235zM320 279q0 -48 39 -75t105 -27t127 26.5t98 77.5v144h-69q-300 0 -300 -146zM589 1112v248h233v-248h-233z" />
<glyph unicode="&#xe5;" horiz-adv-x="1058" d="M80 271q0 347 571 347h38q-1 39 -6.5 68.5t-23.5 50t-52 31t-91 10.5q-71 0 -112.5 -22t-56.5 -83h-241q42 305 420 305q92 0 165.5 -16.5t125 -58.5t79 -114t27.5 -183v-606h-234v50q-58 -35 -125.5 -54t-144.5 -19q-72 0 -134 21.5t-107.5 60.5t-71.5 93t-26 119z M320 279q0 -48 39 -75t105 -27t127 26.5t98 77.5v144h-69q-300 0 -300 -146zM344 1176q0 36 13.5 68.5t37.5 57t56.5 39t69.5 14.5t69.5 -14.5t57 -39.5t38.5 -57t14 -68t-14 -68.5t-38 -56.5t-57 -38.5t-70 -14.5t-69.5 13.5t-56.5 37.5t-37.5 56.5t-13.5 70.5zM453 1176 q0 -29 20 -49.5t48 -20.5q30 0 50 20t20 50q0 28 -20.5 49t-49.5 21q-28 0 -48 -21t-20 -49z" />
<glyph unicode="&#xe6;" horiz-adv-x="1642" d="M84 271q0 87 29.5 152t93.5 108.5t164.5 65t243.5 21.5h38q-1 39 -6 68.5t-19 50t-40 31t-68 10.5q-71 0 -112.5 -22t-56.5 -83h-241q42 305 420 305q97 0 166 -18.5t114 -66.5q53 42 119.5 63.5t147.5 21.5q104 0 187.5 -34t142.5 -98t91 -157t32 -211v-75h-638 q36 -226 202 -226q27 0 54.5 8t51 23.5t41 38t25.5 52.5h247q-18 -78 -56.5 -138t-93 -101t-123 -62t-146.5 -21q-109 0 -194.5 36.5t-144.5 105.5q-37 -44 -81.5 -72t-89.5 -43.5t-87 -21t-74 -5.5q-72 0 -134 21.5t-107.5 60.5t-71.5 93t-26 119zM324 279q0 -48 39 -75 t105 -27q33 0 59 6.5t48 20t41 32.5t37 45v144h-69q-75 0 -125 -9t-80 -27t-42.5 -45.5t-12.5 -64.5zM897 602h379q-23 88 -75 132t-124 44q-71 0 -114 -44t-66 -132z" />
<glyph unicode="&#xe7;" horiz-adv-x="982" d="M80 478q0 118 32.5 211t92 157t143.5 98t186 34q76 0 141.5 -21t117.5 -62t87.5 -103.5t50.5 -144.5h-245q-9 69 -51 100t-101 31q-47 0 -86 -19t-67 -56.5t-43.5 -93.5t-15.5 -131t15.5 -131t43.5 -94t67 -57t86 -19q27 0 52.5 8.5t46 26t34.5 43t19 59.5h246 q-15 -84 -51 -147t-88 -105t-118 -63.5t-141 -21.5q-101 0 -184.5 33.5t-143.5 97t-93 157t-33 213.5zM364 -238q8 -3 23 -5t32 -4t33.5 -3t28.5 -1q74 0 74 53q0 49 -124 49v175h184v-89q46 -5 76 -17t47.5 -30t24 -42.5t6.5 -55.5q0 -43 -16.5 -77.5t-52 -58.5t-91.5 -37 t-134 -13q-10 0 -24.5 0.5t-30.5 1.5t-31 2.5t-25 3.5v148z" />
<glyph unicode="&#xe8;" horiz-adv-x="1066" d="M80 478q0 116 33 208.5t93 157.5t143 99.5t184 34.5q104 0 187.5 -34t142.5 -98t91 -157t32 -211v-75h-658q18 -113 77.5 -169.5t144.5 -56.5q27 0 54.5 8t51 23.5t41 38t25.5 52.5h247q-18 -78 -56.5 -138t-93 -101t-123 -62t-146.5 -21q-105 0 -191.5 34t-148.5 98.5 t-96 157.5t-34 211zM243 1366h284l138 -274h-206zM333 602h399q-23 88 -75 132t-124 44q-71 0 -124 -44t-76 -132z" />
<glyph unicode="&#xe9;" horiz-adv-x="1066" d="M80 478q0 116 33 208.5t93 157.5t143 99.5t184 34.5q104 0 187.5 -34t142.5 -98t91 -157t32 -211v-75h-658q18 -113 77.5 -169.5t144.5 -56.5q27 0 54.5 8t51 23.5t41 38t25.5 52.5h247q-18 -78 -56.5 -138t-93 -101t-123 -62t-146.5 -21q-105 0 -191.5 34t-148.5 98.5 t-96 157.5t-34 211zM333 602h399q-23 88 -75 132t-124 44q-71 0 -124 -44t-76 -132zM388 1092l138 274h284l-216 -274h-206z" />
<glyph unicode="&#xea;" horiz-adv-x="1066" d="M80 478q0 116 33 208.5t93 157.5t143 99.5t184 34.5q104 0 187.5 -34t142.5 -98t91 -157t32 -211v-75h-658q18 -113 77.5 -169.5t144.5 -56.5q27 0 54.5 8t51 23.5t41 38t25.5 52.5h247q-18 -78 -56.5 -138t-93 -101t-123 -62t-146.5 -21q-105 0 -191.5 34t-148.5 98.5 t-96 157.5t-34 211zM191 1092l234 290h198l234 -290h-242l-91 127l-91 -127h-242zM333 602h399q-23 88 -75 132t-124 44q-71 0 -124 -44t-76 -132z" />
<glyph unicode="&#xeb;" horiz-adv-x="1066" d="M80 478q0 116 33 208.5t93 157.5t143 99.5t184 34.5q104 0 187.5 -34t142.5 -98t91 -157t32 -211v-75h-658q18 -113 77.5 -169.5t144.5 -56.5q27 0 54.5 8t51 23.5t41 38t25.5 52.5h247q-18 -78 -56.5 -138t-93 -101t-123 -62t-146.5 -21q-105 0 -191.5 34t-148.5 98.5 t-96 157.5t-34 211zM218 1112v248h235v-248h-235zM333 602h399q-23 88 -75 132t-124 44q-71 0 -124 -44t-76 -132zM604 1112v248h233v-248h-233z" />
<glyph unicode="&#xec;" horiz-adv-x="504" d="M-14 1366h284l138 -274h-206zM135 0v955h234v-955h-234z" />
<glyph unicode="&#xed;" horiz-adv-x="504" d="M98 1092l138 274h284l-216 -274h-206zM135 0v955h234v-955h-234z" />
<glyph unicode="&#xee;" horiz-adv-x="504" d="M-83 1092l234 290h198l234 -290h-242l-91 127l-91 -127h-242zM135 0v955h234v-955h-234z" />
<glyph unicode="&#xef;" horiz-adv-x="504" d="M-74 1112v248h235v-248h-235zM135 0v955h234v-955h-234zM333 1112v248h233v-248h-233z" />
<glyph unicode="&#xf0;" horiz-adv-x="1066" d="M80 478q0 118 32.5 211t91.5 157t143 98t186 34q17 0 33 -1t32 -3q-8 15 -19.5 31.5t-23.5 31t-22 25.5t-15 14l-189 -88l-68 109l163 81l-178 142h279l79 -59l148 64l66 -108l-109 -56q92 -111 147 -208.5t84 -182t37.5 -157.5t8.5 -135q0 -118 -32.5 -211t-91.5 -157.5 t-143 -98.5t-186 -34q-101 0 -184.5 33.5t-143 97t-92.5 157t-33 213.5zM322 478q0 -75 15.5 -131t43 -94t66.5 -57t86 -19q46 0 85 19t66.5 57t43 94t15.5 131t-15.5 131t-43 93.5t-66.5 56.5t-85 19q-47 0 -86 -19t-66.5 -56.5t-43 -93.5t-15.5 -131z" />
<glyph unicode="&#xf1;" horiz-adv-x="1066" d="M135 0v955h235v-56q102 79 222 79q339 0 339 -365v-613h-238v606q0 89 -28.5 127t-94.5 38q-96 0 -200 -116v-655h-235zM171 1109q0 48 16 92.5t44 79t67 55.5t86 21q19 0 51.5 -9t66 -20t62 -20t39.5 -9q14 0 28 2t25.5 8t20 17.5t10.5 31.5h188q0 -49 -15.5 -93.5 t-43.5 -78.5t-67 -54t-86 -20q-20 0 -53.5 8.5t-67 19t-61.5 19t-37 8.5q-14 0 -28.5 -2t-26 -8t-19.5 -17.5t-10 -30.5h-189z" />
<glyph unicode="&#xf2;" horiz-adv-x="1066" d="M80 478q0 118 32.5 211t91.5 157t143 98t186 34q104 0 187.5 -34t142.5 -98t91 -157t32 -211t-32.5 -211t-91.5 -157.5t-143 -98.5t-186 -34q-101 0 -184.5 33.5t-143 97t-92.5 157t-33 213.5zM243 1366h284l138 -274h-206zM322 478q0 -75 15.5 -131t43 -94t66.5 -57 t86 -19q46 0 85 19t66.5 57t43 94t15.5 131t-15.5 131t-43 93.5t-66.5 56.5t-85 19q-47 0 -86 -19t-66.5 -56.5t-43 -93.5t-15.5 -131z" />
<glyph unicode="&#xf3;" horiz-adv-x="1066" d="M80 478q0 118 32.5 211t91.5 157t143 98t186 34q104 0 187.5 -34t142.5 -98t91 -157t32 -211t-32.5 -211t-91.5 -157.5t-143 -98.5t-186 -34q-101 0 -184.5 33.5t-143 97t-92.5 157t-33 213.5zM322 478q0 -75 15.5 -131t43 -94t66.5 -57t86 -19q46 0 85 19t66.5 57t43 94 t15.5 131t-15.5 131t-43 93.5t-66.5 56.5t-85 19q-47 0 -86 -19t-66.5 -56.5t-43 -93.5t-15.5 -131zM378 1092l138 274h284l-216 -274h-206z" />
<glyph unicode="&#xf4;" horiz-adv-x="1066" d="M80 478q0 118 32.5 211t91.5 157t143 98t186 34q104 0 187.5 -34t142.5 -98t91 -157t32 -211t-32.5 -211t-91.5 -157.5t-143 -98.5t-186 -34q-101 0 -184.5 33.5t-143 97t-92.5 157t-33 213.5zM196 1092l234 290h198l234 -290h-242l-91 127l-91 -127h-242zM322 478 q0 -75 15.5 -131t43 -94t66.5 -57t86 -19q46 0 85 19t66.5 57t43 94t15.5 131t-15.5 131t-43 93.5t-66.5 56.5t-85 19q-47 0 -86 -19t-66.5 -56.5t-43 -93.5t-15.5 -131z" />
<glyph unicode="&#xf5;" horiz-adv-x="1066" d="M80 478q0 118 32.5 211t91.5 157t143 98t186 34q104 0 187.5 -34t142.5 -98t91 -157t32 -211t-32.5 -211t-91.5 -157.5t-143 -98.5t-186 -34q-101 0 -184.5 33.5t-143 97t-92.5 157t-33 213.5zM171 1109q0 48 16 92.5t44 79t67 55.5t86 21q19 0 51.5 -9t66 -20t62 -20 t39.5 -9q14 0 28 2t25.5 8t20 17.5t10.5 31.5h188q0 -49 -15.5 -93.5t-43.5 -78.5t-67 -54t-86 -20q-20 0 -53.5 8.5t-67 19t-61.5 19t-37 8.5q-14 0 -28.5 -2t-26 -8t-19.5 -17.5t-10 -30.5h-189zM322 478q0 -75 15.5 -131t43 -94t66.5 -57t86 -19q46 0 85 19t66.5 57 t43 94t15.5 131t-15.5 131t-43 93.5t-66.5 56.5t-85 19q-47 0 -86 -19t-66.5 -56.5t-43 -93.5t-15.5 -131z" />
<glyph unicode="&#xf6;" horiz-adv-x="1066" d="M80 478q0 118 32.5 211t91.5 157t143 98t186 34q104 0 187.5 -34t142.5 -98t91 -157t32 -211t-32.5 -211t-91.5 -157.5t-143 -98.5t-186 -34q-101 0 -184.5 33.5t-143 97t-92.5 157t-33 213.5zM213 1112v248h235v-248h-235zM322 478q0 -75 15.5 -131t43 -94t66.5 -57 t86 -19q46 0 85 19t66.5 57t43 94t15.5 131t-15.5 131t-43 93.5t-66.5 56.5t-85 19q-47 0 -86 -19t-66.5 -56.5t-43 -93.5t-15.5 -131zM599 1112v248h233v-248h-233z" />
<glyph unicode="&#xf7;" horiz-adv-x="1077" d="M75 539v196h884v-196h-884zM392 207v247h249v-247h-249zM392 820v247h249v-247h-249z" />
<glyph unicode="&#xf8;" horiz-adv-x="1066" d="M72 30l96 124q-42 62 -65 143t-23 181q0 118 32.5 211t91.5 157t143 98t186 34q66 0 123 -14t106 -40l84 109l132 -97l-91 -118q48 -63 73.5 -148.5t25.5 -191.5q0 -118 -32.5 -211t-91.5 -157.5t-143 -98.5t-186 -34q-142 0 -247 64l-81 -106zM322 478q0 -64 10 -111 l297 385q-43 26 -96 26q-47 0 -86 -19t-66.5 -56.5t-43 -93.5t-15.5 -131zM419 213q48 -36 114 -36q46 0 85 19t66.5 57t43 94t15.5 131q0 38 -4 71t-12 62z" />
<glyph unicode="&#xf9;" horiz-adv-x="1068" d="M135 341v614h239v-606q0 -89 29 -127t94 -38q108 0 201 115v656h235v-955h-235v56q-101 -79 -224 -79q-339 0 -339 364zM243 1366h284l138 -274h-206z" />
<glyph unicode="&#xfa;" horiz-adv-x="1068" d="M135 341v614h239v-606q0 -89 29 -127t94 -38q108 0 201 115v656h235v-955h-235v56q-101 -79 -224 -79q-339 0 -339 364zM418 1092l138 274h284l-216 -274h-206z" />
<glyph unicode="&#xfb;" horiz-adv-x="1068" d="M135 341v614h239v-606q0 -89 29 -127t94 -38q108 0 201 115v656h235v-955h-235v56q-101 -79 -224 -79q-339 0 -339 364zM191 1092l234 290h198l234 -290h-242l-91 127l-91 -127h-242z" />
<glyph unicode="&#xfc;" horiz-adv-x="1068" d="M135 341v614h239v-606q0 -89 29 -127t94 -38q108 0 201 115v656h235v-955h-235v56q-101 -79 -224 -79q-339 0 -339 364zM223 1112v248h235v-248h-235zM609 1112v248h233v-248h-233z" />
<glyph unicode="&#xfd;" horiz-adv-x="969" d="M20 955h255l204 -601l204 601h256l-351 -930q-32 -84 -64.5 -159t-73 -131.5t-93 -89.5t-125.5 -33q-34 0 -69 5t-74 18v224q47 -19 73.5 -22.5t42.5 -3.5q21 0 43 15.5t43 43t40.5 64.5t35.5 81zM348 1092l138 274h284l-216 -274h-206z" />
<glyph unicode="&#xfe;" horiz-adv-x="1064" d="M135 -368v1688h235v-413q94 71 212 71q96 0 171 -35.5t126.5 -100t78 -155.5t26.5 -202q0 -115 -31.5 -209t-87 -160.5t-130.5 -102.5t-163 -36q-60 0 -108.5 11.5t-93.5 38.5v-395h-235zM370 260q88 -83 193 -83q82 0 130.5 78t48.5 230q0 146 -46 219.5t-127 73.5 q-103 0 -199 -126v-392z" />
<glyph unicode="&#xff;" horiz-adv-x="969" d="M20 955h255l204 -601l204 601h256l-351 -930q-32 -84 -64.5 -159t-73 -131.5t-93 -89.5t-125.5 -33q-34 0 -69 5t-74 18v224q47 -19 73.5 -22.5t42.5 -3.5q21 0 43 15.5t43 43t40.5 64.5t35.5 81zM172 1112v248h235v-248h-235zM558 1112v248h233v-248h-233z" />
<glyph unicode="&#x152;" horiz-adv-x="1845" d="M68 661q0 160 39 286t111.5 214t176 134.5t232.5 46.5q66 0 103.5 -8t68.5 -20.5t56.5 -30t78.5 -60.5v98h750v-227h-503v-299h455v-225h-455v-343h531v-227h-778v97q-63 -56 -142.5 -87t-164.5 -31q-129 0 -232 46.5t-176 134t-112 214t-39 287.5zM320 661 q0 -111 21 -197.5t60.5 -145.5t96 -89.5t128.5 -30.5q308 0 308 463q0 460 -303 460q-73 0 -131 -30t-98 -88t-61 -144t-21 -198z" />
<glyph unicode="&#x153;" horiz-adv-x="1743" d="M54 478q0 118 32.5 211t91.5 157t143 98t186 34q207 0 330 -135q62 72 142 103.5t186 31.5q105 0 189 -34t143 -98t90.5 -157t31.5 -211v-75h-659q8 -58 28 -100.5t49 -70.5t66 -41.5t78 -13.5q29 0 57 8t52 23.5t41.5 38t26.5 52.5l242 -1q-16 -78 -54.5 -138 t-93.5 -100.5t-124 -61.5t-147 -21q-212 0 -342 136q-60 -72 -141.5 -104t-190.5 -32q-101 0 -184.5 33.5t-143 97t-92.5 157t-33 213.5zM296 478q0 -75 15.5 -131t43 -94t66.5 -57t86 -19q46 0 85 19t67 57t43.5 94t15.5 131t-15.5 131t-43.5 93.5t-67 56.5t-85 19 q-47 0 -86 -19t-66.5 -56.5t-43 -93.5t-15.5 -131zM967 602h398q-23 87 -75.5 131.5t-124.5 44.5q-69 0 -123 -43.5t-75 -132.5z" />
<glyph unicode="&#x178;" horiz-adv-x="1342" d="M25 1320h298l349 -534l347 534h298l-522 -765v-555h-247v555zM364 1495v248h235v-248h-235zM750 1495v248h233v-248h-233z" />
<glyph unicode="&#x2c6;" horiz-adv-x="700" d="M16 1092l234 290h198l234 -290h-242l-91 127l-91 -127h-242z" />
<glyph unicode="&#x2dc;" horiz-adv-x="731" d="M13 1109q0 48 16 92.5t44 79t67 55.5t86 21q19 0 51.5 -9t66 -20t62 -20t39.5 -9q14 0 28 2t25.5 8t20 17.5t10.5 31.5h188q0 -49 -15.5 -93.5t-43.5 -78.5t-67 -54t-86 -20q-20 0 -53.5 8.5t-67 19t-61.5 19t-37 8.5q-14 0 -28.5 -2t-26 -8t-19.5 -17.5t-10 -30.5h-189z " />
<glyph unicode="&#x2000;" horiz-adv-x="872" />
<glyph unicode="&#x2001;" horiz-adv-x="1744" />
<glyph unicode="&#x2002;" horiz-adv-x="872" />
<glyph unicode="&#x2003;" horiz-adv-x="1744" />
<glyph unicode="&#x2004;" horiz-adv-x="581" />
<glyph unicode="&#x2005;" horiz-adv-x="436" />
<glyph unicode="&#x2006;" horiz-adv-x="290" />
<glyph unicode="&#x2007;" horiz-adv-x="290" />
<glyph unicode="&#x2008;" horiz-adv-x="218" />
<glyph unicode="&#x2009;" horiz-adv-x="348" />
<glyph unicode="&#x200a;" horiz-adv-x="96" />
<glyph unicode="&#x2010;" horiz-adv-x="1249" d="M182 512v199h835v-199h-835z" />
<glyph unicode="&#x2011;" horiz-adv-x="1249" d="M182 512v199h835v-199h-835z" />
<glyph unicode="&#x2012;" horiz-adv-x="1249" d="M182 512v199h835v-199h-835z" />
<glyph unicode="&#x2013;" horiz-adv-x="540" d="M-28 378v199h597v-199h-597z" />
<glyph unicode="&#x2014;" horiz-adv-x="1081" d="M-28 378v199h1137v-199h-1137z" />
<glyph unicode="&#x2018;" horiz-adv-x="480" d="M68 1004q0 65 19.5 118t54 94.5t81 73t99.5 52.5l50 -109q-86 -37 -124 -85t-38 -120v-12t1 -11q17 7 32.5 10.5t41.5 3.5q36 0 64 -12t47.5 -32.5t30 -48.5t10.5 -60q0 -31 -11 -59t-31.5 -49t-49.5 -33t-65 -12q-62 0 -103 28t-65 71t-34 94.5t-10 97.5z" />
<glyph unicode="&#x2019;" horiz-adv-x="480" d="M68 1189q0 31 11 59t31.5 49t49.5 33t65 12q62 0 103 -28t65 -71t34 -94.5t10 -97.5q0 -65 -19.5 -118t-54 -94.5t-81 -73t-99.5 -52.5l-50 109q86 37 124 85t38 120v12t-1 11q-17 -7 -32.5 -10.5t-41.5 -3.5q-36 0 -64 12t-47.5 32.5t-30 48.5t-10.5 60z" />
<glyph unicode="&#x201a;" horiz-adv-x="554" d="M131 0v260h264v-224q0 -68 -16.5 -127.5t-49.5 -104.5t-82.5 -71t-115.5 -26v142q110 0 110 151h-110z" />
<glyph unicode="&#x201c;" horiz-adv-x="910" d="M68 1004q0 65 19.5 118t54 94.5t81 73t99.5 52.5l50 -109q-86 -37 -124 -85t-38 -120v-12t1 -11q17 7 32.5 10.5t41.5 3.5q36 0 64 -12t47.5 -32.5t30 -48.5t10.5 -60q0 -31 -11 -59t-31.5 -49t-49.5 -33t-65 -12q-62 0 -103 28t-65 71t-34 94.5t-10 97.5zM498 1004 q0 65 19.5 118t54 94.5t81 73t99.5 52.5l50 -109q-86 -37 -124 -85t-38 -120v-12t1 -11q17 7 32.5 10.5t41.5 3.5q36 0 64 -12t47.5 -32.5t30 -48.5t10.5 -60q0 -31 -11 -59t-31.5 -49t-49.5 -33t-65 -12q-62 0 -103 28t-65 71t-34 94.5t-10 97.5z" />
<glyph unicode="&#x201d;" horiz-adv-x="910" d="M68 1189q0 31 11 59t31.5 49t49.5 33t65 12q62 0 103 -28t65 -71t34 -94.5t10 -97.5q0 -65 -19.5 -118t-54 -94.5t-81 -73t-99.5 -52.5l-50 109q86 37 124 85t38 120v12t-1 11q-17 -7 -32.5 -10.5t-41.5 -3.5q-36 0 -64 12t-47.5 32.5t-30 48.5t-10.5 60zM498 1189 q0 31 11 59t31.5 49t49.5 33t65 12q62 0 103 -28t65 -71t34 -94.5t10 -97.5q0 -65 -19.5 -118t-54 -94.5t-81 -73t-99.5 -52.5l-50 109q86 37 124 85t38 120v12t-1 11q-17 -7 -32.5 -10.5t-41.5 -3.5q-36 0 -64 12t-47.5 32.5t-30 48.5t-10.5 60z" />
<glyph unicode="&#x201e;" horiz-adv-x="781" d="M101 0v260h264v-224q0 -68 -16.5 -127.5t-49.5 -104.5t-82.5 -71t-115.5 -26v142q60 0 85 41.5t25 109.5h-110zM441 0v260h264v-224q0 -68 -16.5 -127.5t-49.5 -104.5t-82.5 -71t-115.5 -26v142q110 0 110 151h-110z" />
<glyph unicode="&#x2022;" horiz-adv-x="800" d="M113 757q0 58 22.5 110t61.5 91.5t91.5 62.5t112.5 23t112 -23t90.5 -62.5t61 -91.5t22.5 -110q0 -59 -23.5 -111.5t-63.5 -92t-91.5 -62.5t-107.5 -23q-60 0 -112.5 23t-91.5 62.5t-61.5 92t-22.5 111.5z" />
<glyph unicode="&#x2026;" horiz-adv-x="1186" d="M40 140q0 31 12 59t33 49t48.5 33t59.5 12q31 0 59 -12t49 -33t33 -49t12 -59q0 -32 -12 -59.5t-33 -48.5t-49 -33t-59 -12q-32 0 -59.5 12t-48.5 33t-33 48.5t-12 59.5zM440 140q0 31 12 59t33 49t48.5 33t59.5 12q31 0 59 -12t49 -33t33 -49t12 -59q0 -32 -12 -59.5 t-33 -48.5t-49 -33t-59 -12q-32 0 -59.5 12t-48.5 33t-33 48.5t-12 59.5zM840 140q0 31 12 59t33 49t48.5 33t59.5 12q31 0 59 -12t49 -33t33 -49t12 -59q0 -32 -12 -59.5t-33 -48.5t-49 -33t-59 -12q-32 0 -59.5 12t-48.5 33t-33 48.5t-12 59.5z" />
<glyph unicode="&#x202f;" horiz-adv-x="348" />
<glyph unicode="&#x2039;" horiz-adv-x="666" d="M44 512l313 448h222l-255 -448l255 -448h-222z" />
<glyph unicode="&#x203a;" horiz-adv-x="666" d="M59 64l257 448l-257 448h220l313 -448l-313 -448h-220z" />
<glyph unicode="&#x205f;" horiz-adv-x="436" />
<glyph unicode="&#x20ac;" d="M30 434v165h77q-1 25 -1 45q0 19 1 41h-77v166h89q15 115 49 206t86.5 154.5t124 97t162.5 33.5q168 0 275.5 -105t142.5 -301h-241q-18 98 -64 152.5t-113 54.5q-36 0 -64.5 -21.5t-51 -60t-38.5 -92t-26 -118.5h257l-44 -166h-226v-86h197l-47 -165h-137 q39 -257 180 -257q147 0 180 252h242q-53 -452 -422 -452q-359 0 -421 457h-90z" />
<glyph unicode="&#x2122;" horiz-adv-x="1261" d="M45 1211v108h471v-108h-175v-535h-121v535h-175zM590 676v643h177l111 -496l112 496h176v-643h-111v525l-121 -525h-111l-121 525v-525h-112z" />
<glyph unicode="&#x25fc;" horiz-adv-x="955" d="M0 0v955h955v-955h-955z" />
</font>
</defs>
</svg>
